<svg width="100" height="100" viewBox="0 0 100 100" fill="none" xmlns="http://www.w3.org/2000/svg">
<path d="M100 50C100 77.6142 77.6142 100 50 100C22.3858 100 0 77.6142 0 50C0 22.3858 22.3858 0 50 0C77.6142 0 100 22.3858 100 50Z" fill="#FBCA1E"/>
<path d="M9.89811 35.3222C11.9337 28.8762 15.547 23.0407 20.41 18.3453C25.0689 13.8471 30.7365 10.5289 36.9395 8.66806L40.9289 7.47124C45.2728 6.16807 49.8187 5.67171 54.3414 6.00673L56.1025 6.13717C59.3414 6.3771 62.5116 7.19284 65.4641 8.54606L70.8364 11.0084C72.247 11.6549 73.434 12.7053 74.2472 14.0268C75.9127 16.7333 75.7798 20.1775 73.9106 22.7477L68.9999 29.4999L48.4999 57.4999L36.4999 75.4999L32.0814 81.3912C29.5341 84.7877 24.7411 85.5294 21.2863 83.0617C20.764 82.6886 20.2897 82.2526 19.874 81.7636L17.1884 78.6041C13.7613 74.5722 11.1154 69.8463 9.44197 64.8262C8.16629 60.9991 7.42929 56.9526 7.29027 52.921L7.27137 52.373C7.0917 47.1625 7.80214 41.9595 9.37213 36.9878L9.89811 35.3222Z" fill="#FFD336"/>
<path fill-rule="evenodd" clip-rule="evenodd" d="M75 25H33.5H26V31.5V41V59.5V70.5V75.5H33.5H75V57.5H48V43H70H75V25Z" fill="url(#paint0_linear_348_72)"/>
<defs>
<linearGradient id="paint0_linear_348_72" x1="54.5" y1="50" x2="54.5" y2="50" gradientUnits="userSpaceOnUse">
<stop stop-color="#FFFCF3"/>
<stop offset="1" stop-color="#FFF8E1"/>
</linearGradient>
</defs>
</svg>
