<svg version="1.1" id="Layer_1" xmlns="http://www.w3.org/2000/svg" xmlns:xlink="http://www.w3.org/1999/xlink" x="0px" y="0px"
	 width="100%" viewBox="0 0 200 200" enable-background="new 0 0 200 200" xml:space="preserve">
<path fill="#FBCA1E" opacity="1.000000" stroke="none" 
	d="
M87.000000,1.000000 
	C96.020897,1.000000 105.041786,1.000000 114.723198,1.357347 
	C116.867989,1.825708 118.398552,1.740197 119.829605,2.077205 
	C141.443542,7.167205 160.325317,16.744871 175.422241,33.674568 
	C185.675583,45.172653 192.649292,58.144459 197.218704,72.612267 
	C198.710342,77.335152 199.752350,82.200050 201.000000,87.000000 
	C201.000000,96.020897 201.000000,105.041786 200.642670,114.723221 
	C200.153152,117.030663 200.242981,118.731987 199.854721,120.316139 
	C195.564835,137.819153 188.466187,153.782242 176.234787,167.470963 
	C164.262283,180.869965 150.148209,190.579956 133.095596,196.009323 
	C127.138000,197.906158 121.036041,199.349548 115.000000,201.000000 
	C105.979103,201.000000 96.958214,201.000000 87.278519,200.641968 
	C84.973351,200.145325 83.275337,200.219925 81.688560,199.835403 
	C64.165634,195.589355 48.221947,188.455185 34.526840,176.233810 
	C21.248285,164.384155 11.633555,150.375458 6.068368,133.583679 
	C4.051330,127.497696 2.670905,121.200706 0.999999,115.000000 
	C1.000000,105.979103 1.000000,96.958214 1.358031,87.278503 
	C1.855077,84.972504 1.780737,83.273560 2.165828,81.686066 
	C6.417586,64.158707 13.557671,48.217648 25.775785,34.506271 
	C37.616631,21.218275 51.634178,11.646423 68.405365,6.070672 
	C74.492676,4.046883 80.795509,2.671327 87.000000,1.000000 
M99.143349,115.178482 
	C100.084091,113.632240 100.956345,112.039131 101.977058,110.547623 
	C107.308899,102.756577 112.678452,94.991325 118.766434,87.082069 
	C119.503822,86.987740 120.241211,86.893410 121.908882,86.944862 
	C131.487671,86.944862 141.066452,86.944862 150.985855,86.944862 
	C150.985855,75.390579 150.908142,64.589691 151.033188,53.791157 
	C151.070740,50.547653 148.893967,51.099380 147.044540,50.158932 
	C147.580399,48.962269 147.993652,47.690708 148.671646,46.580864 
	C153.787704,38.206169 153.495697,31.279156 145.628479,25.427540 
	C135.211349,17.679323 123.002335,13.807456 109.887474,12.959813 
	C97.170593,12.137892 85.086823,14.805078 73.163376,18.789278 
	C58.262802,23.768278 45.248405,31.897081 35.674431,44.275295 
	C20.347380,64.091675 13.476724,86.692108 15.929286,111.939461 
	C18.022066,133.483139 27.466785,151.296097 42.776222,166.192139 
	C48.028732,171.302795 57.382511,171.661652 62.379951,166.504044 
	C66.482193,162.270355 69.520828,157.006073 73.678864,152.063095 
	C74.113083,151.986496 74.547302,151.909897 75.914299,151.955795 
	C100.810570,151.955795 125.706848,151.955795 150.667908,151.955795 
	C150.667908,139.650604 150.667908,128.085297 150.667908,115.855446 
	C133.236145,115.855446 116.131660,115.855446 99.143349,115.178482 
z"/>
<path fill="#FFFFFF" opacity="1.000000" stroke="none" 
	d="
M201.000000,86.531342 
	C199.752350,82.200050 198.710342,77.335152 197.218704,72.612267 
	C192.649292,58.144459 185.675583,45.172653 175.422241,33.674568 
	C160.325317,16.744871 141.443542,7.167205 119.829605,2.077205 
	C118.398552,1.740197 116.867989,1.825708 115.191856,1.357347 
	C143.593567,1.000000 172.187134,1.000000 201.000000,1.000000 
	C201.000000,29.353851 201.000000,57.708267 201.000000,86.531342 
z"/>
<path fill="#FFFFFF" opacity="1.000000" stroke="none" 
	d="
M86.531342,1.000000 
	C80.795509,2.671327 74.492676,4.046883 68.405365,6.070672 
	C51.634178,11.646423 37.616631,21.218275 25.775785,34.506271 
	C13.557671,48.217648 6.417586,64.158707 2.165828,81.686066 
	C1.780737,83.273560 1.855077,84.972504 1.358031,86.809845 
	C1.000000,58.406425 1.000000,29.812853 1.000000,1.000000 
	C29.353851,1.000000 57.708267,1.000000 86.531342,1.000000 
z"/>
<path fill="#FFFFFF" opacity="1.000000" stroke="none" 
	d="
M0.999999,115.468658 
	C2.670905,121.200706 4.051330,127.497696 6.068368,133.583679 
	C11.633555,150.375458 21.248285,164.384155 34.526840,176.233810 
	C48.221947,188.455185 64.165634,195.589355 81.688560,199.835403 
	C83.275337,200.219925 84.973351,200.145325 86.809860,200.641968 
	C58.406433,201.000000 29.812864,201.000000 1.000000,201.000000 
	C1.000000,172.646149 1.000000,144.291733 0.999999,115.468658 
z"/>
<path fill="#FFFFFF" opacity="1.000000" stroke="none" 
	d="
M115.468658,201.000000 
	C121.036041,199.349548 127.138000,197.906158 133.095596,196.009323 
	C150.148209,190.579956 164.262283,180.869965 176.234787,167.470963 
	C188.466187,153.782242 195.564835,137.819153 199.854721,120.316139 
	C200.242981,118.731987 200.153152,117.030663 200.642670,115.191879 
	C201.000000,143.593567 201.000000,172.187134 201.000000,201.000000 
	C172.646149,201.000000 144.291733,201.000000 115.468658,201.000000 
z"/>
<path fill="#FFD336" opacity="1.000000" stroke="none" 
	d="
M73.030907,152.198608 
	C69.520828,157.006073 66.482193,162.270355 62.379951,166.504044 
	C57.382511,171.661652 48.028732,171.302795 42.776222,166.192139 
	C27.466785,151.296097 18.022066,133.483139 15.929286,111.939461 
	C13.476724,86.692108 20.347380,64.091675 35.674431,44.275295 
	C45.248405,31.897081 58.262802,23.768278 73.163376,18.789278 
	C85.086823,14.805078 97.170593,12.137892 109.887474,12.959813 
	C123.002335,13.807456 135.211349,17.679323 145.628479,25.427540 
	C153.495697,31.279156 153.787704,38.206169 148.671646,46.580864 
	C147.993652,47.690708 147.580399,48.962269 146.654083,50.575500 
	C145.501450,51.039768 144.739258,51.087467 143.511993,51.087967 
	C113.155991,51.040775 83.265068,51.040775 53.342354,51.040775 
	C53.342354,85.046928 53.342354,118.263626 53.342354,152.198608 
	C60.128239,152.198608 66.579575,152.198608 73.030907,152.198608 
z"/>
<path fill="#FFF6D5" opacity="1.000000" stroke="none" 
	d="
M73.354889,152.130859 
	C66.579575,152.198608 60.128239,152.198608 53.342354,152.198608 
	C53.342354,118.263626 53.342354,85.046928 53.342354,51.040775 
	C83.265068,51.040775 113.155991,51.040775 143.451019,51.427597 
	C140.794495,56.476532 137.726151,61.133621 134.674988,65.801933 
	C130.103195,72.796844 125.543465,79.799644 120.978600,86.799088 
	C120.241211,86.893410 119.503822,86.987740 117.935112,87.072342 
	C110.546623,87.062622 103.989456,87.062622 97.000412,87.062622 
	C97.000412,94.179184 96.899414,100.609940 97.044586,107.035133 
	C97.113373,110.079788 97.652611,113.113823 97.964668,116.508240 
	C96.103119,119.944527 94.375496,123.105125 92.385422,126.090805 
	C86.640778,134.709412 80.790390,143.257523 74.981522,151.833313 
	C74.547302,151.909897 74.113083,151.986496 73.354889,152.130859 
z"/>
<path fill="#FFF2C3" opacity="1.000000" stroke="none" 
	d="
M75.447906,151.894562 
	C80.790390,143.257523 86.640778,134.709412 92.385422,126.090805 
	C94.375496,123.105125 96.103119,119.944527 98.227051,116.434860 
	C98.678047,115.955757 98.852615,115.905602 99.027176,115.855446 
	C116.131660,115.855446 133.236145,115.855446 150.667908,115.855446 
	C150.667908,128.085297 150.667908,139.650604 150.667908,151.955795 
	C125.706848,151.955795 100.810570,151.955795 75.447906,151.894562 
z"/>
<path fill="#FFF2C3" opacity="1.000000" stroke="none" 
	d="
M121.443741,86.871979 
	C125.543465,79.799644 130.103195,72.796844 134.674988,65.801933 
	C137.726151,61.133621 140.794495,56.476532 143.916107,51.474789 
	C144.739258,51.087467 145.501450,51.039768 146.642090,50.936958 
	C148.893967,51.099380 151.070740,50.547653 151.033188,53.791157 
	C150.908142,64.589691 150.985855,75.390579 150.985855,86.944862 
	C141.066452,86.944862 131.487671,86.944862 121.443741,86.871979 
z"/>
<path fill="#FFD336" opacity="1.000000" stroke="none" 
	d="
M99.085266,115.516968 
	C98.852615,115.905602 98.678047,115.955757 98.241089,116.079285 
	C97.652611,113.113823 97.113373,110.079788 97.044586,107.035133 
	C96.899414,100.609940 97.000412,94.179184 97.000412,87.062622 
	C103.989456,87.062622 110.546623,87.062622 117.569336,87.139862 
	C112.678452,94.991325 107.308899,102.756577 101.977058,110.547623 
	C100.956345,112.039131 100.084091,113.632240 99.085266,115.516968 
z"/>
</svg>
