<?xml version="1.0" encoding="UTF-8"?><svg id="Layer_1" xmlns="http://www.w3.org/2000/svg" xmlns:xlink="http://www.w3.org/1999/xlink" viewBox="0 0 1080 1080"><defs><style>.cls-1{fill:url(#linear-gradient);}.cls-1,.cls-2,.cls-3,.cls-4,.cls-5,.cls-6,.cls-7,.cls-8,.cls-9,.cls-10,.cls-11,.cls-12,.cls-13,.cls-14,.cls-15,.cls-16,.cls-17,.cls-18,.cls-19,.cls-20,.cls-21,.cls-22,.cls-23,.cls-24,.cls-25,.cls-26,.cls-27,.cls-28,.cls-29,.cls-30,.cls-31,.cls-32,.cls-33,.cls-34,.cls-35,.cls-36,.cls-37,.cls-38,.cls-39,.cls-40,.cls-41,.cls-42,.cls-43,.cls-44,.cls-45,.cls-46,.cls-47,.cls-48,.cls-49,.cls-50,.cls-51,.cls-52,.cls-53,.cls-54,.cls-55,.cls-56,.cls-57,.cls-58,.cls-59,.cls-60,.cls-61,.cls-62,.cls-63,.cls-64,.cls-65,.cls-66{stroke-width:0px;}.cls-2{fill:url(#radial-gradient);}.cls-3{fill:url(#linear-gradient-2);}.cls-4{fill:#4c4c4e;}.cls-5{fill:#49494b;}.cls-6{fill:#4b4b4d;}.cls-7{fill:#4f4f51;}.cls-8{fill:#525254;}.cls-9{fill:#505152;}.cls-10{fill:#505052;}.cls-11{fill:#313031;}.cls-12{fill:#282627;}.cls-13{fill:#343434;}.cls-14{fill:#4e4e50;}.cls-15{fill:#4d4d4f;}.cls-16{fill:#515153;}.cls-17{fill:#2d2c2c;}.cls-18{fill:#2d2d2d;}.cls-19{fill:#2d2b2c;}.cls-20{fill:#484749;}.cls-21{fill:#48484a;}.cls-22{fill:#2a2829;}.cls-23{fill:#2a2929;}.cls-24{fill:#2a2a2a;}.cls-25{fill:#4a4a4c;}.cls-26{fill:#474748;}.cls-27{fill:#2c2a2a;}.cls-28{fill:#2c2c2c;}.cls-29{fill:#2b2b2b;}.cls-30{fill:#292728;}.cls-31{fill:#464647;}.cls-32{fill:#2f2d2e;}.cls-33{fill:#313130;}.cls-34{fill:#313131;}.cls-35{fill:#383738;}.cls-36{fill:#3b3a3c;}.cls-37{fill:#3a393b;}.cls-38{fill:#343233;}.cls-39{fill:#343333;}.cls-40{fill:#2e2c2d;}.cls-41{fill:#353435;}.cls-42{fill:#3d3d3e;}.cls-43{fill:#272525;}.cls-44{fill:#393839;}.cls-45{fill:#3c3c3d;}.cls-46{fill:#2f2f2f;}.cls-47{fill:#2e2e2e;}.cls-48{fill:#3e3e3f;}.cls-49{fill:#3f3f40;}.cls-50{fill:#363536;}.cls-51{fill:#454546;}.cls-52{fill:#444445;}.cls-53{fill:#373637;}.cls-54{fill:#424243;}.cls-55{fill:#414142;}.cls-56{fill:#404041;}.cls-57{fill:#434344;}.cls-58{fill:#b91f26;}.cls-59{fill:#303030;}.cls-60{fill:#323231;}.cls-61{fill:#323232;}.cls-62{fill:#323132;}.cls-63{fill:#302f2f;}.cls-64{fill:#302f30;}.cls-65{fill:#333;}.cls-66{fill:#fff;}</style><radialGradient id="radial-gradient" cx="518.69" cy="437.91" fx="518.69" fy="437.91" r="42.75" gradientUnits="userSpaceOnUse"><stop offset=".26" stop-color="#afafaf"/><stop offset=".39" stop-color="#abaaaa"/><stop offset=".51" stop-color="#9f9e9e"/><stop offset=".64" stop-color="#8b8a8a"/><stop offset=".77" stop-color="#6f6e6e"/><stop offset=".9" stop-color="#4b4a4a"/><stop offset="1" stop-color="#2a2929"/></radialGradient><linearGradient id="linear-gradient" x1="571.45" y1="575.23" x2="571.45" y2="564.9" gradientTransform="translate(190.86 -45.54) rotate(24.05) scale(1 .71)" gradientUnits="userSpaceOnUse"><stop offset=".26" stop-color="#afafaf"/><stop offset=".39" stop-color="#a0a0a0"/><stop offset=".64" stop-color="#7b7b7b"/><stop offset=".98" stop-color="#403f3f"/><stop offset="1" stop-color="#3d3c3c"/></linearGradient><linearGradient id="linear-gradient-2" x1="565.71" y1="577.52" x2="565.71" y2="567.19" gradientTransform="translate(840.54 -45.54) rotate(155.95) scale(1 -.71)" xlink:href="#linear-gradient"/></defs><path class="cls-43" d="m470.81,467.09c-1.1-.01-1.99-.92-1.98-2.02l3.23-331.16c.01-1.1.92-1.99,2.02-1.98l5.32.07c1.1.01,1.99.92,1.98,2.02l-3.23,331.16c-.01,1.1-.92,1.99-2.02,1.98l-5.32-.07Z"/><path class="cls-43" d="m470.79,467.06c-1.1-.01-1.99-.92-1.98-2.02l3.23-331.16c.01-1.1.92-1.99,2.02-1.98l5.32.07c1.1.01,1.99.92,1.98,2.02l-3.23,331.16c-.01,1.1-.92,1.99-2.02,1.98l-5.32-.07Z"/><path class="cls-43" d="m470.77,467.02c-1.1-.01-1.99-.92-1.98-2.02l3.23-331.16c.01-1.1.92-1.99,2.02-1.98l5.32.07c1.1.01,1.99.92,1.98,2.02l-3.23,331.16c-.01,1.1-.92,1.99-2.02,1.98l-5.32-.07Z"/><path class="cls-12" d="m470.76,466.99c-1.1-.01-1.99-.92-1.98-2.02l3.23-331.16c.01-1.1.92-1.99,2.02-1.98l5.32.07c1.1.01,1.99.92,1.98,2.02l-3.23,331.16c-.01,1.1-.92,1.99-2.02,1.98l-5.32-.07Z"/><path class="cls-12" d="m470.74,466.95c-1.1-.01-1.99-.92-1.98-2.02l3.23-331.16c.01-1.1.92-1.99,2.02-1.98l5.32.07c1.1.01,1.99.92,1.98,2.02l-3.23,331.16c-.01,1.1-.92,1.99-2.02,1.98l-5.32-.07Z"/><path class="cls-30" d="m470.72,466.92c-1.1-.01-1.99-.92-1.98-2.02l3.23-331.16c.01-1.1.92-1.99,2.02-1.98l5.32.07c1.1.01,1.99.92,1.98,2.02l-3.23,331.16c-.01,1.1-.92,1.99-2.02,1.98l-5.32-.07Z"/><path class="cls-30" d="m470.7,466.88c-1.1-.01-1.99-.92-1.98-2.02l3.23-331.16c.01-1.1.92-1.99,2.02-1.98l5.32.07c1.1.01,1.99.92,1.98,2.02l-3.23,331.16c-.01,1.1-.92,1.99-2.02,1.98l-5.32-.07Z"/><path class="cls-22" d="m470.68,466.84c-1.1-.01-1.99-.92-1.98-2.02l3.23-331.16c.01-1.1.92-1.99,2.02-1.98l5.32.07c1.1.01,1.99.92,1.98,2.02l-3.23,331.16c-.01,1.1-.92,1.99-2.02,1.98l-5.32-.07Z"/><path class="cls-22" d="m470.66,466.81c-1.1-.01-1.99-.92-1.98-2.02l3.23-331.16c.01-1.1.92-1.99,2.02-1.98l5.32.07c1.1.01,1.99.92,1.98,2.02l-3.23,331.16c-.01,1.1-.92,1.99-2.02,1.98l-5.32-.07Z"/><path class="cls-22" d="m470.64,466.77c-1.1-.01-1.99-.92-1.98-2.02l3.23-331.16c.01-1.1.92-1.99,2.02-1.98l5.32.07c1.1.01,1.99.92,1.98,2.02l-3.23,331.16c-.01,1.1-.92,1.99-2.02,1.98l-5.32-.07Z"/><path class="cls-27" d="m470.63,466.74c-1.1-.01-1.99-.92-1.98-2.02l3.23-331.16c.01-1.1.92-1.99,2.02-1.98l5.32.07c1.1.01,1.99.92,1.98,2.02l-3.23,331.16c-.01,1.1-.92,1.99-2.02,1.98l-5.32-.07Z"/><path class="cls-27" d="m470.61,466.7c-1.1-.01-1.99-.92-1.98-2.02l3.23-331.16c.01-1.1.92-1.99,2.02-1.98l5.32.07c1.1.01,1.99.92,1.98,2.02l-3.23,331.16c-.01,1.1-.92,1.99-2.02,1.98l-5.32-.07Z"/><path class="cls-19" d="m470.59,466.67c-1.1-.01-1.99-.92-1.98-2.02l3.23-331.16c.01-1.1.92-1.99,2.02-1.98l5.32.07c1.1.01,1.99.92,1.98,2.02l-3.23,331.16c-.01,1.1-.92,1.99-2.02,1.98l-5.32-.07Z"/><path class="cls-19" d="m470.57,466.63c-1.1-.01-1.99-.92-1.98-2.02l3.23-331.16c.01-1.1.92-1.99,2.02-1.98l5.32.07c1.1.01,1.99.92,1.98,2.02l-3.23,331.16c-.01,1.1-.92,1.99-2.02,1.98l-5.32-.07Z"/><path class="cls-40" d="m470.55,466.59c-1.1-.01-1.99-.92-1.98-2.02l3.23-331.16c.01-1.1.92-1.99,2.02-1.98l5.32.07c1.1.01,1.99.92,1.98,2.02l-3.23,331.16c-.01,1.1-.92,1.99-2.02,1.98l-5.32-.07Z"/><path class="cls-40" d="m470.53,466.56c-1.1-.01-1.99-.92-1.98-2.02l3.23-331.16c.01-1.1.92-1.99,2.02-1.98l5.32.07c1.1.01,1.99.92,1.98,2.02l-3.23,331.16c-.01,1.1-.92,1.99-2.02,1.98l-5.32-.07Z"/><path class="cls-40" d="m470.51,466.52c-1.1-.01-1.99-.92-1.98-2.02l3.23-331.16c.01-1.1.92-1.99,2.02-1.98l5.32.07c1.1.01,1.99.92,1.98,2.02l-3.23,331.16c-.01,1.1-.92,1.99-2.02,1.98l-5.32-.07Z"/><path class="cls-32" d="m470.5,466.49c-1.1-.01-1.99-.92-1.98-2.02l3.23-331.16c.01-1.1.92-1.99,2.02-1.98l5.32.07c1.1.01,1.99.92,1.98,2.02l-3.23,331.16c-.01,1.1-.92,1.99-2.02,1.98l-5.32-.07Z"/><path class="cls-32" d="m470.48,466.45c-1.1-.01-1.99-.92-1.98-2.02l3.23-331.16c.01-1.1.92-1.99,2.02-1.98l5.32.07c1.1.01,1.99.92,1.98,2.02l-3.23,331.16c-.01,1.1-.92,1.99-2.02,1.98l-5.32-.07Z"/><path class="cls-64" d="m470.46,466.42c-1.1-.01-1.99-.92-1.98-2.02l3.23-331.16c.01-1.1.92-1.99,2.02-1.98l5.32.07c1.1.01,1.99.92,1.98,2.02l-3.23,331.16c-.01,1.1-.92,1.99-2.02,1.98l-5.32-.07Z"/><path class="cls-64" d="m470.44,466.38c-1.1-.01-1.99-.92-1.98-2.02l3.23-331.16c.01-1.1.92-1.99,2.02-1.98l5.32.07c1.1.01,1.99.92,1.98,2.02l-3.23,331.16c-.01,1.1-.92,1.99-2.02,1.98l-5.32-.07Z"/><path class="cls-11" d="m470.42,466.34c-1.1-.01-1.99-.92-1.98-2.02l3.23-331.16c.01-1.1.92-1.99,2.02-1.98l5.32.07c1.1.01,1.99.92,1.98,2.02l-3.23,331.16c-.01,1.1-.92,1.99-2.02,1.98l-5.32-.07Z"/><path class="cls-11" d="m470.4,466.31c-1.1-.01-1.99-.92-1.98-2.02l3.23-331.16c.01-1.1.92-1.99,2.02-1.98l5.32.07c1.1.01,1.99.92,1.98,2.02l-3.23,331.16c-.01,1.1-.92,1.99-2.02,1.98l-5.32-.07Z"/><path class="cls-11" d="m470.38,466.27c-1.1-.01-1.99-.92-1.98-2.02l3.23-331.16c.01-1.1.92-1.99,2.02-1.98l5.32.07c1.1.01,1.99.92,1.98,2.02l-3.23,331.16c-.01,1.1-.92,1.99-2.02,1.98l-5.32-.07Z"/><path class="cls-62" d="m470.36,466.24c-1.1-.01-1.99-.92-1.98-2.02l3.23-331.16c.01-1.1.92-1.99,2.02-1.98l5.32.07c1.1.01,1.99.92,1.98,2.02l-3.23,331.16c-.01,1.1-.92,1.99-2.02,1.98l-5.32-.07Z"/><path class="cls-62" d="m470.35,466.2c-1.1-.01-1.99-.92-1.98-2.02l3.23-331.16c.01-1.1.92-1.99,2.02-1.98l5.32.07c1.1.01,1.99.92,1.98,2.02l-3.23,331.16c-.01,1.1-.92,1.99-2.02,1.98l-5.32-.07Z"/><path class="cls-38" d="m470.33,466.17c-1.1-.01-1.99-.92-1.98-2.02l3.23-331.16c.01-1.1.92-1.99,2.02-1.98l5.32.07c1.1.01,1.99.92,1.98,2.02l-3.23,331.16c-.01,1.1-.92,1.99-2.02,1.98l-5.32-.07Z"/><path class="cls-38" d="m470.31,466.13c-1.1-.01-1.99-.92-1.98-2.02l3.23-331.16c.01-1.1.92-1.99,2.02-1.98l5.32.07c1.1.01,1.99.92,1.98,2.02l-3.23,331.16c-.01,1.1-.92,1.99-2.02,1.98l-5.32-.07Z"/><path class="cls-41" d="m470.29,466.1c-1.1-.01-1.99-.92-1.98-2.02l3.23-331.16c.01-1.1.92-1.99,2.02-1.98l5.32.07c1.1.01,1.99.92,1.98,2.02l-3.23,331.16c-.01,1.1-.92,1.99-2.02,1.98l-5.32-.07Z"/><path class="cls-41" d="m470.27,466.06c-1.1-.01-1.99-.92-1.98-2.02l3.23-331.16c.01-1.1.92-1.99,2.02-1.98l5.32.07c1.1.01,1.99.92,1.98,2.02l-3.23,331.16c-.01,1.1-.92,1.99-2.02,1.98l-5.32-.07Z"/><path class="cls-41" d="m470.25,466.02c-1.1-.01-1.99-.92-1.98-2.02l3.23-331.16c.01-1.1.92-1.99,2.02-1.98l5.32.07c1.1.01,1.99.92,1.98,2.02l-3.23,331.16c-.01,1.1-.92,1.99-2.02,1.98l-5.32-.07Z"/><path class="cls-50" d="m470.23,465.99c-1.1-.01-1.99-.92-1.98-2.02l3.23-331.16c.01-1.1.92-1.99,2.02-1.98l5.32.07c1.1.01,1.99.92,1.98,2.02l-3.23,331.16c-.01,1.1-.92,1.99-2.02,1.98l-5.32-.07Z"/><path class="cls-50" d="m470.22,465.95c-1.1-.01-1.99-.92-1.98-2.02l3.23-331.16c.01-1.1.92-1.99,2.02-1.98l5.32.07c1.1.01,1.99.92,1.98,2.02l-3.23,331.16c-.01,1.1-.92,1.99-2.02,1.98l-5.32-.07Z"/><path class="cls-53" d="m470.2,465.92c-1.1-.01-1.99-.92-1.98-2.02l3.23-331.16c.01-1.1.92-1.99,2.02-1.98l5.32.07c1.1.01,1.99.92,1.98,2.02l-3.23,331.16c-.01,1.1-.92,1.99-2.02,1.98l-5.32-.07Z"/><path class="cls-53" d="m470.18,465.88c-1.1-.01-1.99-.92-1.98-2.02l3.23-331.16c.01-1.1.92-1.99,2.02-1.98l5.32.07c1.1.01,1.99.92,1.98,2.02l-3.23,331.16c-.01,1.1-.92,1.99-2.02,1.98l-5.32-.07Z"/><path class="cls-35" d="m470.16,465.85c-1.1-.01-1.99-.92-1.98-2.02l3.23-331.16c.01-1.1.92-1.99,2.02-1.98l5.32.07c1.1.01,1.99.92,1.98,2.02l-3.23,331.16c-.01,1.1-.92,1.99-2.02,1.98l-5.32-.07Z"/><path class="cls-35" d="m470.14,465.81c-1.1-.01-1.99-.92-1.98-2.02l3.23-331.16c.01-1.1.92-1.99,2.02-1.98l5.32.07c1.1.01,1.99.92,1.98,2.02l-3.23,331.16c-.01,1.1-.92,1.99-2.02,1.98l-5.32-.07Z"/><path class="cls-35" d="m470.12,465.77c-1.1-.01-1.99-.92-1.98-2.02l3.23-331.16c.01-1.1.92-1.99,2.02-1.98l5.32.07c1.1.01,1.99.92,1.98,2.02l-3.23,331.16c-.01,1.1-.92,1.99-2.02,1.98l-5.32-.07Z"/><path class="cls-44" d="m470.1,465.74c-1.1-.01-1.99-.92-1.98-2.02l3.23-331.16c.01-1.1.92-1.99,2.02-1.98l5.32.07c1.1.01,1.99.92,1.98,2.02l-3.23,331.16c-.01,1.1-.92,1.99-2.02,1.98l-5.32-.07Z"/><path class="cls-44" d="m470.09,465.7c-1.1-.01-1.99-.92-1.98-2.02l3.23-331.16c.01-1.1.92-1.99,2.02-1.98l5.32.07c1.1.01,1.99.92,1.98,2.02l-3.23,331.16c-.01,1.1-.92,1.99-2.02,1.98l-5.32-.07Z"/><path class="cls-37" d="m470.07,465.67c-1.1-.01-1.99-.92-1.98-2.02l3.23-331.16c.01-1.1.92-1.99,2.02-1.98l5.32.07c1.1.01,1.99.92,1.98,2.02l-3.23,331.16c-.01,1.1-.92,1.99-2.02,1.98l-5.32-.07Z"/><path class="cls-37" d="m470.05,465.63c-1.1-.01-1.99-.92-1.98-2.02l3.23-331.16c.01-1.1.92-1.99,2.02-1.98l5.32.07c1.1.01,1.99.92,1.98,2.02l-3.23,331.16c-.01,1.1-.92,1.99-2.02,1.98l-5.32-.07Z"/><path class="cls-36" d="m470.03,465.6c-1.1-.01-1.99-.92-1.98-2.02l3.23-331.16c.01-1.1.92-1.99,2.02-1.98l5.32.07c1.1.01,1.99.92,1.98,2.02l-3.23,331.16c-.01,1.1-.92,1.99-2.02,1.98l-5.32-.07Z"/><path class="cls-36" d="m470.01,465.56c-1.1-.01-1.99-.92-1.98-2.02l3.23-331.16c.01-1.1.92-1.99,2.02-1.98l5.32.07c1.1.01,1.99.92,1.98,2.02l-3.23,331.16c-.01,1.1-.92,1.99-2.02,1.98l-5.32-.07Z"/><path class="cls-36" d="m469.99,465.52c-1.1-.01-1.99-.92-1.98-2.02l3.23-331.16c.01-1.1.92-1.99,2.02-1.98l5.32.07c1.1.01,1.99.92,1.98,2.02l-3.23,331.16c-.01,1.1-.92,1.99-2.02,1.98l-5.32-.07Z"/><path class="cls-45" d="m469.97,465.49c-1.1-.01-1.99-.92-1.98-2.02l3.23-331.16c.01-1.1.92-1.99,2.02-1.98l5.32.07c1.1.01,1.99.92,1.98,2.02l-3.23,331.16c-.01,1.1-.92,1.99-2.02,1.98l-5.32-.07Z"/><path class="cls-45" d="m469.96,465.45c-1.1-.01-1.99-.92-1.98-2.02l3.23-331.16c.01-1.1.92-1.99,2.02-1.98l5.32.07c1.1.01,1.99.92,1.98,2.02l-3.23,331.16c-.01,1.1-.92,1.99-2.02,1.98l-5.32-.07Z"/><path class="cls-42" d="m469.94,465.42c-1.1-.01-1.99-.92-1.98-2.02l3.23-331.16c.01-1.1.92-1.99,2.02-1.98l5.32.07c1.1.01,1.99.92,1.98,2.02l-3.23,331.16c-.01,1.1-.92,1.99-2.02,1.98l-5.32-.07Z"/><path class="cls-42" d="m469.92,465.38c-1.1-.01-1.99-.92-1.98-2.02l3.23-331.16c.01-1.1.92-1.99,2.02-1.98l5.32.07c1.1.01,1.99.92,1.98,2.02l-3.23,331.16c-.01,1.1-.92,1.99-2.02,1.98l-5.32-.07Z"/><path class="cls-48" d="m469.9,465.35c-1.1-.01-1.99-.92-1.98-2.02l3.23-331.16c.01-1.1.92-1.99,2.02-1.98l5.32.07c1.1.01,1.99.92,1.98,2.02l-3.23,331.16c-.01,1.1-.92,1.99-2.02,1.98l-5.32-.07Z"/><path class="cls-48" d="m469.88,465.31c-1.1-.01-1.99-.92-1.98-2.02l3.23-331.16c.01-1.1.92-1.99,2.02-1.98l5.32.07c1.1.01,1.99.92,1.98,2.02l-3.23,331.16c-.01,1.1-.92,1.99-2.02,1.98l-5.32-.07Z"/><path class="cls-48" d="m469.86,465.28c-1.1-.01-1.99-.92-1.98-2.02l3.23-331.16c.01-1.1.92-1.99,2.02-1.98l5.32.07c1.1.01,1.99.92,1.98,2.02l-3.23,331.16c-.01,1.1-.92,1.99-2.02,1.98l-5.32-.07Z"/><path class="cls-49" d="m469.84,465.24c-1.1-.01-1.99-.92-1.98-2.02l3.23-331.16c.01-1.1.92-1.99,2.02-1.98l5.32.07c1.1.01,1.99.92,1.98,2.02l-3.23,331.16c-.01,1.1-.92,1.99-2.02,1.98l-5.32-.07Z"/><path class="cls-49" d="m469.83,465.2c-1.1-.01-1.99-.92-1.98-2.02l3.23-331.16c.01-1.1.92-1.99,2.02-1.98l5.32.07c1.1.01,1.99.92,1.98,2.02l-3.23,331.16c-.01,1.1-.92,1.99-2.02,1.98l-5.32-.07Z"/><path class="cls-56" d="m469.81,465.17c-1.1-.01-1.99-.92-1.98-2.02l3.23-331.16c.01-1.1.92-1.99,2.02-1.98l5.32.07c1.1.01,1.99.92,1.98,2.02l-3.23,331.16c-.01,1.1-.92,1.99-2.02,1.98l-5.32-.07Z"/><path class="cls-56" d="m469.79,465.13c-1.1-.01-1.99-.92-1.98-2.02l3.23-331.16c.01-1.1.92-1.99,2.02-1.98l5.32.07c1.1.01,1.99.92,1.98,2.02l-3.23,331.16c-.01,1.1-.92,1.99-2.02,1.98l-5.32-.07Z"/><path class="cls-55" d="m469.77,465.1c-1.1-.01-1.99-.92-1.98-2.02l3.23-331.16c.01-1.1.92-1.99,2.02-1.98l5.32.07c1.1.01,1.99.92,1.98,2.02l-3.23,331.16c-.01,1.1-.92,1.99-2.02,1.98l-5.32-.07Z"/><path class="cls-55" d="m469.75,465.06c-1.1-.01-1.99-.92-1.98-2.02l3.23-331.16c.01-1.1.92-1.99,2.02-1.98l5.32.07c1.1.01,1.99.92,1.98,2.02l-3.23,331.16c-.01,1.1-.92,1.99-2.02,1.98l-5.32-.07Z"/><path class="cls-55" d="m469.73,465.03c-1.1-.01-1.99-.92-1.98-2.02l3.23-331.16c.01-1.1.92-1.99,2.02-1.98l5.32.07c1.1.01,1.99.92,1.98,2.02l-3.23,331.16c-.01,1.1-.92,1.99-2.02,1.98l-5.32-.07Z"/><path class="cls-54" d="m469.71,464.99c-1.1-.01-1.99-.92-1.98-2.02l3.23-331.16c.01-1.1.92-1.99,2.02-1.98l5.32.07c1.1.01,1.99.92,1.98,2.02l-3.23,331.16c-.01,1.1-.92,1.99-2.02,1.98l-5.32-.07Z"/><path class="cls-54" d="m469.7,464.95c-1.1-.01-1.99-.92-1.98-2.02l3.23-331.16c.01-1.1.92-1.99,2.02-1.98l5.32.07c1.1.01,1.99.92,1.98,2.02l-3.23,331.16c-.01,1.1-.92,1.99-2.02,1.98l-5.32-.07Z"/><path class="cls-57" d="m469.68,464.92c-1.1-.01-1.99-.92-1.98-2.02l3.23-331.16c.01-1.1.92-1.99,2.02-1.98l5.32.07c1.1.01,1.99.92,1.98,2.02l-3.23,331.16c-.01,1.1-.92,1.99-2.02,1.98l-5.32-.07Z"/><path class="cls-57" d="m469.66,464.88c-1.1-.01-1.99-.92-1.98-2.02l3.23-331.16c.01-1.1.92-1.99,2.02-1.98l5.32.07c1.1.01,1.99.92,1.98,2.02l-3.23,331.16c-.01,1.1-.92,1.99-2.02,1.98l-5.32-.07Z"/><path class="cls-52" d="m469.64,464.85c-1.1-.01-1.99-.92-1.98-2.02l3.23-331.16c.01-1.1.92-1.99,2.02-1.98l5.32.07c1.1.01,1.99.92,1.98,2.02l-3.23,331.16c-.01,1.1-.92,1.99-2.02,1.98l-5.32-.07Z"/><path class="cls-52" d="m469.62,464.81c-1.1-.01-1.99-.92-1.98-2.02l3.23-331.16c.01-1.1.92-1.99,2.02-1.98l5.32.07c1.1.01,1.99.92,1.98,2.02l-3.23,331.16c-.01,1.1-.92,1.99-2.02,1.98l-5.32-.07Z"/><path class="cls-51" d="m469.6,464.78c-1.1-.01-1.99-.92-1.98-2.02l3.23-331.16c.01-1.1.92-1.99,2.02-1.98l5.32.07c1.1.01,1.99.92,1.98,2.02l-3.23,331.16c-.01,1.1-.92,1.99-2.02,1.98l-5.32-.07Z"/><path class="cls-51" d="m469.58,464.74c-1.1-.01-1.99-.92-1.98-2.02l3.23-331.16c.01-1.1.92-1.99,2.02-1.98l5.32.07c1.1.01,1.99.92,1.98,2.02l-3.23,331.16c-.01,1.1-.92,1.99-2.02,1.98l-5.32-.07Z"/><path class="cls-51" d="m469.56,464.7c-1.1-.01-1.99-.92-1.98-2.02l3.23-331.16c.01-1.1.92-1.99,2.02-1.98l5.32.07c1.1.01,1.99.92,1.98,2.02l-3.23,331.16c-.01,1.1-.92,1.99-2.02,1.98l-5.32-.07Z"/><path class="cls-31" d="m469.55,464.67c-1.1-.01-1.99-.92-1.98-2.02l3.23-331.16c.01-1.1.92-1.99,2.02-1.98l5.32.07c1.1.01,1.99.92,1.98,2.02l-3.23,331.16c-.01,1.1-.92,1.99-2.02,1.98l-5.32-.07Z"/><path class="cls-31" d="m469.53,464.63c-1.1-.01-1.99-.92-1.98-2.02l3.23-331.16c.01-1.1.92-1.99,2.02-1.98l5.32.07c1.1.01,1.99.92,1.98,2.02l-3.23,331.16c-.01,1.1-.92,1.99-2.02,1.98l-5.32-.07Z"/><path class="cls-26" d="m469.51,464.6c-1.1-.01-1.99-.92-1.98-2.02l3.23-331.16c.01-1.1.92-1.99,2.02-1.98l5.32.07c1.1.01,1.99.92,1.98,2.02l-3.23,331.16c-.01,1.1-.92,1.99-2.02,1.98l-5.32-.07Z"/><path class="cls-26" d="m469.49,464.56c-1.1-.01-1.99-.92-1.98-2.02l3.23-331.16c.01-1.1.92-1.99,2.02-1.98l5.32.07c1.1.01,1.99.92,1.98,2.02l-3.23,331.16c-.01,1.1-.92,1.99-2.02,1.98l-5.32-.07Z"/><path class="cls-20" d="m469.47,464.53c-1.1-.01-1.99-.92-1.98-2.02l3.23-331.16c.01-1.1.92-1.99,2.02-1.98l5.32.07c1.1.01,1.99.92,1.98,2.02l-3.23,331.16c-.01,1.1-.92,1.99-2.02,1.98l-5.32-.07Z"/><path class="cls-20" d="m469.45,464.49c-1.1-.01-1.99-.92-1.98-2.02l3.23-331.16c.01-1.1.92-1.99,2.02-1.98l5.32.07c1.1.01,1.99.92,1.98,2.02l-3.23,331.16c-.01,1.1-.92,1.99-2.02,1.98l-5.32-.07Z"/><path class="cls-20" d="m469.43,464.46c-1.1-.01-1.99-.92-1.98-2.02l3.23-331.16c.01-1.1.92-1.99,2.02-1.98l5.32.07c1.1.01,1.99.92,1.98,2.02l-3.23,331.16c-.01,1.1-.92,1.99-2.02,1.98l-5.32-.07Z"/><path class="cls-21" d="m469.42,464.42c-1.1-.01-1.99-.92-1.98-2.02l3.23-331.16c.01-1.1.92-1.99,2.02-1.98l5.32.07c1.1.01,1.99.92,1.98,2.02l-3.23,331.16c-.01,1.1-.92,1.99-2.02,1.98l-5.32-.07Z"/><path class="cls-21" d="m469.4,464.38c-1.1-.01-1.99-.92-1.98-2.02l3.23-331.16c.01-1.1.92-1.99,2.02-1.98l5.32.07c1.1.01,1.99.92,1.98,2.02l-3.23,331.16c-.01,1.1-.92,1.99-2.02,1.98l-5.32-.07Z"/><path class="cls-5" d="m469.38,464.35c-1.1-.01-1.99-.92-1.98-2.02l3.23-331.16c.01-1.1.92-1.99,2.02-1.98l5.32.07c1.1.01,1.99.92,1.98,2.02l-3.23,331.16c-.01,1.1-.92,1.99-2.02,1.98l-5.32-.07Z"/><path class="cls-5" d="m469.36,464.31c-1.1-.01-1.99-.92-1.98-2.02l3.23-331.16c.01-1.1.92-1.99,2.02-1.98l5.32.07c1.1.01,1.99.92,1.98,2.02l-3.23,331.16c-.01,1.1-.92,1.99-2.02,1.98l-5.32-.07Z"/><path class="cls-25" d="m469.34,464.28c-1.1-.01-1.99-.92-1.98-2.02l3.23-331.16c.01-1.1.92-1.99,2.02-1.98l5.32.07c1.1.01,1.99.92,1.98,2.02l-3.23,331.16c-.01,1.1-.92,1.99-2.02,1.98l-5.32-.07Z"/><path class="cls-25" d="m469.32,464.24c-1.1-.01-1.99-.92-1.98-2.02l3.23-331.16c.01-1.1.92-1.99,2.02-1.98l5.32.07c1.1.01,1.99.92,1.98,2.02l-3.23,331.16c-.01,1.1-.92,1.99-2.02,1.98l-5.32-.07Z"/><path class="cls-25" d="m469.3,464.21c-1.1-.01-1.99-.92-1.98-2.02l3.23-331.16c.01-1.1.92-1.99,2.02-1.98l5.32.07c1.1.01,1.99.92,1.98,2.02l-3.23,331.16c-.01,1.1-.92,1.99-2.02,1.98l-5.32-.07Z"/><path class="cls-6" d="m469.29,464.17c-1.1-.01-1.99-.92-1.98-2.02l3.23-331.16c.01-1.1.92-1.99,2.02-1.98l5.32.07c1.1.01,1.99.92,1.98,2.02l-3.23,331.16c-.01,1.1-.92,1.99-2.02,1.98l-5.32-.07Z"/><path class="cls-6" d="m469.27,464.13c-1.1-.01-1.99-.92-1.98-2.02l3.23-331.16c.01-1.1.92-1.99,2.02-1.98l5.32.07c1.1.01,1.99.92,1.98,2.02l-3.23,331.16c-.01,1.1-.92,1.99-2.02,1.98l-5.32-.07Z"/><path class="cls-4" d="m469.25,464.1c-1.1-.01-1.99-.92-1.98-2.02l3.23-331.16c.01-1.1.92-1.99,2.02-1.98l5.32.07c1.1.01,1.99.92,1.98,2.02l-3.23,331.16c-.01,1.1-.92,1.99-2.02,1.98l-5.32-.07Z"/><path class="cls-4" d="m469.23,464.06c-1.1-.01-1.99-.92-1.98-2.02l3.23-331.16c.01-1.1.92-1.99,2.02-1.98l5.32.07c1.1.01,1.99.92,1.98,2.02l-3.23,331.16c-.01,1.1-.92,1.99-2.02,1.98l-5.32-.07Z"/><path class="cls-15" d="m469.21,464.03c-1.1-.01-1.99-.92-1.98-2.02l3.23-331.16c.01-1.1.92-1.99,2.02-1.98l5.32.07c1.1.01,1.99.92,1.98,2.02l-3.23,331.16c-.01,1.1-.92,1.99-2.02,1.98l-5.32-.07Z"/><path class="cls-15" d="m469.19,463.99c-1.1-.01-1.99-.92-1.98-2.02l3.23-331.16c.01-1.1.92-1.99,2.02-1.98l5.32.07c1.1.01,1.99.92,1.98,2.02l-3.23,331.16c-.01,1.1-.92,1.99-2.02,1.98l-5.32-.07Z"/><path class="cls-15" d="m469.17,463.96c-1.1-.01-1.99-.92-1.98-2.02l3.23-331.16c.01-1.1.92-1.99,2.02-1.98l5.32.07c1.1.01,1.99.92,1.98,2.02l-3.23,331.16c-.01,1.1-.92,1.99-2.02,1.98l-5.32-.07Z"/><path class="cls-14" d="m469.16,463.92c-1.1-.01-1.99-.92-1.98-2.02l3.23-331.16c.01-1.1.92-1.99,2.02-1.98l5.32.07c1.1.01,1.99.92,1.98,2.02l-3.23,331.16c-.01,1.1-.92,1.99-2.02,1.98l-5.32-.07Z"/><path class="cls-14" d="m469.14,463.88c-1.1-.01-1.99-.92-1.98-2.02l3.23-331.16c.01-1.1.92-1.99,2.02-1.98l5.32.07c1.1.01,1.99.92,1.98,2.02l-3.23,331.16c-.01,1.1-.92,1.99-2.02,1.98l-5.32-.07Z"/><path class="cls-7" d="m469.12,463.85c-1.1-.01-1.99-.92-1.98-2.02l3.23-331.16c.01-1.1.92-1.99,2.02-1.98l5.32.07c1.1.01,1.99.92,1.98,2.02l-3.23,331.16c-.01,1.1-.92,1.99-2.02,1.98l-5.32-.07Z"/><path class="cls-7" d="m469.1,463.81c-1.1-.01-1.99-.92-1.98-2.02l3.23-331.16c.01-1.1.92-1.99,2.02-1.98l5.32.07c1.1.01,1.99.92,1.98,2.02l-3.23,331.16c-.01,1.1-.92,1.99-2.02,1.98l-5.32-.07Z"/><path class="cls-10" d="m469.08,463.78c-1.1-.01-1.99-.92-1.98-2.02l3.23-331.16c.01-1.1.92-1.99,2.02-1.98l5.32.07c1.1.01,1.99.92,1.98,2.02l-3.23,331.16c-.01,1.1-.92,1.99-2.02,1.98l-5.32-.07Z"/><path class="cls-10" d="m469.06,463.74c-1.1-.01-1.99-.92-1.98-2.02l3.23-331.16c.01-1.1.92-1.99,2.02-1.98l5.32.07c1.1.01,1.99.92,1.98,2.02l-3.23,331.16c-.01,1.1-.92,1.99-2.02,1.98l-5.32-.07Z"/><path class="cls-10" d="m469.04,463.71c-1.1-.01-1.99-.92-1.98-2.02l3.23-331.16c.01-1.1.92-1.99,2.02-1.98l5.32.07c1.1.01,1.99.92,1.98,2.02l-3.23,331.16c-.01,1.1-.92,1.99-2.02,1.98l-5.32-.07Z"/><path class="cls-9" d="m469.03,463.67c-1.1-.01-1.99-.92-1.98-2.02l3.23-331.16c.01-1.1.92-1.99,2.02-1.98l5.32.07c1.1.01,1.99.92,1.98,2.02l-3.23,331.16c-.01,1.1-.92,1.99-2.02,1.98l-5.32-.07Z"/><path class="cls-9" d="m469.01,463.64c-1.1-.01-1.99-.92-1.98-2.02l3.23-331.16c.01-1.1.92-1.99,2.02-1.98l5.32.07c1.1.01,1.99.92,1.98,2.02l-3.23,331.16c-.01,1.1-.92,1.99-2.02,1.98l-5.32-.07Z"/><path class="cls-16" d="m468.99,463.6c-1.1-.01-1.99-.92-1.98-2.02l3.23-331.16c.01-1.1.92-1.99,2.02-1.98l5.32.07c1.1.01,1.99.92,1.98,2.02l-3.23,331.16c-.01,1.1-.92,1.99-2.02,1.98l-5.32-.07Z"/><path class="cls-16" d="m468.97,463.56c-1.1-.01-1.99-.92-1.98-2.02l3.23-331.16c.01-1.1.92-1.99,2.02-1.98l5.32.07c1.1.01,1.99.92,1.98,2.02l-3.23,331.16c-.01,1.1-.92,1.99-2.02,1.98l-5.32-.07Z"/><path class="cls-8" d="m468.95,463.53c-1.1-.01-1.99-.92-1.98-2.02l3.23-331.16c.01-1.1.92-1.99,2.02-1.98l5.32.07c1.1.01,1.99.92,1.98,2.02l-3.23,331.16c-.01,1.1-.92,1.99-2.02,1.98l-5.32-.07Z"/><path class="cls-8" d="m468.93,463.49c-1.1-.01-1.99-.92-1.98-2.02l3.23-331.16c.01-1.1.92-1.99,2.02-1.98l5.32.07c1.1.01,1.99.92,1.98,2.02l-3.23,331.16c-.01,1.1-.92,1.99-2.02,1.98l-5.32-.07Z"/><path class="cls-43" d="m566.57,467.09c1.1-.01,1.99-.92,1.98-2.02l-3.23-331.16c-.01-1.1-.92-1.99-2.02-1.98l-5.32.07c-1.1.01-1.99.92-1.98,2.02l3.23,331.16c.01,1.1.92,1.99,2.02,1.98l5.32-.07Z"/><path class="cls-43" d="m566.59,467.06c1.1-.01,1.99-.92,1.98-2.02l-3.23-331.16c-.01-1.1-.92-1.99-2.02-1.98l-5.32.07c-1.1.01-1.99.92-1.98,2.02l3.23,331.16c.01,1.1.92,1.99,2.02,1.98l5.32-.07Z"/><path class="cls-43" d="m566.61,467.02c1.1-.01,1.99-.92,1.98-2.02l-3.23-331.16c-.01-1.1-.92-1.99-2.02-1.98l-5.32.07c-1.1.01-1.99.92-1.98,2.02l3.23,331.16c.01,1.1.92,1.99,2.02,1.98l5.32-.07Z"/><path class="cls-12" d="m566.62,466.99c1.1-.01,1.99-.92,1.98-2.02l-3.23-331.16c-.01-1.1-.92-1.99-2.02-1.98l-5.32.07c-1.1.01-1.99.92-1.98,2.02l3.23,331.16c.01,1.1.92,1.99,2.02,1.98l5.32-.07Z"/><path class="cls-12" d="m566.64,466.95c1.1-.01,1.99-.92,1.98-2.02l-3.23-331.16c-.01-1.1-.92-1.99-2.02-1.98l-5.32.07c-1.1.01-1.99.92-1.98,2.02l3.23,331.16c.01,1.1.92,1.99,2.02,1.98l5.32-.07Z"/><path class="cls-30" d="m566.66,466.92c1.1-.01,1.99-.92,1.98-2.02l-3.23-331.16c-.01-1.1-.92-1.99-2.02-1.98l-5.32.07c-1.1.01-1.99.92-1.98,2.02l3.23,331.16c.01,1.1.92,1.99,2.02,1.98l5.32-.07Z"/><path class="cls-30" d="m566.68,466.88c1.1-.01,1.99-.92,1.98-2.02l-3.23-331.16c-.01-1.1-.92-1.99-2.02-1.98l-5.32.07c-1.1.01-1.99.92-1.98,2.02l3.23,331.16c.01,1.1.92,1.99,2.02,1.98l5.32-.07Z"/><path class="cls-22" d="m566.7,466.84c1.1-.01,1.99-.92,1.98-2.02l-3.23-331.16c-.01-1.1-.92-1.99-2.02-1.98l-5.32.07c-1.1.01-1.99.92-1.98,2.02l3.23,331.16c.01,1.1.92,1.99,2.02,1.98l5.32-.07Z"/><path class="cls-22" d="m566.72,466.81c1.1-.01,1.99-.92,1.98-2.02l-3.23-331.16c-.01-1.1-.92-1.99-2.02-1.98l-5.32.07c-1.1.01-1.99.92-1.98,2.02l3.23,331.16c.01,1.1.92,1.99,2.02,1.98l5.32-.07Z"/><path class="cls-22" d="m566.74,466.77c1.1-.01,1.99-.92,1.98-2.02l-3.23-331.16c-.01-1.1-.92-1.99-2.02-1.98l-5.32.07c-1.1.01-1.99.92-1.98,2.02l3.23,331.16c.01,1.1.92,1.99,2.02,1.98l5.32-.07Z"/><path class="cls-27" d="m566.76,466.74c1.1-.01,1.99-.92,1.98-2.02l-3.23-331.16c-.01-1.1-.92-1.99-2.02-1.98l-5.32.07c-1.1.01-1.99.92-1.98,2.02l3.23,331.16c.01,1.1.92,1.99,2.02,1.98l5.32-.07Z"/><path class="cls-27" d="m566.77,466.7c1.1-.01,1.99-.92,1.98-2.02l-3.23-331.16c-.01-1.1-.92-1.99-2.02-1.98l-5.32.07c-1.1.01-1.99.92-1.98,2.02l3.23,331.16c.01,1.1.92,1.99,2.02,1.98l5.32-.07Z"/><path class="cls-19" d="m566.79,466.67c1.1-.01,1.99-.92,1.98-2.02l-3.23-331.16c-.01-1.1-.92-1.99-2.02-1.98l-5.32.07c-1.1.01-1.99.92-1.98,2.02l3.23,331.16c.01,1.1.92,1.99,2.02,1.98l5.32-.07Z"/><path class="cls-19" d="m566.81,466.63c1.1-.01,1.99-.92,1.98-2.02l-3.23-331.16c-.01-1.1-.92-1.99-2.02-1.98l-5.32.07c-1.1.01-1.99.92-1.98,2.02l3.23,331.16c.01,1.1.92,1.99,2.02,1.98l5.32-.07Z"/><path class="cls-40" d="m566.83,466.59c1.1-.01,1.99-.92,1.98-2.02l-3.23-331.16c-.01-1.1-.92-1.99-2.02-1.98l-5.32.07c-1.1.01-1.99.92-1.98,2.02l3.23,331.16c.01,1.1.92,1.99,2.02,1.98l5.32-.07Z"/><path class="cls-40" d="m566.85,466.56c1.1-.01,1.99-.92,1.98-2.02l-3.23-331.16c-.01-1.1-.92-1.99-2.02-1.98l-5.32.07c-1.1.01-1.99.92-1.98,2.02l3.23,331.16c.01,1.1.92,1.99,2.02,1.98l5.32-.07Z"/><path class="cls-40" d="m566.87,466.52c1.1-.01,1.99-.92,1.98-2.02l-3.23-331.16c-.01-1.1-.92-1.99-2.02-1.98l-5.32.07c-1.1.01-1.99.92-1.98,2.02l3.23,331.16c.01,1.1.92,1.99,2.02,1.98l5.32-.07Z"/><path class="cls-32" d="m566.89,466.49c1.1-.01,1.99-.92,1.98-2.02l-3.23-331.16c-.01-1.1-.92-1.99-2.02-1.98l-5.32.07c-1.1.01-1.99.92-1.98,2.02l3.23,331.16c.01,1.1.92,1.99,2.02,1.98l5.32-.07Z"/><path class="cls-32" d="m566.9,466.45c1.1-.01,1.99-.92,1.98-2.02l-3.23-331.16c-.01-1.1-.92-1.99-2.02-1.98l-5.32.07c-1.1.01-1.99.92-1.98,2.02l3.23,331.16c.01,1.1.92,1.99,2.02,1.98l5.32-.07Z"/><path class="cls-64" d="m566.92,466.42c1.1-.01,1.99-.92,1.98-2.02l-3.23-331.16c-.01-1.1-.92-1.99-2.02-1.98l-5.32.07c-1.1.01-1.99.92-1.98,2.02l3.23,331.16c.01,1.1.92,1.99,2.02,1.98l5.32-.07Z"/><path class="cls-64" d="m566.94,466.38c1.1-.01,1.99-.92,1.98-2.02l-3.23-331.16c-.01-1.1-.92-1.99-2.02-1.98l-5.32.07c-1.1.01-1.99.92-1.98,2.02l3.23,331.16c.01,1.1.92,1.99,2.02,1.98l5.32-.07Z"/><path class="cls-11" d="m566.96,466.34c1.1-.01,1.99-.92,1.98-2.02l-3.23-331.16c-.01-1.1-.92-1.99-2.02-1.98l-5.32.07c-1.1.01-1.99.92-1.98,2.02l3.23,331.16c.01,1.1.92,1.99,2.02,1.98l5.32-.07Z"/><path class="cls-11" d="m566.98,466.31c1.1-.01,1.99-.92,1.98-2.02l-3.23-331.16c-.01-1.1-.92-1.99-2.02-1.98l-5.32.07c-1.1.01-1.99.92-1.98,2.02l3.23,331.16c.01,1.1.92,1.99,2.02,1.98l5.32-.07Z"/><path class="cls-11" d="m567,466.27c1.1-.01,1.99-.92,1.98-2.02l-3.23-331.16c-.01-1.1-.92-1.99-2.02-1.98l-5.32.07c-1.1.01-1.99.92-1.98,2.02l3.23,331.16c.01,1.1.92,1.99,2.02,1.98l5.32-.07Z"/><path class="cls-62" d="m567.02,466.24c1.1-.01,1.99-.92,1.98-2.02l-3.23-331.16c-.01-1.1-.92-1.99-2.02-1.98l-5.32.07c-1.1.01-1.99.92-1.98,2.02l3.23,331.16c.01,1.1.92,1.99,2.02,1.98l5.32-.07Z"/><path class="cls-62" d="m567.03,466.2c1.1-.01,1.99-.92,1.98-2.02l-3.23-331.16c-.01-1.1-.92-1.99-2.02-1.98l-5.32.07c-1.1.01-1.99.92-1.98,2.02l3.23,331.16c.01,1.1.92,1.99,2.02,1.98l5.32-.07Z"/><path class="cls-38" d="m567.05,466.17c1.1-.01,1.99-.92,1.98-2.02l-3.23-331.16c-.01-1.1-.92-1.99-2.02-1.98l-5.32.07c-1.1.01-1.99.92-1.98,2.02l3.23,331.16c.01,1.1.92,1.99,2.02,1.98l5.32-.07Z"/><path class="cls-38" d="m567.07,466.13c1.1-.01,1.99-.92,1.98-2.02l-3.23-331.16c-.01-1.1-.92-1.99-2.02-1.98l-5.32.07c-1.1.01-1.99.92-1.98,2.02l3.23,331.16c.01,1.1.92,1.99,2.02,1.98l5.32-.07Z"/><path class="cls-41" d="m567.09,466.1c1.1-.01,1.99-.92,1.98-2.02l-3.23-331.16c-.01-1.1-.92-1.99-2.02-1.98l-5.32.07c-1.1.01-1.99.92-1.98,2.02l3.23,331.16c.01,1.1.92,1.99,2.02,1.98l5.32-.07Z"/><path class="cls-41" d="m567.11,466.06c1.1-.01,1.99-.92,1.98-2.02l-3.23-331.16c-.01-1.1-.92-1.99-2.02-1.98l-5.32.07c-1.1.01-1.99.92-1.98,2.02l3.23,331.16c.01,1.1.92,1.99,2.02,1.98l5.32-.07Z"/><path class="cls-41" d="m567.13,466.02c1.1-.01,1.99-.92,1.98-2.02l-3.23-331.16c-.01-1.1-.92-1.99-2.02-1.98l-5.32.07c-1.1.01-1.99.92-1.98,2.02l3.23,331.16c.01,1.1.92,1.99,2.02,1.98l5.32-.07Z"/><path class="cls-50" d="m567.15,465.99c1.1-.01,1.99-.92,1.98-2.02l-3.23-331.16c-.01-1.1-.92-1.99-2.02-1.98l-5.32.07c-1.1.01-1.99.92-1.98,2.02l3.23,331.16c.01,1.1.92,1.99,2.02,1.98l5.32-.07Z"/><path class="cls-50" d="m567.16,465.95c1.1-.01,1.99-.92,1.98-2.02l-3.23-331.16c-.01-1.1-.92-1.99-2.02-1.98l-5.32.07c-1.1.01-1.99.92-1.98,2.02l3.23,331.16c.01,1.1.92,1.99,2.02,1.98l5.32-.07Z"/><path class="cls-53" d="m567.18,465.92c1.1-.01,1.99-.92,1.98-2.02l-3.23-331.16c-.01-1.1-.92-1.99-2.02-1.98l-5.32.07c-1.1.01-1.99.92-1.98,2.02l3.23,331.16c.01,1.1.92,1.99,2.02,1.98l5.32-.07Z"/><path class="cls-53" d="m567.2,465.88c1.1-.01,1.99-.92,1.98-2.02l-3.23-331.16c-.01-1.1-.92-1.99-2.02-1.98l-5.32.07c-1.1.01-1.99.92-1.98,2.02l3.23,331.16c.01,1.1.92,1.99,2.02,1.98l5.32-.07Z"/><path class="cls-35" d="m567.22,465.85c1.1-.01,1.99-.92,1.98-2.02l-3.23-331.16c-.01-1.1-.92-1.99-2.02-1.98l-5.32.07c-1.1.01-1.99.92-1.98,2.02l3.23,331.16c.01,1.1.92,1.99,2.02,1.98l5.32-.07Z"/><path class="cls-35" d="m567.24,465.81c1.1-.01,1.99-.92,1.98-2.02l-3.23-331.16c-.01-1.1-.92-1.99-2.02-1.98l-5.32.07c-1.1.01-1.99.92-1.98,2.02l3.23,331.16c.01,1.1.92,1.99,2.02,1.98l5.32-.07Z"/><path class="cls-35" d="m567.26,465.77c1.1-.01,1.99-.92,1.98-2.02l-3.23-331.16c-.01-1.1-.92-1.99-2.02-1.98l-5.32.07c-1.1.01-1.99.92-1.98,2.02l3.23,331.16c.01,1.1.92,1.99,2.02,1.98l5.32-.07Z"/><path class="cls-44" d="m567.28,465.74c1.1-.01,1.99-.92,1.98-2.02l-3.23-331.16c-.01-1.1-.92-1.99-2.02-1.98l-5.32.07c-1.1.01-1.99.92-1.98,2.02l3.23,331.16c.01,1.1.92,1.99,2.02,1.98l5.32-.07Z"/><path class="cls-44" d="m567.29,465.7c1.1-.01,1.99-.92,1.98-2.02l-3.23-331.16c-.01-1.1-.92-1.99-2.02-1.98l-5.32.07c-1.1.01-1.99.92-1.98,2.02l3.23,331.16c.01,1.1.92,1.99,2.02,1.98l5.32-.07Z"/><path class="cls-37" d="m567.31,465.67c1.1-.01,1.99-.92,1.98-2.02l-3.23-331.16c-.01-1.1-.92-1.99-2.02-1.98l-5.32.07c-1.1.01-1.99.92-1.98,2.02l3.23,331.16c.01,1.1.92,1.99,2.02,1.98l5.32-.07Z"/><path class="cls-37" d="m567.33,465.63c1.1-.01,1.99-.92,1.98-2.02l-3.23-331.16c-.01-1.1-.92-1.99-2.02-1.98l-5.32.07c-1.1.01-1.99.92-1.98,2.02l3.23,331.16c.01,1.1.92,1.99,2.02,1.98l5.32-.07Z"/><path class="cls-36" d="m567.35,465.6c1.1-.01,1.99-.92,1.98-2.02l-3.23-331.16c-.01-1.1-.92-1.99-2.02-1.98l-5.32.07c-1.1.01-1.99.92-1.98,2.02l3.23,331.16c.01,1.1.92,1.99,2.02,1.98l5.32-.07Z"/><path class="cls-36" d="m567.37,465.56c1.1-.01,1.99-.92,1.98-2.02l-3.23-331.16c-.01-1.1-.92-1.99-2.02-1.98l-5.32.07c-1.1.01-1.99.92-1.98,2.02l3.23,331.16c.01,1.1.92,1.99,2.02,1.98l5.32-.07Z"/><path class="cls-36" d="m567.39,465.52c1.1-.01,1.99-.92,1.98-2.02l-3.23-331.16c-.01-1.1-.92-1.99-2.02-1.98l-5.32.07c-1.1.01-1.99.92-1.98,2.02l3.23,331.16c.01,1.1.92,1.99,2.02,1.98l5.32-.07Z"/><path class="cls-45" d="m567.41,465.49c1.1-.01,1.99-.92,1.98-2.02l-3.23-331.16c-.01-1.1-.92-1.99-2.02-1.98l-5.32.07c-1.1.01-1.99.92-1.98,2.02l3.23,331.16c.01,1.1.92,1.99,2.02,1.98l5.32-.07Z"/><path class="cls-45" d="m567.42,465.45c1.1-.01,1.99-.92,1.98-2.02l-3.23-331.16c-.01-1.1-.92-1.99-2.02-1.98l-5.32.07c-1.1.01-1.99.92-1.98,2.02l3.23,331.16c.01,1.1.92,1.99,2.02,1.98l5.32-.07Z"/><path class="cls-42" d="m567.44,465.42c1.1-.01,1.99-.92,1.98-2.02l-3.23-331.16c-.01-1.1-.92-1.99-2.02-1.98l-5.32.07c-1.1.01-1.99.92-1.98,2.02l3.23,331.16c.01,1.1.92,1.99,2.02,1.98l5.32-.07Z"/><path class="cls-42" d="m567.46,465.38c1.1-.01,1.99-.92,1.98-2.02l-3.23-331.16c-.01-1.1-.92-1.99-2.02-1.98l-5.32.07c-1.1.01-1.99.92-1.98,2.02l3.23,331.16c.01,1.1.92,1.99,2.02,1.98l5.32-.07Z"/><path class="cls-48" d="m567.48,465.35c1.1-.01,1.99-.92,1.98-2.02l-3.23-331.16c-.01-1.1-.92-1.99-2.02-1.98l-5.32.07c-1.1.01-1.99.92-1.98,2.02l3.23,331.16c.01,1.1.92,1.99,2.02,1.98l5.32-.07Z"/><path class="cls-48" d="m567.5,465.31c1.1-.01,1.99-.92,1.98-2.02l-3.23-331.16c-.01-1.1-.92-1.99-2.02-1.98l-5.32.07c-1.1.01-1.99.92-1.98,2.02l3.23,331.16c.01,1.1.92,1.99,2.02,1.98l5.32-.07Z"/><path class="cls-48" d="m567.52,465.28c1.1-.01,1.99-.92,1.98-2.02l-3.23-331.16c-.01-1.1-.92-1.99-2.02-1.98l-5.32.07c-1.1.01-1.99.92-1.98,2.02l3.23,331.16c.01,1.1.92,1.99,2.02,1.98l5.32-.07Z"/><path class="cls-49" d="m567.54,465.24c1.1-.01,1.99-.92,1.98-2.02l-3.23-331.16c-.01-1.1-.92-1.99-2.02-1.98l-5.32.07c-1.1.01-1.99.92-1.98,2.02l3.23,331.16c.01,1.1.92,1.99,2.02,1.98l5.32-.07Z"/><path class="cls-49" d="m567.56,465.2c1.1-.01,1.99-.92,1.98-2.02l-3.23-331.16c-.01-1.1-.92-1.99-2.02-1.98l-5.32.07c-1.1.01-1.99.92-1.98,2.02l3.23,331.16c.01,1.1.92,1.99,2.02,1.98l5.32-.07Z"/><path class="cls-56" d="m567.57,465.17c1.1-.01,1.99-.92,1.98-2.02l-3.23-331.16c-.01-1.1-.92-1.99-2.02-1.98l-5.32.07c-1.1.01-1.99.92-1.98,2.02l3.23,331.16c.01,1.1.92,1.99,2.02,1.98l5.32-.07Z"/><path class="cls-56" d="m567.59,465.13c1.1-.01,1.99-.92,1.98-2.02l-3.23-331.16c-.01-1.1-.92-1.99-2.02-1.98l-5.32.07c-1.1.01-1.99.92-1.98,2.02l3.23,331.16c.01,1.1.92,1.99,2.02,1.98l5.32-.07Z"/><path class="cls-55" d="m567.61,465.1c1.1-.01,1.99-.92,1.98-2.02l-3.23-331.16c-.01-1.1-.92-1.99-2.02-1.98l-5.32.07c-1.1.01-1.99.92-1.98,2.02l3.23,331.16c.01,1.1.92,1.99,2.02,1.98l5.32-.07Z"/><path class="cls-55" d="m567.63,465.06c1.1-.01,1.99-.92,1.98-2.02l-3.23-331.16c-.01-1.1-.92-1.99-2.02-1.98l-5.32.07c-1.1.01-1.99.92-1.98,2.02l3.23,331.16c.01,1.1.92,1.99,2.02,1.98l5.32-.07Z"/><path class="cls-55" d="m567.65,465.03c1.1-.01,1.99-.92,1.98-2.02l-3.23-331.16c-.01-1.1-.92-1.99-2.02-1.98l-5.32.07c-1.1.01-1.99.92-1.98,2.02l3.23,331.16c.01,1.1.92,1.99,2.02,1.98l5.32-.07Z"/><path class="cls-54" d="m567.67,464.99c1.1-.01,1.99-.92,1.98-2.02l-3.23-331.16c-.01-1.1-.92-1.99-2.02-1.98l-5.32.07c-1.1.01-1.99.92-1.98,2.02l3.23,331.16c.01,1.1.92,1.99,2.02,1.98l5.32-.07Z"/><path class="cls-54" d="m567.69,464.95c1.1-.01,1.99-.92,1.98-2.02l-3.23-331.16c-.01-1.1-.92-1.99-2.02-1.98l-5.32.07c-1.1.01-1.99.92-1.98,2.02l3.23,331.16c.01,1.1.92,1.99,2.02,1.98l5.32-.07Z"/><path class="cls-57" d="m567.7,464.92c1.1-.01,1.99-.92,1.98-2.02l-3.23-331.16c-.01-1.1-.92-1.99-2.02-1.98l-5.32.07c-1.1.01-1.99.92-1.98,2.02l3.23,331.16c.01,1.1.92,1.99,2.02,1.98l5.32-.07Z"/><path class="cls-57" d="m567.72,464.88c1.1-.01,1.99-.92,1.98-2.02l-3.23-331.16c-.01-1.1-.92-1.99-2.02-1.98l-5.32.07c-1.1.01-1.99.92-1.98,2.02l3.23,331.16c.01,1.1.92,1.99,2.02,1.98l5.32-.07Z"/><path class="cls-52" d="m567.74,464.85c1.1-.01,1.99-.92,1.98-2.02l-3.23-331.16c-.01-1.1-.92-1.99-2.02-1.98l-5.32.07c-1.1.01-1.99.92-1.98,2.02l3.23,331.16c.01,1.1.92,1.99,2.02,1.98l5.32-.07Z"/><path class="cls-52" d="m567.76,464.81c1.1-.01,1.99-.92,1.98-2.02l-3.23-331.16c-.01-1.1-.92-1.99-2.02-1.98l-5.32.07c-1.1.01-1.99.92-1.98,2.02l3.23,331.16c.01,1.1.92,1.99,2.02,1.98l5.32-.07Z"/><path class="cls-51" d="m567.78,464.78c1.1-.01,1.99-.92,1.98-2.02l-3.23-331.16c-.01-1.1-.92-1.99-2.02-1.98l-5.32.07c-1.1.01-1.99.92-1.98,2.02l3.23,331.16c.01,1.1.92,1.99,2.02,1.98l5.32-.07Z"/><path class="cls-51" d="m567.8,464.74c1.1-.01,1.99-.92,1.98-2.02l-3.23-331.16c-.01-1.1-.92-1.99-2.02-1.98l-5.32.07c-1.1.01-1.99.92-1.98,2.02l3.23,331.16c.01,1.1.92,1.99,2.02,1.98l5.32-.07Z"/><path class="cls-51" d="m567.82,464.7c1.1-.01,1.99-.92,1.98-2.02l-3.23-331.16c-.01-1.1-.92-1.99-2.02-1.98l-5.32.07c-1.1.01-1.99.92-1.98,2.02l3.23,331.16c.01,1.1.92,1.99,2.02,1.98l5.32-.07Z"/><path class="cls-31" d="m567.83,464.67c1.1-.01,1.99-.92,1.98-2.02l-3.23-331.16c-.01-1.1-.92-1.99-2.02-1.98l-5.32.07c-1.1.01-1.99.92-1.98,2.02l3.23,331.16c.01,1.1.92,1.99,2.02,1.98l5.32-.07Z"/><path class="cls-31" d="m567.85,464.63c1.1-.01,1.99-.92,1.98-2.02l-3.23-331.16c-.01-1.1-.92-1.99-2.02-1.98l-5.32.07c-1.1.01-1.99.92-1.98,2.02l3.23,331.16c.01,1.1.92,1.99,2.02,1.98l5.32-.07Z"/><path class="cls-26" d="m567.87,464.6c1.1-.01,1.99-.92,1.98-2.02l-3.23-331.16c-.01-1.1-.92-1.99-2.02-1.98l-5.32.07c-1.1.01-1.99.92-1.98,2.02l3.23,331.16c.01,1.1.92,1.99,2.02,1.98l5.32-.07Z"/><path class="cls-26" d="m567.89,464.56c1.1-.01,1.99-.92,1.98-2.02l-3.23-331.16c-.01-1.1-.92-1.99-2.02-1.98l-5.32.07c-1.1.01-1.99.92-1.98,2.02l3.23,331.16c.01,1.1.92,1.99,2.02,1.98l5.32-.07Z"/><path class="cls-20" d="m567.91,464.53c1.1-.01,1.99-.92,1.98-2.02l-3.23-331.16c-.01-1.1-.92-1.99-2.02-1.98l-5.32.07c-1.1.01-1.99.92-1.98,2.02l3.23,331.16c.01,1.1.92,1.99,2.02,1.98l5.32-.07Z"/><path class="cls-20" d="m567.93,464.49c1.1-.01,1.99-.92,1.98-2.02l-3.23-331.16c-.01-1.1-.92-1.99-2.02-1.98l-5.32.07c-1.1.01-1.99.92-1.98,2.02l3.23,331.16c.01,1.1.92,1.99,2.02,1.98l5.32-.07Z"/><path class="cls-20" d="m567.95,464.46c1.1-.01,1.99-.92,1.98-2.02l-3.23-331.16c-.01-1.1-.92-1.99-2.02-1.98l-5.32.07c-1.1.01-1.99.92-1.98,2.02l3.23,331.16c.01,1.1.92,1.99,2.02,1.98l5.32-.07Z"/><path class="cls-21" d="m567.96,464.42c1.1-.01,1.99-.92,1.98-2.02l-3.23-331.16c-.01-1.1-.92-1.99-2.02-1.98l-5.32.07c-1.1.01-1.99.92-1.98,2.02l3.23,331.16c.01,1.1.92,1.99,2.02,1.98l5.32-.07Z"/><path class="cls-21" d="m567.98,464.38c1.1-.01,1.99-.92,1.98-2.02l-3.23-331.16c-.01-1.1-.92-1.99-2.02-1.98l-5.32.07c-1.1.01-1.99.92-1.98,2.02l3.23,331.16c.01,1.1.92,1.99,2.02,1.98l5.32-.07Z"/><path class="cls-5" d="m568,464.35c1.1-.01,1.99-.92,1.98-2.02l-3.23-331.16c-.01-1.1-.92-1.99-2.02-1.98l-5.32.07c-1.1.01-1.99.92-1.98,2.02l3.23,331.16c.01,1.1.92,1.99,2.02,1.98l5.32-.07Z"/><path class="cls-5" d="m568.02,464.31c1.1-.01,1.99-.92,1.98-2.02l-3.23-331.16c-.01-1.1-.92-1.99-2.02-1.98l-5.32.07c-1.1.01-1.99.92-1.98,2.02l3.23,331.16c.01,1.1.92,1.99,2.02,1.98l5.32-.07Z"/><path class="cls-25" d="m568.04,464.28c1.1-.01,1.99-.92,1.98-2.02l-3.23-331.16c-.01-1.1-.92-1.99-2.02-1.98l-5.32.07c-1.1.01-1.99.92-1.98,2.02l3.23,331.16c.01,1.1.92,1.99,2.02,1.98l5.32-.07Z"/><path class="cls-25" d="m568.06,464.24c1.1-.01,1.99-.92,1.98-2.02l-3.23-331.16c-.01-1.1-.92-1.99-2.02-1.98l-5.32.07c-1.1.01-1.99.92-1.98,2.02l3.23,331.16c.01,1.1.92,1.99,2.02,1.98l5.32-.07Z"/><path class="cls-25" d="m568.08,464.21c1.1-.01,1.99-.92,1.98-2.02l-3.23-331.16c-.01-1.1-.92-1.99-2.02-1.98l-5.32.07c-1.1.01-1.99.92-1.98,2.02l3.23,331.16c.01,1.1.92,1.99,2.02,1.98l5.32-.07Z"/><path class="cls-6" d="m568.09,464.17c1.1-.01,1.99-.92,1.98-2.02l-3.23-331.16c-.01-1.1-.92-1.99-2.02-1.98l-5.32.07c-1.1.01-1.99.92-1.98,2.02l3.23,331.16c.01,1.1.92,1.99,2.02,1.98l5.32-.07Z"/><path class="cls-6" d="m568.11,464.13c1.1-.01,1.99-.92,1.98-2.02l-3.23-331.16c-.01-1.1-.92-1.99-2.02-1.98l-5.32.07c-1.1.01-1.99.92-1.98,2.02l3.23,331.16c.01,1.1.92,1.99,2.02,1.98l5.32-.07Z"/><path class="cls-4" d="m568.13,464.1c1.1-.01,1.99-.92,1.98-2.02l-3.23-331.16c-.01-1.1-.92-1.99-2.02-1.98l-5.32.07c-1.1.01-1.99.92-1.98,2.02l3.23,331.16c.01,1.1.92,1.99,2.02,1.98l5.32-.07Z"/><path class="cls-4" d="m568.15,464.06c1.1-.01,1.99-.92,1.98-2.02l-3.23-331.16c-.01-1.1-.92-1.99-2.02-1.98l-5.32.07c-1.1.01-1.99.92-1.98,2.02l3.23,331.16c.01,1.1.92,1.99,2.02,1.98l5.32-.07Z"/><path class="cls-15" d="m568.17,464.03c1.1-.01,1.99-.92,1.98-2.02l-3.23-331.16c-.01-1.1-.92-1.99-2.02-1.98l-5.32.07c-1.1.01-1.99.92-1.98,2.02l3.23,331.16c.01,1.1.92,1.99,2.02,1.98l5.32-.07Z"/><path class="cls-15" d="m568.19,463.99c1.1-.01,1.99-.92,1.98-2.02l-3.23-331.16c-.01-1.1-.92-1.99-2.02-1.98l-5.32.07c-1.1.01-1.99.92-1.98,2.02l3.23,331.16c.01,1.1.92,1.99,2.02,1.98l5.32-.07Z"/><path class="cls-15" d="m568.21,463.96c1.1-.01,1.99-.92,1.98-2.02l-3.23-331.16c-.01-1.1-.92-1.99-2.02-1.98l-5.32.07c-1.1.01-1.99.92-1.98,2.02l3.23,331.16c.01,1.1.92,1.99,2.02,1.98l5.32-.07Z"/><path class="cls-14" d="m568.22,463.92c1.1-.01,1.99-.92,1.98-2.02l-3.23-331.16c-.01-1.1-.92-1.99-2.02-1.98l-5.32.07c-1.1.01-1.99.92-1.98,2.02l3.23,331.16c.01,1.1.92,1.99,2.02,1.98l5.32-.07Z"/><path class="cls-14" d="m568.24,463.88c1.1-.01,1.99-.92,1.98-2.02l-3.23-331.16c-.01-1.1-.92-1.99-2.02-1.98l-5.32.07c-1.1.01-1.99.92-1.98,2.02l3.23,331.16c.01,1.1.92,1.99,2.02,1.98l5.32-.07Z"/><path class="cls-7" d="m568.26,463.85c1.1-.01,1.99-.92,1.98-2.02l-3.23-331.16c-.01-1.1-.92-1.99-2.02-1.98l-5.32.07c-1.1.01-1.99.92-1.98,2.02l3.23,331.16c.01,1.1.92,1.99,2.02,1.98l5.32-.07Z"/><path class="cls-7" d="m568.28,463.81c1.1-.01,1.99-.92,1.98-2.02l-3.23-331.16c-.01-1.1-.92-1.99-2.02-1.98l-5.32.07c-1.1.01-1.99.92-1.98,2.02l3.23,331.16c.01,1.1.92,1.99,2.02,1.98l5.32-.07Z"/><path class="cls-10" d="m568.3,463.78c1.1-.01,1.99-.92,1.98-2.02l-3.23-331.16c-.01-1.1-.92-1.99-2.02-1.98l-5.32.07c-1.1.01-1.99.92-1.98,2.02l3.23,331.16c.01,1.1.92,1.99,2.02,1.98l5.32-.07Z"/><path class="cls-10" d="m568.32,463.74c1.1-.01,1.99-.92,1.98-2.02l-3.23-331.16c-.01-1.1-.92-1.99-2.02-1.98l-5.32.07c-1.1.01-1.99.92-1.98,2.02l3.23,331.16c.01,1.1.92,1.99,2.02,1.98l5.32-.07Z"/><path class="cls-10" d="m568.34,463.71c1.1-.01,1.99-.92,1.98-2.02l-3.23-331.16c-.01-1.1-.92-1.99-2.02-1.98l-5.32.07c-1.1.01-1.99.92-1.98,2.02l3.23,331.16c.01,1.1.92,1.99,2.02,1.98l5.32-.07Z"/><path class="cls-9" d="m568.36,463.67c1.1-.01,1.99-.92,1.98-2.02l-3.23-331.16c-.01-1.1-.92-1.99-2.02-1.98l-5.32.07c-1.1.01-1.99.92-1.98,2.02l3.23,331.16c.01,1.1.92,1.99,2.02,1.98l5.32-.07Z"/><path class="cls-9" d="m568.37,463.64c1.1-.01,1.99-.92,1.98-2.02l-3.23-331.16c-.01-1.1-.92-1.99-2.02-1.98l-5.32.07c-1.1.01-1.99.92-1.98,2.02l3.23,331.16c.01,1.1.92,1.99,2.02,1.98l5.32-.07Z"/><path class="cls-16" d="m568.39,463.6c1.1-.01,1.99-.92,1.98-2.02l-3.23-331.16c-.01-1.1-.92-1.99-2.02-1.98l-5.32.07c-1.1.01-1.99.92-1.98,2.02l3.23,331.16c.01,1.1.92,1.99,2.02,1.98l5.32-.07Z"/><path class="cls-16" d="m568.41,463.56c1.1-.01,1.99-.92,1.98-2.02l-3.23-331.16c-.01-1.1-.92-1.99-2.02-1.98l-5.32.07c-1.1.01-1.99.92-1.98,2.02l3.23,331.16c.01,1.1.92,1.99,2.02,1.98l5.32-.07Z"/><path class="cls-8" d="m568.43,463.53c1.1-.01,1.99-.92,1.98-2.02l-3.23-331.16c-.01-1.1-.92-1.99-2.02-1.98l-5.32.07c-1.1.01-1.99.92-1.98,2.02l3.23,331.16c.01,1.1.92,1.99,2.02,1.98l5.32-.07Z"/><path class="cls-8" d="m568.45,463.49c1.1-.01,1.99-.92,1.98-2.02l-3.23-331.16c-.01-1.1-.92-1.99-2.02-1.98l-5.32.07c-1.1.01-1.99.92-1.98,2.02l3.23,331.16c.01,1.1.92,1.99,2.02,1.98l5.32-.07Z"/><circle class="cls-23" cx="518.69" cy="437.91" r="51.58"/><path class="cls-2" d="m518.69,480.66c-23.57,0-42.75-19.18-42.75-42.75s19.18-42.75,42.75-42.75,42.75,19.18,42.75,42.75-19.18,42.75-42.75,42.75Z"/><path class="cls-23" d="m518.69,475.81c-19.3,0-34.99-15.7-34.99-35s15.7-35,34.99-35,35,15.7,35,35-15.7,35-35,35Z"/><path class="cls-58" d="m550.2,532.65h-63.01c-3.21,0-6.04-2.1-6.97-5.17l-12.9-42.56c-.21-.68-.31-1.4-.31-2.11v-40.96h103.37v40.96c0,.72-.11,1.43-.31,2.11l-12.9,42.56c-.93,3.07-3.76,5.17-6.97,5.17Z"/><polygon class="cls-66" points="475.4 511.05 467.14 484.15 485.02 442.05 505.35 442.05 475.4 511.05"/><polygon class="cls-66" points="506.03 532.55 486.33 532.55 524.33 442.05 544.66 442.05 506.03 532.55"/><polygon class="cls-66" points="547.18 532.55 525.86 532.55 562.61 441.82 570.37 441.86 570.21 471.21 547.18 532.55"/><path class="cls-23" d="m584.55,579.51c-5.98-13.95-24.24-15.94-24.24-15.94,10.63,11.95,4.32,31.55-9.63,31.88-13.95.33-17.93-8.63-17.93-8.63l3.65-54.46h-17.6v.11l-17.83-.18,3.65,54.46s-3.99,8.97-17.93,8.63c-13.95-.33-20.26-19.92-9.63-31.88,0,0-18.26,1.99-24.24,15.94-5.98,13.95-2.66,38.19,23.24,40.84,25.9,2.66,42.64,2.11,42.64,2.11v-.11s16.7.72,42.6-1.93c25.9-2.66,29.22-26.9,23.24-40.84Z"/><polygon class="cls-1" points="559.37 567.26 534.9 554.8 535.28 548.45 559.76 561.81 559.37 567.26"/><polygon class="cls-3" points="477.93 566.4 502.4 553.95 502.02 547.6 477.55 560.96 477.93 566.4"/><rect class="cls-23" x="418.94" y="76.92" width="199.08" height="66.05" rx="3.03" ry="3.03"/><rect class="cls-23" x="418.96" y="76.9" width="199.08" height="66.05" rx="3.02" ry="3.02"/><rect class="cls-23" x="418.97" y="76.88" width="199.08" height="66.05" rx="3.01" ry="3.01"/><rect class="cls-24" x="418.99" y="76.86" width="199.08" height="66.05" rx="3.01" ry="3.01"/><rect class="cls-24" x="419.01" y="76.85" width="199.08" height="66.05" rx="3" ry="3"/><rect class="cls-24" x="419.02" y="76.83" width="199.08" height="66.05" rx="2.99" ry="2.99"/><rect class="cls-24" x="419.04" y="76.81" width="199.08" height="66.05" rx="2.98" ry="2.98"/><rect class="cls-24" x="419.05" y="76.8" width="199.08" height="66.05" rx="2.98" ry="2.98"/><rect class="cls-24" x="419.07" y="76.78" width="199.08" height="66.05" rx="2.97" ry="2.97"/><rect class="cls-24" x="419.08" y="76.76" width="199.08" height="66.05" rx="2.96" ry="2.96"/><rect class="cls-29" x="419.1" y="76.75" width="199.08" height="66.05" rx="2.95" ry="2.95"/><rect class="cls-29" x="419.11" y="76.73" width="199.08" height="66.05" rx="2.95" ry="2.95"/><rect class="cls-29" x="419.13" y="76.71" width="199.08" height="66.05" rx="2.94" ry="2.94"/><rect class="cls-29" x="419.14" y="76.7" width="199.08" height="66.05" rx="2.93" ry="2.93"/><rect class="cls-29" x="419.16" y="76.68" width="199.08" height="66.05" rx="2.92" ry="2.92"/><rect class="cls-29" x="419.18" y="76.66" width="199.08" height="66.05" rx="2.92" ry="2.92"/><rect class="cls-29" x="419.19" y="76.64" width="199.08" height="66.05" rx="2.91" ry="2.91"/><rect class="cls-29" x="419.21" y="76.63" width="199.08" height="66.05" rx="2.9" ry="2.9"/><rect class="cls-29" x="419.22" y="76.61" width="199.08" height="66.05" rx="2.89" ry="2.89"/><rect class="cls-29" x="419.24" y="76.59" width="199.08" height="66.05" rx="2.89" ry="2.89"/><rect class="cls-29" x="419.25" y="76.58" width="199.08" height="66.05" rx="2.88" ry="2.88"/><rect class="cls-28" x="419.27" y="76.56" width="199.08" height="66.05" rx="2.87" ry="2.87"/><rect class="cls-28" x="419.28" y="76.54" width="199.08" height="66.05" rx="2.86" ry="2.86"/><rect class="cls-28" x="419.3" y="76.53" width="199.08" height="66.05" rx="2.86" ry="2.86"/><rect class="cls-28" x="419.32" y="76.51" width="199.08" height="66.05" rx="2.85" ry="2.85"/><rect class="cls-28" x="419.33" y="76.49" width="199.08" height="66.05" rx="2.84" ry="2.84"/><rect class="cls-28" x="419.35" y="76.48" width="199.08" height="66.05" rx="2.83" ry="2.83"/><rect class="cls-28" x="419.36" y="76.46" width="199.08" height="66.05" rx="2.83" ry="2.83"/><rect class="cls-17" x="419.38" y="76.44" width="199.08" height="66.05" rx="2.82" ry="2.82"/><rect class="cls-17" x="419.39" y="76.42" width="199.08" height="66.05" rx="2.81" ry="2.81"/><rect class="cls-17" x="419.41" y="76.41" width="199.08" height="66.05" rx="2.8" ry="2.8"/><rect class="cls-18" x="419.42" y="76.39" width="199.08" height="66.05" rx="2.8" ry="2.8"/><rect class="cls-18" x="419.44" y="76.37" width="199.08" height="66.05" rx="2.79" ry="2.79"/><rect class="cls-18" x="419.45" y="76.36" width="199.08" height="66.05" rx="2.78" ry="2.78"/><rect class="cls-18" x="419.47" y="76.34" width="199.08" height="66.05" rx="2.78" ry="2.78"/><rect class="cls-18" x="419.49" y="76.32" width="199.08" height="66.05" rx="2.77" ry="2.77"/><rect class="cls-18" x="419.5" y="76.31" width="199.08" height="66.05" rx="2.76" ry="2.76"/><rect class="cls-18" x="419.52" y="76.29" width="199.08" height="66.05" rx="2.75" ry="2.75"/><rect class="cls-47" x="419.53" y="76.27" width="199.08" height="66.05" rx="2.75" ry="2.75"/><rect class="cls-47" x="419.55" y="76.26" width="199.08" height="66.05" rx="2.74" ry="2.74"/><rect class="cls-47" x="419.56" y="76.24" width="199.08" height="66.05" rx="2.73" ry="2.73"/><rect class="cls-47" x="419.58" y="76.22" width="199.08" height="66.05" rx="2.72" ry="2.72"/><rect class="cls-47" x="419.59" y="76.21" width="199.08" height="66.05" rx="2.72" ry="2.72"/><rect class="cls-47" x="419.61" y="76.19" width="199.08" height="66.05" rx="2.71" ry="2.71"/><rect class="cls-47" x="419.63" y="76.17" width="199.08" height="66.05" rx="2.7" ry="2.7"/><rect class="cls-47" x="419.64" y="76.15" width="199.08" height="66.05" rx="2.69" ry="2.69"/><rect class="cls-47" x="419.66" y="76.14" width="199.08" height="66.05" rx="2.69" ry="2.69"/><rect class="cls-47" x="419.67" y="76.12" width="199.08" height="66.05" rx="2.68" ry="2.68"/><rect class="cls-47" x="419.69" y="76.1" width="199.08" height="66.05" rx="2.67" ry="2.67"/><rect class="cls-46" x="419.7" y="76.09" width="199.08" height="66.05" rx="2.66" ry="2.66"/><rect class="cls-46" x="419.72" y="76.07" width="199.08" height="66.05" rx="2.66" ry="2.66"/><rect class="cls-46" x="419.73" y="76.05" width="199.08" height="66.05" rx="2.65" ry="2.65"/><rect class="cls-46" x="419.75" y="76.04" width="199.08" height="66.05" rx="2.64" ry="2.64"/><rect class="cls-46" x="419.77" y="76.02" width="199.08" height="66.05" rx="2.63" ry="2.63"/><rect class="cls-46" x="419.78" y="76" width="199.08" height="66.05" rx="2.63" ry="2.63"/><rect class="cls-46" x="419.8" y="75.99" width="199.08" height="66.05" rx="2.62" ry="2.62"/><rect class="cls-63" x="419.81" y="75.97" width="199.08" height="66.05" rx="2.61" ry="2.61"/><rect class="cls-63" x="419.83" y="75.95" width="199.08" height="66.05" rx="2.6" ry="2.6"/><rect class="cls-63" x="419.84" y="75.93" width="199.08" height="66.05" rx="2.6" ry="2.6"/><rect class="cls-59" x="419.86" y="75.92" width="199.08" height="66.05" rx="2.59" ry="2.59"/><rect class="cls-59" x="419.87" y="75.9" width="199.08" height="66.05" rx="2.58" ry="2.58"/><rect class="cls-59" x="419.89" y="75.88" width="199.08" height="66.05" rx="2.57" ry="2.57"/><rect class="cls-59" x="419.9" y="75.87" width="199.08" height="66.05" rx="2.57" ry="2.57"/><rect class="cls-59" x="419.92" y="75.85" width="199.08" height="66.05" rx="2.56" ry="2.56"/><rect class="cls-59" x="419.94" y="75.83" width="199.08" height="66.05" rx="2.55" ry="2.55"/><rect class="cls-59" x="419.95" y="75.82" width="199.08" height="66.05" rx="2.54" ry="2.54"/><rect class="cls-33" x="419.97" y="75.8" width="199.08" height="66.05" rx="2.54" ry="2.54"/><rect class="cls-33" x="419.98" y="75.78" width="199.08" height="66.05" rx="2.53" ry="2.53"/><rect class="cls-33" x="420" y="75.77" width="199.08" height="66.05" rx="2.52" ry="2.52"/><rect class="cls-33" x="420.01" y="75.75" width="199.08" height="66.05" rx="2.51" ry="2.51"/><rect class="cls-34" x="420.03" y="75.73" width="199.08" height="66.05" rx="2.51" ry="2.51"/><rect class="cls-34" x="420.04" y="75.72" width="199.08" height="66.05" rx="2.5" ry="2.5"/><rect class="cls-34" x="420.06" y="75.7" width="199.08" height="66.05" rx="2.49" ry="2.49"/><rect class="cls-34" x="420.08" y="75.68" width="199.08" height="66.05" rx="2.48" ry="2.48"/><rect class="cls-34" x="420.09" y="75.66" width="199.08" height="66.05" rx="2.48" ry="2.48"/><rect class="cls-34" x="420.11" y="75.65" width="199.08" height="66.05" rx="2.47" ry="2.47"/><rect class="cls-34" x="420.12" y="75.63" width="199.08" height="66.05" rx="2.46" ry="2.46"/><rect class="cls-60" x="420.14" y="75.61" width="199.08" height="66.05" rx="2.46" ry="2.46"/><rect class="cls-60" x="420.15" y="75.6" width="199.08" height="66.05" rx="2.45" ry="2.45"/><rect class="cls-60" x="420.17" y="75.58" width="199.08" height="66.05" rx="2.44" ry="2.44"/><rect class="cls-61" x="420.18" y="75.56" width="199.08" height="66.05" rx="2.43" ry="2.43"/><rect class="cls-61" x="420.2" y="75.55" width="199.08" height="66.05" rx="2.43" ry="2.43"/><rect class="cls-61" x="420.21" y="75.53" width="199.08" height="66.05" rx="2.42" ry="2.42"/><rect class="cls-61" x="420.23" y="75.51" width="199.08" height="66.05" rx="2.41" ry="2.41"/><rect class="cls-61" x="420.25" y="75.5" width="199.08" height="66.05" rx="2.4" ry="2.4"/><rect class="cls-61" x="420.26" y="75.48" width="199.08" height="66.05" rx="2.4" ry="2.4"/><rect class="cls-61" x="420.28" y="75.46" width="199.08" height="66.05" rx="2.39" ry="2.39"/><rect class="cls-61" x="420.29" y="75.44" width="199.08" height="66.05" rx="2.38" ry="2.38"/><rect class="cls-65" x="420.31" y="75.43" width="199.08" height="66.05" rx="2.37" ry="2.37"/><rect class="cls-65" x="420.32" y="75.41" width="199.08" height="66.05" rx="2.37" ry="2.37"/><rect class="cls-65" x="420.34" y="75.39" width="199.08" height="66.05" rx="2.36" ry="2.36"/><rect class="cls-65" x="420.35" y="75.38" width="199.08" height="66.05" rx="2.35" ry="2.35"/><rect class="cls-65" x="420.37" y="75.36" width="199.08" height="66.05" rx="2.34" ry="2.34"/><rect class="cls-65" x="420.39" y="75.34" width="199.08" height="66.05" rx="2.34" ry="2.34"/><rect class="cls-65" x="420.4" y="75.33" width="199.08" height="66.05" rx="2.33" ry="2.33"/><rect class="cls-39" x="420.42" y="75.31" width="199.08" height="66.05" rx="2.32" ry="2.32"/><rect class="cls-39" x="420.43" y="75.29" width="199.08" height="66.05" rx="2.31" ry="2.31"/><rect class="cls-39" x="420.45" y="75.28" width="199.08" height="66.05" rx="2.31" ry="2.31"/><rect class="cls-13" x="420.46" y="75.26" width="199.08" height="66.05" rx="2.3" ry="2.3"/><rect class="cls-13" x="420.48" y="75.24" width="199.08" height="66.05" rx="2.29" ry="2.29"/><rect class="cls-13" x="420.49" y="75.22" width="199.08" height="66.05" rx="2.28" ry="2.28"/><rect class="cls-13" x="420.51" y="75.21" width="199.08" height="66.05" rx="2.28" ry="2.28"/></svg>
