<svg width="201" height="548" viewBox="0 0 201 548" fill="none" xmlns="http://www.w3.org/2000/svg">
<path d="M51.8702 391.88C50.7702 391.87 49.8802 390.96 49.8902 389.86L53.1202 58.7001C53.1302 57.6001 54.0402 56.7101 55.1402 56.7201L60.4602 56.7901C61.5602 56.8001 62.4502 57.7101 62.4402 58.8101L59.2102 389.97C59.2002 391.07 58.2902 391.96 57.1902 391.95L51.8702 391.88Z" fill="#272525"/>
<path d="M51.8502 391.85C50.7502 391.84 49.8602 390.93 49.8702 389.83L53.1002 58.67C53.1102 57.57 54.0202 56.68 55.1202 56.69L60.4402 56.76C61.5402 56.77 62.4302 57.68 62.4202 58.78L59.1902 389.94C59.1802 391.04 58.2702 391.93 57.1702 391.92L51.8502 391.85Z" fill="#272525"/>
<path d="M51.8302 391.81C50.7302 391.8 49.8402 390.89 49.8502 389.79L53.0802 58.63C53.0902 57.53 54.0002 56.64 55.1002 56.65L60.4202 56.72C61.5202 56.73 62.4102 57.64 62.4002 58.74L59.1702 389.9C59.1602 391 58.2502 391.89 57.1502 391.88L51.8302 391.81Z" fill="#272525"/>
<path d="M51.8199 391.78C50.7199 391.77 49.8299 390.86 49.8399 389.76L53.0699 58.6001C53.0799 57.5001 53.9899 56.6101 55.0899 56.6201L60.4099 56.6901C61.5099 56.7001 62.3999 57.6101 62.3899 58.7101L59.1599 389.87C59.1499 390.97 58.2399 391.86 57.1399 391.85L51.8199 391.78Z" fill="#282627"/>
<path d="M51.7999 391.74C50.6999 391.73 49.8099 390.82 49.8199 389.72L53.0499 58.5601C53.0599 57.4601 53.9699 56.57 55.0699 56.58L60.3899 56.65C61.4899 56.66 62.3799 57.5701 62.3699 58.6701L59.1399 389.83C59.1299 390.93 58.2199 391.82 57.1199 391.81L51.7999 391.74Z" fill="#282627"/>
<path d="M51.7799 391.71C50.6799 391.7 49.7899 390.79 49.7999 389.69L53.0299 58.53C53.0399 57.43 53.9499 56.54 55.0499 56.55L60.3699 56.62C61.4699 56.63 62.3599 57.54 62.3499 58.64L59.1199 389.8C59.1099 390.9 58.1999 391.79 57.0999 391.78L51.7799 391.71Z" fill="#292728"/>
<path d="M51.7599 391.67C50.6599 391.66 49.7699 390.75 49.7799 389.65L53.0099 58.4901C53.0199 57.3901 53.9299 56.5001 55.0299 56.5101L60.3499 56.5801C61.4499 56.5901 62.3399 57.5001 62.3299 58.6001L59.0999 389.76C59.0899 390.86 58.1799 391.75 57.0799 391.74L51.7599 391.67Z" fill="#292728"/>
<path d="M51.7398 391.63C50.6398 391.62 49.7498 390.71 49.7598 389.61L52.9898 58.4501C52.9998 57.3501 53.9098 56.4601 55.0098 56.4701L60.3298 56.5401C61.4298 56.5501 62.3198 57.4601 62.3098 58.5601L59.0798 389.72C59.0698 390.82 58.1598 391.71 57.0598 391.7L51.7398 391.63Z" fill="#2A2829"/>
<path d="M51.7198 391.6C50.6198 391.59 49.7298 390.68 49.7398 389.58L52.9698 58.42C52.9798 57.32 53.8898 56.43 54.9898 56.44L60.3098 56.51C61.4098 56.52 62.2998 57.43 62.2898 58.53L59.0598 389.69C59.0498 390.79 58.1398 391.68 57.0398 391.67L51.7198 391.6Z" fill="#2A2829"/>
<path d="M51.7003 391.56C50.6003 391.55 49.7103 390.64 49.7203 389.54L52.9503 58.38C52.9603 57.28 53.8703 56.39 54.9703 56.4L60.2903 56.47C61.3903 56.48 62.2803 57.39 62.2703 58.49L59.0403 389.65C59.0303 390.75 58.1203 391.64 57.0203 391.63L51.7003 391.56Z" fill="#2A2829"/>
<path d="M51.6901 391.53C50.5901 391.52 49.7 390.61 49.71 389.51L52.9401 58.3501C52.9501 57.2501 53.86 56.3601 54.96 56.3701L60.2801 56.4401C61.3801 56.4501 62.2701 57.3601 62.2601 58.4601L59.0301 389.62C59.0201 390.72 58.1101 391.61 57.0101 391.6L51.6901 391.53Z" fill="#2C2A2A"/>
<path d="M51.67 391.49C50.57 391.48 49.68 390.57 49.69 389.47L52.92 58.3101C52.93 57.2101 53.84 56.32 54.94 56.33L60.26 56.4C61.36 56.41 62.25 57.3201 62.24 58.4201L59.01 389.58C59 390.68 58.09 391.57 56.99 391.56L51.67 391.49Z" fill="#2C2A2A"/>
<path d="M51.65 391.46C50.55 391.45 49.66 390.54 49.67 389.44L52.9 58.28C52.91 57.18 53.82 56.29 54.92 56.3L60.24 56.37C61.34 56.38 62.23 57.29 62.22 58.39L58.99 389.55C58.98 390.65 58.07 391.54 56.97 391.53L51.65 391.46Z" fill="#2D2B2C"/>
<path d="M51.63 391.42C50.53 391.41 49.64 390.5 49.65 389.4L52.88 58.2401C52.89 57.1401 53.8 56.2501 54.9 56.2601L60.22 56.3301C61.32 56.3401 62.21 57.2501 62.2 58.3501L58.97 389.51C58.96 390.61 58.05 391.5 56.95 391.49L51.63 391.42Z" fill="#2D2B2C"/>
<path d="M51.6099 391.38C50.5099 391.37 49.62 390.46 49.63 389.36L52.8599 58.2001C52.8699 57.1001 53.78 56.2101 54.88 56.2201L60.2 56.2901C61.3 56.3001 62.19 57.2101 62.18 58.3101L58.95 389.47C58.94 390.57 58.03 391.46 56.93 391.45L51.6099 391.38Z" fill="#2E2C2D"/>
<path d="M51.59 391.35C50.49 391.34 49.5999 390.43 49.6099 389.33L52.84 58.17C52.85 57.07 53.7599 56.18 54.8599 56.19L60.18 56.26C61.28 56.27 62.17 57.18 62.16 58.28L58.93 389.44C58.92 390.54 58.01 391.43 56.91 391.42L51.59 391.35Z" fill="#2E2C2D"/>
<path d="M51.5699 391.31C50.4699 391.3 49.5799 390.39 49.5899 389.29L52.8199 58.13C52.8299 57.03 53.7399 56.14 54.8399 56.15L60.1599 56.22C61.2599 56.23 62.1499 57.14 62.1399 58.24L58.9099 389.4C58.8999 390.5 57.9899 391.39 56.8899 391.38L51.5699 391.31Z" fill="#2E2C2D"/>
<path d="M51.5602 391.28C50.4602 391.27 49.5702 390.36 49.5802 389.26L52.8102 58.1001C52.8202 57.0001 53.7302 56.1101 54.8302 56.1201L60.1502 56.1901C61.2502 56.2001 62.1402 57.1101 62.1302 58.2101L58.9002 389.37C58.8902 390.47 57.9802 391.36 56.8802 391.35L51.5602 391.28Z" fill="#2F2D2E"/>
<path d="M51.5402 391.24C50.4402 391.23 49.5501 390.32 49.5601 389.22L52.7902 58.0601C52.8002 56.9601 53.7101 56.07 54.8101 56.08L60.1301 56.15C61.2301 56.16 62.1201 57.0701 62.1101 58.1701L58.8801 389.33C58.8701 390.43 57.9601 391.32 56.8601 391.31L51.5402 391.24Z" fill="#2F2D2E"/>
<path d="M51.5201 391.21C50.4201 391.2 49.5301 390.29 49.5401 389.19L52.7701 58.03C52.7801 56.93 53.6901 56.04 54.7901 56.05L60.1101 56.12C61.2101 56.13 62.1001 57.04 62.0901 58.14L58.8601 389.3C58.8501 390.4 57.9401 391.29 56.8401 391.28L51.5201 391.21Z" fill="#302F30"/>
<path d="M51.5001 391.17C50.4001 391.16 49.5101 390.25 49.5201 389.15L52.7501 57.9901C52.7601 56.8901 53.6701 56.0001 54.7701 56.0101L60.0901 56.0801C61.1901 56.0901 62.0801 57.0001 62.0701 58.1001L58.8401 389.26C58.8301 390.36 57.9201 391.25 56.8201 391.24L51.5001 391.17Z" fill="#302F30"/>
<path d="M51.4801 391.13C50.3801 391.12 49.4901 390.21 49.5001 389.11L52.7301 57.9501C52.7401 56.8501 53.6501 55.9601 54.7501 55.9701L60.0701 56.0401C61.1701 56.0501 62.0601 56.9601 62.0501 58.0601L58.8201 389.22C58.8101 390.32 57.9001 391.21 56.8001 391.2L51.4801 391.13Z" fill="#313031"/>
<path d="M51.46 391.1C50.36 391.09 49.4701 390.18 49.4801 389.08L52.71 57.92C52.72 56.82 53.6301 55.93 54.7301 55.94L60.05 56.01C61.15 56.02 62.0401 56.93 62.0301 58.03L58.8 389.19C58.79 390.29 57.8801 391.18 56.7801 391.17L51.46 391.1Z" fill="#313031"/>
<path d="M51.4401 391.06C50.3401 391.05 49.45 390.14 49.46 389.04L52.6901 57.88C52.7001 56.78 53.61 55.89 54.71 55.9L60.0301 55.97C61.1301 55.98 62.0201 56.89 62.0101 57.99L58.7801 389.15C58.7701 390.25 57.8601 391.14 56.7601 391.13L51.4401 391.06Z" fill="#313031"/>
<path d="M51.42 391.03C50.32 391.02 49.43 390.11 49.44 389.01L52.67 57.8501C52.68 56.7501 53.59 55.8601 54.69 55.8701L60.01 55.9401C61.11 55.9501 62 56.8601 61.99 57.9601L58.76 389.12C58.75 390.22 57.84 391.11 56.74 391.1L51.42 391.03Z" fill="#323132"/>
<path d="M51.4103 390.99C50.3103 390.98 49.4203 390.07 49.4303 388.97L52.6603 57.8101C52.6703 56.7101 53.5803 55.82 54.6803 55.83L60.0003 55.9C61.1003 55.91 61.9903 56.8201 61.9803 57.9201L58.7503 389.08C58.7403 390.18 57.8303 391.07 56.7303 391.06L51.4103 390.99Z" fill="#323132"/>
<path d="M51.3902 390.96C50.2902 390.95 49.4002 390.04 49.4102 388.94L52.6402 57.78C52.6502 56.68 53.5602 55.79 54.6602 55.8L59.9802 55.87C61.0802 55.88 61.9702 56.79 61.9602 57.89L58.7302 389.05C58.7202 390.15 57.8102 391.04 56.7102 391.03L51.3902 390.96Z" fill="#343233"/>
<path d="M51.3702 390.92C50.2702 390.91 49.3802 390 49.3902 388.9L52.6202 57.7401C52.6302 56.6401 53.5402 55.7501 54.6402 55.7601L59.9602 55.8301C61.0602 55.8401 61.9502 56.7501 61.9402 57.8501L58.7102 389.01C58.7002 390.11 57.7902 391 56.6902 390.99L51.3702 390.92Z" fill="#343233"/>
<path d="M51.3502 390.89C50.2502 390.88 49.3602 389.97 49.3702 388.87L52.6002 57.7101C52.6102 56.6101 53.5202 55.7201 54.6202 55.7301L59.9402 55.8001C61.0402 55.8101 61.9302 56.7201 61.9202 57.8201L58.6902 388.98C58.6802 390.08 57.7702 390.97 56.6702 390.96L51.3502 390.89Z" fill="#353435"/>
<path d="M51.3302 390.85C50.2302 390.84 49.3402 389.93 49.3502 388.83L52.5802 57.67C52.5902 56.57 53.5002 55.68 54.6002 55.69L59.9202 55.76C61.0202 55.77 61.9102 56.68 61.9002 57.78L58.6702 388.94C58.6602 390.04 57.7502 390.93 56.6502 390.92L51.3302 390.85Z" fill="#353435"/>
<path d="M51.3102 390.81C50.2102 390.8 49.3202 389.89 49.3302 388.79L52.5602 57.63C52.5702 56.53 53.4802 55.64 54.5802 55.65L59.9002 55.72C61.0002 55.73 61.8902 56.64 61.8802 57.74L58.6502 388.9C58.6402 390 57.7302 390.89 56.6302 390.88L51.3102 390.81Z" fill="#353435"/>
<path d="M51.2902 390.78C50.1902 390.77 49.3001 389.86 49.3101 388.76L52.5402 57.6001C52.5502 56.5001 53.4601 55.6101 54.5601 55.6201L59.8801 55.6901C60.9801 55.7001 61.8701 56.6101 61.8601 57.7101L58.6301 388.87C58.6201 389.97 57.7101 390.86 56.6101 390.85L51.2902 390.78Z" fill="#363536"/>
<path d="M51.2799 390.74C50.1799 390.73 49.2899 389.82 49.2999 388.72L52.5299 57.5601C52.5399 56.4601 53.4499 55.57 54.5499 55.58L59.8699 55.65C60.9699 55.66 61.8599 56.5701 61.8499 57.6701L58.6199 388.83C58.6099 389.93 57.6999 390.82 56.5999 390.81L51.2799 390.74Z" fill="#363536"/>
<path d="M51.2599 390.71C50.1599 390.7 49.2699 389.79 49.2799 388.69L52.5099 57.53C52.5199 56.43 53.4299 55.54 54.5299 55.55L59.8499 55.62C60.9499 55.63 61.8399 56.54 61.8299 57.64L58.5999 388.8C58.5899 389.9 57.6799 390.79 56.5799 390.78L51.2599 390.71Z" fill="#373637"/>
<path d="M51.2398 390.67C50.1398 390.66 49.2498 389.75 49.2598 388.65L52.4898 57.4901C52.4998 56.3901 53.4098 55.5001 54.5098 55.5101L59.8298 55.5801C60.9298 55.5901 61.8198 56.5001 61.8098 57.6001L58.5798 388.76C58.5698 389.86 57.6598 390.75 56.5598 390.74L51.2398 390.67Z" fill="#373637"/>
<path d="M51.2198 390.64C50.1198 390.63 49.2298 389.72 49.2398 388.62L52.4698 57.4601C52.4798 56.3601 53.3898 55.4701 54.4898 55.4801L59.8098 55.5501C60.9098 55.5601 61.7998 56.4701 61.7898 57.5701L58.5598 388.73C58.5498 389.83 57.6398 390.72 56.5398 390.71L51.2198 390.64Z" fill="#383738"/>
<path d="M51.2003 390.6C50.1003 390.59 49.2103 389.68 49.2203 388.58L52.4503 57.42C52.4603 56.32 53.3703 55.43 54.4703 55.44L59.7903 55.51C60.8903 55.52 61.7803 56.43 61.7703 57.53L58.5403 388.69C58.5303 389.79 57.6203 390.68 56.5203 390.67L51.2003 390.6Z" fill="#383738"/>
<path d="M51.1803 390.56C50.0803 390.55 49.1903 389.64 49.2003 388.54L52.4303 57.38C52.4403 56.28 53.3503 55.39 54.4503 55.4L59.7703 55.47C60.8703 55.48 61.7603 56.39 61.7503 57.49L58.5203 388.65C58.5103 389.75 57.6003 390.64 56.5003 390.63L51.1803 390.56Z" fill="#383738"/>
<path d="M51.1603 390.53C50.0603 390.52 49.1703 389.61 49.1803 388.51L52.4103 57.3501C52.4203 56.2501 53.3303 55.3601 54.4303 55.3701L59.7503 55.4401C60.8503 55.4501 61.7403 56.3601 61.7303 57.4601L58.5003 388.62C58.4903 389.72 57.5803 390.61 56.4803 390.6L51.1603 390.53Z" fill="#393839"/>
<path d="M51.15 390.49C50.05 390.48 49.16 389.57 49.17 388.47L52.4 57.3101C52.41 56.2101 53.32 55.32 54.42 55.33L59.74 55.4C60.84 55.41 61.73 56.3201 61.72 57.4201L58.49 388.58C58.48 389.68 57.57 390.57 56.47 390.56L51.15 390.49Z" fill="#393839"/>
<path d="M51.13 390.46C50.03 390.45 49.14 389.54 49.15 388.44L52.38 57.28C52.39 56.18 53.3 55.29 54.4 55.3L59.72 55.37C60.82 55.38 61.71 56.29 61.7 57.39L58.47 388.55C58.46 389.65 57.55 390.54 56.45 390.53L51.13 390.46Z" fill="#3A393B"/>
<path d="M51.1099 390.42C50.0099 390.41 49.12 389.5 49.13 388.4L52.3599 57.2401C52.3699 56.1401 53.28 55.2501 54.38 55.2601L59.7 55.3301C60.8 55.3401 61.69 56.2501 61.68 57.3501L58.45 388.51C58.44 389.61 57.53 390.5 56.43 390.49L51.1099 390.42Z" fill="#3A393B"/>
<path d="M51.09 390.39C49.99 390.38 49.0999 389.47 49.1099 388.37L52.34 57.2101C52.35 56.1101 53.2599 55.2201 54.3599 55.2301L59.68 55.3001C60.78 55.3101 61.67 56.2201 61.66 57.3201L58.43 388.48C58.42 389.58 57.51 390.47 56.41 390.46L51.09 390.39Z" fill="#3B3A3C"/>
<path d="M51.0699 390.35C49.9699 390.34 49.0799 389.43 49.0899 388.33L52.3199 57.17C52.3299 56.07 53.2399 55.18 54.3399 55.19L59.6599 55.26C60.7599 55.27 61.6499 56.18 61.6399 57.28L58.4099 388.44C58.3999 389.54 57.4899 390.43 56.3899 390.42L51.0699 390.35Z" fill="#3B3A3C"/>
<path d="M51.0499 390.31C49.9499 390.3 49.0599 389.39 49.0699 388.29L52.2999 57.13C52.3099 56.03 53.2199 55.14 54.3199 55.15L59.6399 55.22C60.7399 55.23 61.6299 56.14 61.6199 57.24L58.3899 388.4C58.3799 389.5 57.4699 390.39 56.3699 390.38L51.0499 390.31Z" fill="#3B3A3C"/>
<path d="M51.0299 390.28C49.9299 390.27 49.0399 389.36 49.0499 388.26L52.2799 57.1001C52.2899 56.0001 53.1999 55.1101 54.2999 55.1201L59.6199 55.1901C60.7199 55.2001 61.6099 56.1101 61.5999 57.2101L58.3699 388.37C58.3599 389.47 57.4499 390.36 56.3499 390.35L51.0299 390.28Z" fill="#3C3C3D"/>
<path d="M51.0201 390.24C49.9201 390.23 49.0301 389.32 49.0401 388.22L52.2701 57.0601C52.2801 55.9601 53.1901 55.07 54.2901 55.08L59.6101 55.15C60.7101 55.16 61.6001 56.0701 61.5901 57.1701L58.3601 388.33C58.3501 389.43 57.4401 390.32 56.3401 390.31L51.0201 390.24Z" fill="#3C3C3D"/>
<path d="M51.0001 390.21C49.9001 390.2 49.0101 389.29 49.0201 388.19L52.2501 57.03C52.2601 55.93 53.1701 55.04 54.2701 55.05L59.5901 55.12C60.6901 55.13 61.5801 56.04 61.5701 57.14L58.3401 388.3C58.3301 389.4 57.4201 390.29 56.3201 390.28L51.0001 390.21Z" fill="#3D3D3E"/>
<path d="M50.9801 390.17C49.8801 390.16 48.9901 389.25 49.0001 388.15L52.2301 56.9901C52.2401 55.8901 53.1501 55.0001 54.2501 55.0101L59.5701 55.0801C60.6701 55.0901 61.5601 56.0001 61.5501 57.1001L58.3201 388.26C58.3101 389.36 57.4001 390.25 56.3001 390.24L50.9801 390.17Z" fill="#3D3D3E"/>
<path d="M50.96 390.14C49.86 390.13 48.9701 389.22 48.9801 388.12L52.21 56.9601C52.22 55.8601 53.1301 54.9701 54.2301 54.9801L59.55 55.0501C60.65 55.0601 61.5401 55.9701 61.5301 57.0701L58.3 388.23C58.29 389.33 57.3801 390.22 56.2801 390.21L50.96 390.14Z" fill="#3E3E3F"/>
<path d="M50.9401 390.1C49.8401 390.09 48.95 389.18 48.96 388.08L52.1901 56.92C52.2001 55.82 53.11 54.93 54.21 54.94L59.5301 55.01C60.6301 55.02 61.5201 55.93 61.5101 57.03L58.2801 388.19C58.2701 389.29 57.3601 390.18 56.2601 390.17L50.9401 390.1Z" fill="#3E3E3F"/>
<path d="M50.92 390.07C49.82 390.06 48.93 389.15 48.94 388.05L52.17 56.89C52.18 55.79 53.09 54.9 54.19 54.91L59.51 54.98C60.61 54.99 61.5 55.9 61.49 57L58.26 388.16C58.25 389.26 57.34 390.15 56.24 390.14L50.92 390.07Z" fill="#3E3E3F"/>
<path d="M50.9 390.03C49.8 390.02 48.91 389.11 48.92 388.01L52.15 56.8501C52.16 55.7501 53.07 54.8601 54.17 54.8701L59.49 54.9401C60.59 54.9501 61.48 55.8601 61.47 56.9601L58.24 388.12C58.23 389.22 57.32 390.11 56.22 390.1L50.9 390.03Z" fill="#3F3F40"/>
<path d="M50.8902 389.99C49.7902 389.98 48.9002 389.07 48.9102 387.97L52.1402 56.8101C52.1502 55.7101 53.0602 54.82 54.1602 54.83L59.4802 54.9C60.5802 54.91 61.4702 55.8201 61.4602 56.9201L58.2302 388.08C58.2202 389.18 57.3102 390.07 56.2102 390.06L50.8902 389.99Z" fill="#3F3F40"/>
<path d="M50.8702 389.96C49.7702 389.95 48.8802 389.04 48.8902 387.94L52.1202 56.78C52.1302 55.68 53.0402 54.79 54.1402 54.8L59.4602 54.87C60.5602 54.88 61.4502 55.79 61.4402 56.89L58.2102 388.05C58.2002 389.15 57.2902 390.04 56.1902 390.03L50.8702 389.96Z" fill="#404041"/>
<path d="M50.8502 389.92C49.7502 389.91 48.8602 389 48.8702 387.9L52.1002 56.7401C52.1102 55.6401 53.0202 54.7501 54.1202 54.7601L59.4402 54.8301C60.5402 54.8401 61.4302 55.7501 61.4202 56.8501L58.1902 388.01C58.1802 389.11 57.2702 390 56.1702 389.99L50.8502 389.92Z" fill="#404041"/>
<path d="M50.8302 389.89C49.7302 389.88 48.8402 388.97 48.8502 387.87L52.0802 56.7101C52.0902 55.6101 53.0002 54.7201 54.1002 54.7301L59.4202 54.8001C60.5202 54.8101 61.4102 55.7201 61.4002 56.8201L58.1702 387.98C58.1602 389.08 57.2502 389.97 56.1502 389.96L50.8302 389.89Z" fill="#414142"/>
<path d="M50.8102 389.85C49.7102 389.84 48.8202 388.93 48.8302 387.83L52.0602 56.67C52.0702 55.57 52.9802 54.68 54.0802 54.69L59.4002 54.76C60.5002 54.77 61.3902 55.68 61.3802 56.78L58.1502 387.94C58.1402 389.04 57.2302 389.93 56.1302 389.92L50.8102 389.85Z" fill="#414142"/>
<path d="M50.7902 389.82C49.6902 389.81 48.8001 388.9 48.8101 387.8L52.0402 56.64C52.0502 55.54 52.9601 54.65 54.0601 54.66L59.3801 54.73C60.4801 54.74 61.3701 55.65 61.3601 56.75L58.1301 387.91C58.1201 389.01 57.2101 389.9 56.1101 389.89L50.7902 389.82Z" fill="#414142"/>
<path d="M50.7701 389.78C49.6701 389.77 48.7801 388.86 48.7901 387.76L52.0201 56.6001C52.0301 55.5001 52.9401 54.6101 54.0401 54.6201L59.3601 54.6901C60.4601 54.7001 61.3501 55.6101 61.3401 56.7101L58.1101 387.87C58.1001 388.97 57.1901 389.86 56.0901 389.85L50.7701 389.78Z" fill="#424243"/>
<path d="M50.7599 389.74C49.6599 389.73 48.7699 388.82 48.7799 387.72L52.0099 56.5601C52.0199 55.4601 52.9299 54.57 54.0299 54.58L59.3499 54.65C60.4499 54.66 61.3399 55.5701 61.3299 56.6701L58.0999 387.83C58.0899 388.93 57.1799 389.82 56.0799 389.81L50.7599 389.74Z" fill="#424243"/>
<path d="M50.7398 389.71C49.6398 389.7 48.7498 388.79 48.7598 387.69L51.9898 56.53C51.9998 55.43 52.9098 54.54 54.0098 54.55L59.3298 54.62C60.4298 54.63 61.3198 55.54 61.3098 56.64L58.0798 387.8C58.0698 388.9 57.1598 389.79 56.0598 389.78L50.7398 389.71Z" fill="#434344"/>
<path d="M50.7198 389.67C49.6198 389.66 48.7298 388.75 48.7398 387.65L51.9698 56.4901C51.9798 55.3901 52.8898 54.5001 53.9898 54.5101L59.3098 54.5801C60.4098 54.5901 61.2998 55.5001 61.2898 56.6001L58.0598 387.76C58.0498 388.86 57.1398 389.75 56.0398 389.74L50.7198 389.67Z" fill="#434344"/>
<path d="M50.7003 389.64C49.6003 389.63 48.7103 388.72 48.7203 387.62L51.9503 56.4601C51.9603 55.3601 52.8703 54.4701 53.9703 54.4801L59.2903 54.5501C60.3903 54.5601 61.2803 55.4701 61.2703 56.5701L58.0403 387.73C58.0303 388.83 57.1203 389.72 56.0203 389.71L50.7003 389.64Z" fill="#444445"/>
<path d="M50.6803 389.6C49.5803 389.59 48.6903 388.68 48.7003 387.58L51.9303 56.42C51.9403 55.32 52.8503 54.43 53.9503 54.44L59.2703 54.51C60.3703 54.52 61.2603 55.43 61.2503 56.53L58.0203 387.69C58.0103 388.79 57.1003 389.68 56.0003 389.67L50.6803 389.6Z" fill="#444445"/>
<path d="M50.6603 389.57C49.5603 389.56 48.6703 388.65 48.6803 387.55L51.9103 56.39C51.9203 55.29 52.8303 54.4 53.9303 54.41L59.2503 54.48C60.3503 54.49 61.2403 55.4 61.2303 56.5L58.0003 387.66C57.9903 388.76 57.0803 389.65 55.9803 389.64L50.6603 389.57Z" fill="#454546"/>
<path d="M50.6402 389.53C49.5402 389.52 48.6502 388.61 48.6602 387.51L51.8902 56.3501C51.9002 55.2501 52.8102 54.3601 53.9102 54.3701L59.2302 54.4401C60.3302 54.4501 61.2202 55.3601 61.2102 56.4601L57.9802 387.62C57.9702 388.72 57.0602 389.61 55.9602 389.6L50.6402 389.53Z" fill="#454546"/>
<path d="M50.6202 389.49C49.5202 389.48 48.6302 388.57 48.6402 387.47L51.8702 56.3101C51.8802 55.2101 52.7902 54.32 53.8902 54.33L59.2102 54.4C60.3102 54.41 61.2002 55.3201 61.1902 56.4201L57.9602 387.58C57.9502 388.68 57.0402 389.57 55.9402 389.56L50.6202 389.49Z" fill="#454546"/>
<path d="M50.6099 389.46C49.5099 389.45 48.62 388.54 48.63 387.44L51.8599 56.28C51.8699 55.18 52.78 54.29 53.88 54.3L59.2 54.37C60.3 54.38 61.19 55.29 61.18 56.39L57.95 387.55C57.94 388.65 57.03 389.54 55.93 389.53L50.6099 389.46Z" fill="#464647"/>
<path d="M50.59 389.42C49.49 389.41 48.5999 388.5 48.6099 387.4L51.84 56.2401C51.85 55.1401 52.7599 54.2501 53.8599 54.2601L59.18 54.3301C60.28 54.3401 61.17 55.2501 61.16 56.3501L57.93 387.51C57.92 388.61 57.01 389.5 55.91 389.49L50.59 389.42Z" fill="#464647"/>
<path d="M50.5699 389.39C49.4699 389.38 48.5799 388.47 48.5899 387.37L51.8199 56.2101C51.8299 55.1101 52.7399 54.2201 53.8399 54.2301L59.1599 54.3001C60.2599 54.3101 61.1499 55.2201 61.1399 56.3201L57.9099 387.48C57.8999 388.58 56.9899 389.47 55.8899 389.46L50.5699 389.39Z" fill="#474748"/>
<path d="M50.5499 389.35C49.4499 389.34 48.5599 388.43 48.5699 387.33L51.7999 56.17C51.8099 55.07 52.7199 54.18 53.8199 54.19L59.1399 54.26C60.2399 54.27 61.1299 55.18 61.1199 56.28L57.8899 387.44C57.8799 388.54 56.9699 389.43 55.8699 389.42L50.5499 389.35Z" fill="#474748"/>
<path d="M50.5299 389.32C49.4299 389.31 48.5399 388.4 48.5499 387.3L51.7799 56.14C51.7899 55.04 52.6999 54.15 53.7999 54.16L59.1199 54.23C60.2199 54.24 61.1099 55.15 61.0999 56.25L57.8699 387.41C57.8599 388.51 56.9499 389.4 55.8499 389.39L50.5299 389.32Z" fill="#484749"/>
<path d="M50.5099 389.28C49.4099 389.27 48.5199 388.36 48.5299 387.26L51.7599 56.1001C51.7699 55.0001 52.6799 54.1101 53.7799 54.1201L59.0999 54.1901C60.1999 54.2001 61.0899 55.1101 61.0799 56.2101L57.8499 387.37C57.8399 388.47 56.9299 389.36 55.8299 389.35L50.5099 389.28Z" fill="#484749"/>
<path d="M50.4898 389.25C49.3898 389.24 48.4998 388.33 48.5098 387.23L51.7398 56.07C51.7498 54.97 52.6598 54.08 53.7598 54.09L59.0798 54.16C60.1798 54.17 61.0698 55.08 61.0598 56.18L57.8298 387.34C57.8198 388.44 56.9098 389.33 55.8098 389.32L50.4898 389.25Z" fill="#484749"/>
<path d="M50.4801 389.21C49.3801 389.2 48.4901 388.29 48.5001 387.19L51.7301 56.03C51.7401 54.93 52.6501 54.04 53.7501 54.05L59.0701 54.12C60.1701 54.13 61.0601 55.04 61.0501 56.14L57.8201 387.3C57.8101 388.4 56.9001 389.29 55.8001 389.28L50.4801 389.21Z" fill="#48484A"/>
<path d="M50.46 389.17C49.36 389.16 48.4701 388.25 48.4801 387.15L51.71 55.9901C51.72 54.8901 52.6301 54.0001 53.7301 54.0101L59.05 54.0801C60.15 54.0901 61.0401 55.0001 61.0301 56.1001L57.8 387.26C57.79 388.36 56.8801 389.25 55.7801 389.24L50.46 389.17Z" fill="#48484A"/>
<path d="M50.4401 389.14C49.3401 389.13 48.45 388.22 48.46 387.12L51.6901 55.9601C51.7001 54.8601 52.61 53.9701 53.71 53.9801L59.0301 54.0501C60.1301 54.0601 61.0201 54.9701 61.0101 56.0701L57.7801 387.23C57.7701 388.33 56.8601 389.22 55.7601 389.21L50.4401 389.14Z" fill="#49494B"/>
<path d="M50.42 389.1C49.32 389.09 48.43 388.18 48.44 387.08L51.67 55.92C51.68 54.82 52.59 53.93 53.69 53.94L59.01 54.01C60.11 54.02 61 54.93 60.99 56.03L57.76 387.19C57.75 388.29 56.84 389.18 55.74 389.17L50.42 389.1Z" fill="#49494B"/>
<path d="M50.4 389.07C49.3 389.06 48.41 388.15 48.42 387.05L51.65 55.89C51.66 54.79 52.57 53.9 53.67 53.91L58.99 53.98C60.09 53.99 60.98 54.9 60.97 56L57.74 387.16C57.73 388.26 56.82 389.15 55.72 389.14L50.4 389.07Z" fill="#4A4A4C"/>
<path d="M50.38 389.03C49.28 389.02 48.39 388.11 48.4 387.01L51.63 55.8501C51.64 54.7501 52.55 53.8601 53.65 53.8701L58.97 53.9401C60.07 53.9501 60.96 54.8601 60.95 55.9601L57.72 387.12C57.71 388.22 56.8 389.11 55.7 389.1L50.38 389.03Z" fill="#4A4A4C"/>
<path d="M50.3599 389C49.2599 388.99 48.37 388.08 48.38 386.98L51.6099 55.82C51.6199 54.72 52.53 53.83 53.63 53.84L58.95 53.91C60.05 53.92 60.94 54.83 60.93 55.93L57.7 387.09C57.69 388.19 56.78 389.08 55.68 389.07L50.3599 389Z" fill="#4A4A4C"/>
<path d="M50.3502 388.96C49.2502 388.95 48.3602 388.04 48.3702 386.94L51.6002 55.78C51.6102 54.68 52.5202 53.79 53.6202 53.8L58.9402 53.87C60.0402 53.88 60.9302 54.79 60.9202 55.89L57.6902 387.05C57.6802 388.15 56.7702 389.04 55.6702 389.03L50.3502 388.96Z" fill="#4B4B4D"/>
<path d="M50.3302 388.92C49.2302 388.91 48.3402 388 48.3502 386.9L51.5802 55.7401C51.5902 54.6401 52.5002 53.7501 53.6002 53.7601L58.9202 53.8301C60.0202 53.8401 60.9102 54.7501 60.9002 55.8501L57.6702 387.01C57.6602 388.11 56.7502 389 55.6502 388.99L50.3302 388.92Z" fill="#4B4B4D"/>
<path d="M50.3102 388.89C49.2102 388.88 48.3202 387.97 48.3302 386.87L51.5602 55.7101C51.5702 54.6101 52.4802 53.7201 53.5802 53.7301L58.9002 53.8001C60.0002 53.8101 60.8902 54.7201 60.8802 55.8201L57.6502 386.98C57.6402 388.08 56.7302 388.97 55.6302 388.96L50.3102 388.89Z" fill="#4C4C4E"/>
<path d="M50.2902 388.85C49.1902 388.84 48.3001 387.93 48.3101 386.83L51.5402 55.67C51.5502 54.57 52.4601 53.68 53.5601 53.69L58.8801 53.76C59.9801 53.77 60.8701 54.68 60.8601 55.78L57.6301 386.94C57.6201 388.04 56.7101 388.93 55.6101 388.92L50.2902 388.85Z" fill="#4C4C4E"/>
<path d="M50.2701 388.82C49.1701 388.81 48.2801 387.9 48.2901 386.8L51.5201 55.64C51.5301 54.54 52.4401 53.65 53.5401 53.66L58.8601 53.73C59.9601 53.74 60.8501 54.65 60.8401 55.75L57.6101 386.91C57.6001 388.01 56.6901 388.9 55.5901 388.89L50.2701 388.82Z" fill="#4D4D4F"/>
<path d="M50.2501 388.78C49.1501 388.77 48.2601 387.86 48.2701 386.76L51.5001 55.6001C51.5101 54.5001 52.4201 53.6101 53.5201 53.6201L58.8401 53.6901C59.9401 53.7001 60.8301 54.6101 60.8201 55.7101L57.5901 386.87C57.5801 387.97 56.6701 388.86 55.5701 388.85L50.2501 388.78Z" fill="#4D4D4F"/>
<path d="M50.2301 388.75C49.1301 388.74 48.2401 387.83 48.2501 386.73L51.4801 55.57C51.4901 54.47 52.4001 53.58 53.5001 53.59L58.8201 53.66C59.9201 53.67 60.8101 54.58 60.8001 55.68L57.5701 386.84C57.5601 387.94 56.6501 388.83 55.5501 388.82L50.2301 388.75Z" fill="#4D4D4F"/>
<path d="M50.2198 388.71C49.1198 388.7 48.2298 387.79 48.2398 386.69L51.4698 55.53C51.4798 54.43 52.3898 53.54 53.4898 53.55L58.8098 53.62C59.9098 53.63 60.7998 54.54 60.7898 55.64L57.5598 386.8C57.5498 387.9 56.6398 388.79 55.5398 388.78L50.2198 388.71Z" fill="#4E4E50"/>
<path d="M50.2003 388.67C49.1003 388.66 48.2103 387.75 48.2203 386.65L51.4503 55.4901C51.4603 54.3901 52.3703 53.5001 53.4703 53.5101L58.7903 53.5801C59.8903 53.5901 60.7803 54.5001 60.7703 55.6001L57.5403 386.76C57.5303 387.86 56.6203 388.75 55.5203 388.74L50.2003 388.67Z" fill="#4E4E50"/>
<path d="M50.1803 388.64C49.0803 388.63 48.1903 387.72 48.2003 386.62L51.4303 55.4601C51.4403 54.3601 52.3503 53.4701 53.4503 53.4801L58.7703 53.5501C59.8703 53.5601 60.7603 54.4701 60.7503 55.5701L57.5203 386.73C57.5103 387.83 56.6003 388.72 55.5003 388.71L50.1803 388.64Z" fill="#4F4F51"/>
<path d="M50.1603 388.6C49.0603 388.59 48.1703 387.68 48.1803 386.58L51.4103 55.42C51.4203 54.32 52.3303 53.43 53.4303 53.44L58.7503 53.51C59.8503 53.52 60.7403 54.43 60.7303 55.53L57.5003 386.69C57.4903 387.79 56.5803 388.68 55.4803 388.67L50.1603 388.6Z" fill="#4F4F51"/>
<path d="M50.1402 388.57C49.0402 388.56 48.1502 387.65 48.1602 386.55L51.3902 55.39C51.4002 54.29 52.3102 53.4 53.4102 53.41L58.7302 53.48C59.8302 53.49 60.7202 54.4 60.7102 55.5L57.4802 386.66C57.4702 387.76 56.5602 388.65 55.4602 388.64L50.1402 388.57Z" fill="#505052"/>
<path d="M50.1202 388.53C49.0202 388.52 48.1302 387.61 48.1402 386.51L51.3702 55.3501C51.3802 54.2501 52.2902 53.3601 53.3902 53.3701L58.7102 53.4401C59.8102 53.4501 60.7002 54.3601 60.6902 55.4601L57.4602 386.62C57.4502 387.72 56.5402 388.61 55.4402 388.6L50.1202 388.53Z" fill="#505052"/>
<path d="M50.1002 388.5C49.0002 388.49 48.1102 387.58 48.1202 386.48L51.3502 55.32C51.3602 54.22 52.2702 53.33 53.3702 53.34L58.6902 53.41C59.7902 53.42 60.6802 54.33 60.6702 55.43L57.4402 386.59C57.4302 387.69 56.5202 388.58 55.4202 388.57L50.1002 388.5Z" fill="#505052"/>
<path d="M50.09 388.46C48.99 388.45 48.0999 387.54 48.1099 386.44L51.34 55.28C51.35 54.18 52.2599 53.29 53.3599 53.3L58.68 53.37C59.78 53.38 60.67 54.29 60.66 55.39L57.43 386.55C57.42 387.65 56.51 388.54 55.41 388.53L50.09 388.46Z" fill="#505152"/>
<path d="M50.0699 388.43C48.9699 388.42 48.0799 387.51 48.0899 386.41L51.3199 55.2501C51.3299 54.1501 52.2399 53.2601 53.3399 53.2701L58.6599 53.3401C59.7599 53.3501 60.6499 54.2601 60.6399 55.3601L57.4099 386.52C57.3999 387.62 56.4899 388.51 55.3899 388.5L50.0699 388.43Z" fill="#505152"/>
<path d="M50.0499 388.39C48.9499 388.38 48.0599 387.47 48.0699 386.37L51.2999 55.2101C51.3099 54.1101 52.2199 53.2201 53.3199 53.2301L58.6399 53.3001C59.7399 53.3101 60.6299 54.2201 60.6199 55.3201L57.3899 386.48C57.3799 387.58 56.4699 388.47 55.3699 388.46L50.0499 388.39Z" fill="#515153"/>
<path d="M50.0299 388.35C48.9299 388.34 48.0399 387.43 48.0499 386.33L51.2799 55.17C51.2899 54.07 52.1999 53.18 53.2999 53.19L58.6199 53.26C59.7199 53.27 60.6099 54.18 60.5999 55.28L57.3699 386.44C57.3599 387.54 56.4499 388.43 55.3499 388.42L50.0299 388.35Z" fill="#515153"/>
<path d="M50.0099 388.32C48.9099 388.31 48.0199 387.4 48.0299 386.3L51.2599 55.14C51.2699 54.04 52.1799 53.15 53.2799 53.16L58.5999 53.23C59.6999 53.24 60.5899 54.15 60.5799 55.25L57.3499 386.41C57.3399 387.51 56.4299 388.4 55.3299 388.39L50.0099 388.32Z" fill="#525254"/>
<path d="M49.9898 388.28C48.8898 388.27 47.9998 387.36 48.0098 386.26L51.2398 55.1001C51.2498 54.0001 52.1598 53.1101 53.2598 53.1201L58.5798 53.1901C59.6798 53.2001 60.5698 54.1101 60.5598 55.2101L57.3298 386.37C57.3198 387.47 56.4098 388.36 55.3098 388.35L49.9898 388.28Z" fill="#525254"/>
<path d="M147.63 391.88C148.73 391.87 149.62 390.96 149.61 389.86L146.38 58.7001C146.37 57.6001 145.46 56.7101 144.36 56.7201L139.04 56.7901C137.94 56.8001 137.05 57.7101 137.06 58.8101L140.29 389.97C140.3 391.07 141.21 391.96 142.31 391.95L147.63 391.88Z" fill="#272525"/>
<path d="M147.65 391.85C148.75 391.84 149.64 390.93 149.63 389.83L146.4 58.67C146.39 57.57 145.48 56.68 144.38 56.69L139.06 56.76C137.96 56.77 137.07 57.68 137.08 58.78L140.31 389.94C140.32 391.04 141.23 391.93 142.33 391.92L147.65 391.85Z" fill="#272525"/>
<path d="M147.67 391.81C148.77 391.8 149.66 390.89 149.65 389.79L146.42 58.63C146.41 57.53 145.5 56.64 144.4 56.65L139.08 56.72C137.98 56.73 137.09 57.64 137.1 58.74L140.33 389.9C140.34 391 141.25 391.89 142.35 391.88L147.67 391.81Z" fill="#272525"/>
<path d="M147.68 391.78C148.78 391.77 149.67 390.86 149.66 389.76L146.43 58.6001C146.42 57.5001 145.51 56.6101 144.41 56.6201L139.09 56.6901C137.99 56.7001 137.1 57.6101 137.11 58.7101L140.34 389.87C140.35 390.97 141.26 391.86 142.36 391.85L147.68 391.78Z" fill="#282627"/>
<path d="M147.7 391.74C148.8 391.73 149.69 390.82 149.68 389.72L146.45 58.5601C146.44 57.4601 145.53 56.57 144.43 56.58L139.11 56.65C138.01 56.66 137.12 57.5701 137.13 58.6701L140.36 389.83C140.37 390.93 141.28 391.82 142.38 391.81L147.7 391.74Z" fill="#282627"/>
<path d="M147.72 391.71C148.82 391.7 149.71 390.79 149.7 389.69L146.47 58.53C146.46 57.43 145.55 56.54 144.45 56.55L139.13 56.62C138.03 56.63 137.14 57.54 137.15 58.64L140.38 389.8C140.39 390.9 141.3 391.79 142.4 391.78L147.72 391.71Z" fill="#292728"/>
<path d="M147.74 391.67C148.84 391.66 149.73 390.75 149.72 389.65L146.49 58.4901C146.48 57.3901 145.57 56.5001 144.47 56.5101L139.15 56.5801C138.05 56.5901 137.16 57.5001 137.17 58.6001L140.4 389.76C140.41 390.86 141.32 391.75 142.42 391.74L147.74 391.67Z" fill="#292728"/>
<path d="M147.76 391.63C148.86 391.62 149.75 390.71 149.74 389.61L146.51 58.4501C146.5 57.3501 145.59 56.4601 144.49 56.4701L139.17 56.5401C138.07 56.5501 137.18 57.4601 137.19 58.5601L140.42 389.72C140.43 390.82 141.34 391.71 142.44 391.7L147.76 391.63Z" fill="#2A2829"/>
<path d="M147.78 391.6C148.88 391.59 149.77 390.68 149.76 389.58L146.53 58.42C146.52 57.32 145.61 56.43 144.51 56.44L139.19 56.51C138.09 56.52 137.2 57.43 137.21 58.53L140.44 389.69C140.45 390.79 141.36 391.68 142.46 391.67L147.78 391.6Z" fill="#2A2829"/>
<path d="M147.8 391.56C148.9 391.55 149.79 390.64 149.78 389.54L146.55 58.38C146.54 57.28 145.63 56.39 144.53 56.4L139.21 56.47C138.11 56.48 137.22 57.39 137.23 58.49L140.46 389.65C140.47 390.75 141.38 391.64 142.48 391.63L147.8 391.56Z" fill="#2A2829"/>
<path d="M147.82 391.53C148.92 391.52 149.81 390.61 149.8 389.51L146.57 58.3501C146.56 57.2501 145.65 56.3601 144.55 56.3701L139.23 56.4401C138.13 56.4501 137.24 57.3601 137.25 58.4601L140.48 389.62C140.49 390.72 141.4 391.61 142.5 391.6L147.82 391.53Z" fill="#2C2A2A"/>
<path d="M147.83 391.49C148.93 391.48 149.82 390.57 149.81 389.47L146.58 58.3101C146.57 57.2101 145.66 56.32 144.56 56.33L139.24 56.4C138.14 56.41 137.25 57.3201 137.26 58.4201L140.49 389.58C140.5 390.68 141.41 391.57 142.51 391.56L147.83 391.49Z" fill="#2C2A2A"/>
<path d="M147.85 391.46C148.95 391.45 149.84 390.54 149.83 389.44L146.6 58.28C146.59 57.18 145.68 56.29 144.58 56.3L139.26 56.37C138.16 56.38 137.27 57.29 137.28 58.39L140.51 389.55C140.52 390.65 141.43 391.54 142.53 391.53L147.85 391.46Z" fill="#2D2B2C"/>
<path d="M147.87 391.42C148.97 391.41 149.86 390.5 149.85 389.4L146.62 58.2401C146.61 57.1401 145.7 56.2501 144.6 56.2601L139.28 56.3301C138.18 56.3401 137.29 57.2501 137.3 58.3501L140.53 389.51C140.54 390.61 141.45 391.5 142.55 391.49L147.87 391.42Z" fill="#2D2B2C"/>
<path d="M147.89 391.38C148.99 391.37 149.88 390.46 149.87 389.36L146.64 58.2001C146.63 57.1001 145.72 56.2101 144.62 56.2201L139.3 56.2901C138.2 56.3001 137.31 57.2101 137.32 58.3101L140.55 389.47C140.56 390.57 141.47 391.46 142.57 391.45L147.89 391.38Z" fill="#2E2C2D"/>
<path d="M147.91 391.35C149.01 391.34 149.9 390.43 149.89 389.33L146.66 58.17C146.65 57.07 145.74 56.18 144.64 56.19L139.32 56.26C138.22 56.27 137.33 57.18 137.34 58.28L140.57 389.44C140.58 390.54 141.49 391.43 142.59 391.42L147.91 391.35Z" fill="#2E2C2D"/>
<path d="M147.93 391.31C149.03 391.3 149.92 390.39 149.91 389.29L146.68 58.13C146.67 57.03 145.76 56.14 144.66 56.15L139.34 56.22C138.24 56.23 137.35 57.14 137.36 58.24L140.59 389.4C140.6 390.5 141.51 391.39 142.61 391.38L147.93 391.31Z" fill="#2E2C2D"/>
<path d="M147.95 391.28C149.05 391.27 149.94 390.36 149.93 389.26L146.7 58.1001C146.69 57.0001 145.78 56.1101 144.68 56.1201L139.36 56.1901C138.26 56.2001 137.37 57.1101 137.38 58.2101L140.61 389.37C140.62 390.47 141.53 391.36 142.63 391.35L147.95 391.28Z" fill="#2F2D2E"/>
<path d="M147.96 391.24C149.06 391.23 149.95 390.32 149.94 389.22L146.71 58.0601C146.7 56.9601 145.79 56.07 144.69 56.08L139.37 56.15C138.27 56.16 137.38 57.0701 137.39 58.1701L140.62 389.33C140.63 390.43 141.54 391.32 142.64 391.31L147.96 391.24Z" fill="#2F2D2E"/>
<path d="M147.98 391.21C149.08 391.2 149.97 390.29 149.96 389.19L146.73 58.03C146.72 56.93 145.81 56.04 144.71 56.05L139.39 56.12C138.29 56.13 137.4 57.04 137.41 58.14L140.64 389.3C140.65 390.4 141.56 391.29 142.66 391.28L147.98 391.21Z" fill="#302F30"/>
<path d="M148 391.17C149.1 391.16 149.99 390.25 149.98 389.15L146.75 57.9901C146.74 56.8901 145.83 56.0001 144.73 56.0101L139.41 56.0801C138.31 56.0901 137.42 57.0001 137.43 58.1001L140.66 389.26C140.67 390.36 141.58 391.25 142.68 391.24L148 391.17Z" fill="#302F30"/>
<path d="M148.02 391.13C149.12 391.12 150.01 390.21 150 389.11L146.77 57.9501C146.76 56.8501 145.85 55.9601 144.75 55.9701L139.43 56.0401C138.33 56.0501 137.44 56.9601 137.45 58.0601L140.68 389.22C140.69 390.32 141.6 391.21 142.7 391.2L148.02 391.13Z" fill="#313031"/>
<path d="M148.04 391.1C149.14 391.09 150.03 390.18 150.02 389.08L146.79 57.92C146.78 56.82 145.87 55.93 144.77 55.94L139.45 56.01C138.35 56.02 137.46 56.93 137.47 58.03L140.7 389.19C140.71 390.29 141.62 391.18 142.72 391.17L148.04 391.1Z" fill="#313031"/>
<path d="M148.06 391.06C149.16 391.05 150.05 390.14 150.04 389.04L146.81 57.88C146.8 56.78 145.89 55.89 144.79 55.9L139.47 55.97C138.37 55.98 137.48 56.89 137.49 57.99L140.72 389.15C140.73 390.25 141.64 391.14 142.74 391.13L148.06 391.06Z" fill="#313031"/>
<path d="M148.08 391.03C149.18 391.02 150.07 390.11 150.06 389.01L146.83 57.8501C146.82 56.7501 145.91 55.8601 144.81 55.8701L139.49 55.9401C138.39 55.9501 137.5 56.8601 137.51 57.9601L140.74 389.12C140.75 390.22 141.66 391.11 142.76 391.1L148.08 391.03Z" fill="#323132"/>
<path d="M148.09 390.99C149.19 390.98 150.08 390.07 150.07 388.97L146.84 57.8101C146.83 56.7101 145.92 55.82 144.82 55.83L139.5 55.9C138.4 55.91 137.51 56.8201 137.52 57.9201L140.75 389.08C140.76 390.18 141.67 391.07 142.77 391.06L148.09 390.99Z" fill="#323132"/>
<path d="M148.11 390.96C149.21 390.95 150.1 390.04 150.09 388.94L146.86 57.78C146.85 56.68 145.94 55.79 144.84 55.8L139.52 55.87C138.42 55.88 137.53 56.79 137.54 57.89L140.77 389.05C140.78 390.15 141.69 391.04 142.79 391.03L148.11 390.96Z" fill="#343233"/>
<path d="M148.13 390.92C149.23 390.91 150.12 390 150.11 388.9L146.88 57.7401C146.87 56.6401 145.96 55.7501 144.86 55.7601L139.54 55.8301C138.44 55.8401 137.55 56.7501 137.56 57.8501L140.79 389.01C140.8 390.11 141.71 391 142.81 390.99L148.13 390.92Z" fill="#343233"/>
<path d="M148.15 390.89C149.25 390.88 150.14 389.97 150.13 388.87L146.9 57.7101C146.89 56.6101 145.98 55.7201 144.88 55.7301L139.56 55.8001C138.46 55.8101 137.57 56.7201 137.58 57.8201L140.81 388.98C140.82 390.08 141.73 390.97 142.83 390.96L148.15 390.89Z" fill="#353435"/>
<path d="M148.17 390.85C149.27 390.84 150.16 389.93 150.15 388.83L146.92 57.67C146.91 56.57 146 55.68 144.9 55.69L139.58 55.76C138.48 55.77 137.59 56.68 137.6 57.78L140.83 388.94C140.84 390.04 141.75 390.93 142.85 390.92L148.17 390.85Z" fill="#353435"/>
<path d="M148.19 390.81C149.29 390.8 150.18 389.89 150.17 388.79L146.94 57.63C146.93 56.53 146.02 55.64 144.92 55.65L139.6 55.72C138.5 55.73 137.61 56.64 137.62 57.74L140.85 388.9C140.86 390 141.77 390.89 142.87 390.88L148.19 390.81Z" fill="#353435"/>
<path d="M148.21 390.78C149.31 390.77 150.2 389.86 150.19 388.76L146.96 57.6001C146.95 56.5001 146.04 55.6101 144.94 55.6201L139.62 55.6901C138.52 55.7001 137.63 56.6101 137.64 57.7101L140.87 388.87C140.88 389.97 141.79 390.86 142.89 390.85L148.21 390.78Z" fill="#363536"/>
<path d="M148.22 390.74C149.32 390.73 150.21 389.82 150.2 388.72L146.97 57.5601C146.96 56.4601 146.05 55.57 144.95 55.58L139.63 55.65C138.53 55.66 137.64 56.5701 137.65 57.6701L140.88 388.83C140.89 389.93 141.8 390.82 142.9 390.81L148.22 390.74Z" fill="#363536"/>
<path d="M148.24 390.71C149.34 390.7 150.23 389.79 150.22 388.69L146.99 57.53C146.98 56.43 146.07 55.54 144.97 55.55L139.65 55.62C138.55 55.63 137.66 56.54 137.67 57.64L140.9 388.8C140.91 389.9 141.82 390.79 142.92 390.78L148.24 390.71Z" fill="#373637"/>
<path d="M148.26 390.67C149.36 390.66 150.25 389.75 150.24 388.65L147.01 57.4901C147 56.3901 146.09 55.5001 144.99 55.5101L139.67 55.5801C138.57 55.5901 137.68 56.5001 137.69 57.6001L140.92 388.76C140.93 389.86 141.84 390.75 142.94 390.74L148.26 390.67Z" fill="#373637"/>
<path d="M148.28 390.64C149.38 390.63 150.27 389.72 150.26 388.62L147.03 57.4601C147.02 56.3601 146.11 55.4701 145.01 55.4801L139.69 55.5501C138.59 55.5601 137.7 56.4701 137.71 57.5701L140.94 388.73C140.95 389.83 141.86 390.72 142.96 390.71L148.28 390.64Z" fill="#383738"/>
<path d="M148.3 390.6C149.4 390.59 150.29 389.68 150.28 388.58L147.05 57.42C147.04 56.32 146.13 55.43 145.03 55.44L139.71 55.51C138.61 55.52 137.72 56.43 137.73 57.53L140.96 388.69C140.97 389.79 141.88 390.68 142.98 390.67L148.3 390.6Z" fill="#383738"/>
<path d="M148.32 390.56C149.42 390.55 150.31 389.64 150.3 388.54L147.07 57.38C147.06 56.28 146.15 55.39 145.05 55.4L139.73 55.47C138.63 55.48 137.74 56.39 137.75 57.49L140.98 388.65C140.99 389.75 141.9 390.64 143 390.63L148.32 390.56Z" fill="#383738"/>
<path d="M148.34 390.53C149.44 390.52 150.33 389.61 150.32 388.51L147.09 57.3501C147.08 56.2501 146.17 55.3601 145.07 55.3701L139.75 55.4401C138.65 55.4501 137.76 56.3601 137.77 57.4601L141 388.62C141.01 389.72 141.92 390.61 143.02 390.6L148.34 390.53Z" fill="#393839"/>
<path d="M148.35 390.49C149.45 390.48 150.34 389.57 150.33 388.47L147.1 57.3101C147.09 56.2101 146.18 55.32 145.08 55.33L139.76 55.4C138.66 55.41 137.77 56.3201 137.78 57.4201L141.01 388.58C141.02 389.68 141.93 390.57 143.03 390.56L148.35 390.49Z" fill="#393839"/>
<path d="M148.37 390.46C149.47 390.45 150.36 389.54 150.35 388.44L147.12 57.28C147.11 56.18 146.2 55.29 145.1 55.3L139.78 55.37C138.68 55.38 137.79 56.29 137.8 57.39L141.03 388.55C141.04 389.65 141.95 390.54 143.05 390.53L148.37 390.46Z" fill="#3A393B"/>
<path d="M148.39 390.42C149.49 390.41 150.38 389.5 150.37 388.4L147.14 57.2401C147.13 56.1401 146.22 55.2501 145.12 55.2601L139.8 55.3301C138.7 55.3401 137.81 56.2501 137.82 57.3501L141.05 388.51C141.06 389.61 141.97 390.5 143.07 390.49L148.39 390.42Z" fill="#3A393B"/>
<path d="M148.41 390.39C149.51 390.38 150.4 389.47 150.39 388.37L147.16 57.2101C147.15 56.1101 146.24 55.2201 145.14 55.2301L139.82 55.3001C138.72 55.3101 137.83 56.2201 137.84 57.3201L141.07 388.48C141.08 389.58 141.99 390.47 143.09 390.46L148.41 390.39Z" fill="#3B3A3C"/>
<path d="M148.43 390.35C149.53 390.34 150.42 389.43 150.41 388.33L147.18 57.17C147.17 56.07 146.26 55.18 145.16 55.19L139.84 55.26C138.74 55.27 137.85 56.18 137.86 57.28L141.09 388.44C141.1 389.54 142.01 390.43 143.11 390.42L148.43 390.35Z" fill="#3B3A3C"/>
<path d="M148.45 390.31C149.55 390.3 150.44 389.39 150.43 388.29L147.2 57.13C147.19 56.03 146.28 55.14 145.18 55.15L139.86 55.22C138.76 55.23 137.87 56.14 137.88 57.24L141.11 388.4C141.12 389.5 142.03 390.39 143.13 390.38L148.45 390.31Z" fill="#3B3A3C"/>
<path d="M148.47 390.28C149.57 390.27 150.46 389.36 150.45 388.26L147.22 57.1001C147.21 56.0001 146.3 55.1101 145.2 55.1201L139.88 55.1901C138.78 55.2001 137.89 56.1101 137.9 57.2101L141.13 388.37C141.14 389.47 142.05 390.36 143.15 390.35L148.47 390.28Z" fill="#3C3C3D"/>
<path d="M148.48 390.24C149.58 390.23 150.47 389.32 150.46 388.22L147.23 57.0601C147.22 55.9601 146.31 55.07 145.21 55.08L139.89 55.15C138.79 55.16 137.9 56.0701 137.91 57.1701L141.14 388.33C141.15 389.43 142.06 390.32 143.16 390.31L148.48 390.24Z" fill="#3C3C3D"/>
<path d="M148.5 390.21C149.6 390.2 150.49 389.29 150.48 388.19L147.25 57.03C147.24 55.93 146.33 55.04 145.23 55.05L139.91 55.12C138.81 55.13 137.92 56.04 137.93 57.14L141.16 388.3C141.17 389.4 142.08 390.29 143.18 390.28L148.5 390.21Z" fill="#3D3D3E"/>
<path d="M148.52 390.17C149.62 390.16 150.51 389.25 150.5 388.15L147.27 56.9901C147.26 55.8901 146.35 55.0001 145.25 55.0101L139.93 55.0801C138.83 55.0901 137.94 56.0001 137.95 57.1001L141.18 388.26C141.19 389.36 142.1 390.25 143.2 390.24L148.52 390.17Z" fill="#3D3D3E"/>
<path d="M148.54 390.14C149.64 390.13 150.53 389.22 150.52 388.12L147.29 56.9601C147.28 55.8601 146.37 54.9701 145.27 54.9801L139.95 55.0501C138.85 55.0601 137.96 55.9701 137.97 57.0701L141.2 388.23C141.21 389.33 142.12 390.22 143.22 390.21L148.54 390.14Z" fill="#3E3E3F"/>
<path d="M148.56 390.1C149.66 390.09 150.55 389.18 150.54 388.08L147.31 56.92C147.3 55.82 146.39 54.93 145.29 54.94L139.97 55.01C138.87 55.02 137.98 55.93 137.99 57.03L141.22 388.19C141.23 389.29 142.14 390.18 143.24 390.17L148.56 390.1Z" fill="#3E3E3F"/>
<path d="M148.58 390.07C149.68 390.06 150.57 389.15 150.56 388.05L147.33 56.89C147.32 55.79 146.41 54.9 145.31 54.91L139.99 54.98C138.89 54.99 138 55.9 138.01 57L141.24 388.16C141.25 389.26 142.16 390.15 143.26 390.14L148.58 390.07Z" fill="#3E3E3F"/>
<path d="M148.6 390.03C149.7 390.02 150.59 389.11 150.58 388.01L147.35 56.8501C147.34 55.7501 146.43 54.8601 145.33 54.8701L140.01 54.9401C138.91 54.9501 138.02 55.8601 138.03 56.9601L141.26 388.12C141.27 389.22 142.18 390.11 143.28 390.1L148.6 390.03Z" fill="#3F3F40"/>
<path d="M148.62 389.99C149.72 389.98 150.61 389.07 150.6 387.97L147.37 56.8101C147.36 55.7101 146.45 54.82 145.35 54.83L140.03 54.9C138.93 54.91 138.04 55.8201 138.05 56.9201L141.28 388.08C141.29 389.18 142.2 390.07 143.3 390.06L148.62 389.99Z" fill="#3F3F40"/>
<path d="M148.63 389.96C149.73 389.95 150.62 389.04 150.61 387.94L147.38 56.78C147.37 55.68 146.46 54.79 145.36 54.8L140.04 54.87C138.94 54.88 138.05 55.79 138.06 56.89L141.29 388.05C141.3 389.15 142.21 390.04 143.31 390.03L148.63 389.96Z" fill="#404041"/>
<path d="M148.65 389.92C149.75 389.91 150.64 389 150.63 387.9L147.4 56.7401C147.39 55.6401 146.48 54.7501 145.38 54.7601L140.06 54.8301C138.96 54.8401 138.07 55.7501 138.08 56.8501L141.31 388.01C141.32 389.11 142.23 390 143.33 389.99L148.65 389.92Z" fill="#404041"/>
<path d="M148.67 389.89C149.77 389.88 150.66 388.97 150.65 387.87L147.42 56.7101C147.41 55.6101 146.5 54.7201 145.4 54.7301L140.08 54.8001C138.98 54.8101 138.09 55.7201 138.1 56.8201L141.33 387.98C141.34 389.08 142.25 389.97 143.35 389.96L148.67 389.89Z" fill="#414142"/>
<path d="M148.69 389.85C149.79 389.84 150.68 388.93 150.67 387.83L147.44 56.67C147.43 55.57 146.52 54.68 145.42 54.69L140.1 54.76C139 54.77 138.11 55.68 138.12 56.78L141.35 387.94C141.36 389.04 142.27 389.93 143.37 389.92L148.69 389.85Z" fill="#414142"/>
<path d="M148.71 389.82C149.81 389.81 150.7 388.9 150.69 387.8L147.46 56.64C147.45 55.54 146.54 54.65 145.44 54.66L140.12 54.73C139.02 54.74 138.13 55.65 138.14 56.75L141.37 387.91C141.38 389.01 142.29 389.9 143.39 389.89L148.71 389.82Z" fill="#414142"/>
<path d="M148.73 389.78C149.83 389.77 150.72 388.86 150.71 387.76L147.48 56.6001C147.47 55.5001 146.56 54.6101 145.46 54.6201L140.14 54.6901C139.04 54.7001 138.15 55.6101 138.16 56.7101L141.39 387.87C141.4 388.97 142.31 389.86 143.41 389.85L148.73 389.78Z" fill="#424243"/>
<path d="M148.75 389.74C149.85 389.73 150.74 388.82 150.73 387.72L147.5 56.5601C147.49 55.4601 146.58 54.57 145.48 54.58L140.16 54.65C139.06 54.66 138.17 55.5701 138.18 56.6701L141.41 387.83C141.42 388.93 142.33 389.82 143.43 389.81L148.75 389.74Z" fill="#424243"/>
<path d="M148.76 389.71C149.86 389.7 150.75 388.79 150.74 387.69L147.51 56.53C147.5 55.43 146.59 54.54 145.49 54.55L140.17 54.62C139.07 54.63 138.18 55.54 138.19 56.64L141.42 387.8C141.43 388.9 142.34 389.79 143.44 389.78L148.76 389.71Z" fill="#434344"/>
<path d="M148.78 389.67C149.88 389.66 150.77 388.75 150.76 387.65L147.53 56.4901C147.52 55.3901 146.61 54.5001 145.51 54.5101L140.19 54.5801C139.09 54.5901 138.2 55.5001 138.21 56.6001L141.44 387.76C141.45 388.86 142.36 389.75 143.46 389.74L148.78 389.67Z" fill="#434344"/>
<path d="M148.8 389.64C149.9 389.63 150.79 388.72 150.78 387.62L147.55 56.4601C147.54 55.3601 146.63 54.4701 145.53 54.4801L140.21 54.5501C139.11 54.5601 138.22 55.4701 138.23 56.5701L141.46 387.73C141.47 388.83 142.38 389.72 143.48 389.71L148.8 389.64Z" fill="#444445"/>
<path d="M148.82 389.6C149.92 389.59 150.81 388.68 150.8 387.58L147.57 56.42C147.56 55.32 146.65 54.43 145.55 54.44L140.23 54.51C139.13 54.52 138.24 55.43 138.25 56.53L141.48 387.69C141.49 388.79 142.4 389.68 143.5 389.67L148.82 389.6Z" fill="#444445"/>
<path d="M148.84 389.57C149.94 389.56 150.83 388.65 150.82 387.55L147.59 56.39C147.58 55.29 146.67 54.4 145.57 54.41L140.25 54.48C139.15 54.49 138.26 55.4 138.27 56.5L141.5 387.66C141.51 388.76 142.42 389.65 143.52 389.64L148.84 389.57Z" fill="#454546"/>
<path d="M148.86 389.53C149.96 389.52 150.85 388.61 150.84 387.51L147.61 56.3501C147.6 55.2501 146.69 54.3601 145.59 54.3701L140.27 54.4401C139.17 54.4501 138.28 55.3601 138.29 56.4601L141.52 387.62C141.53 388.72 142.44 389.61 143.54 389.6L148.86 389.53Z" fill="#454546"/>
<path d="M148.88 389.49C149.98 389.48 150.87 388.57 150.86 387.47L147.63 56.3101C147.62 55.2101 146.71 54.32 145.61 54.33L140.29 54.4C139.19 54.41 138.3 55.3201 138.31 56.4201L141.54 387.58C141.55 388.68 142.46 389.57 143.56 389.56L148.88 389.49Z" fill="#454546"/>
<path d="M148.89 389.46C149.99 389.45 150.88 388.54 150.87 387.44L147.64 56.28C147.63 55.18 146.72 54.29 145.62 54.3L140.3 54.37C139.2 54.38 138.31 55.29 138.32 56.39L141.55 387.55C141.56 388.65 142.47 389.54 143.57 389.53L148.89 389.46Z" fill="#464647"/>
<path d="M148.91 389.42C150.01 389.41 150.9 388.5 150.89 387.4L147.66 56.2401C147.65 55.1401 146.74 54.2501 145.64 54.2601L140.32 54.3301C139.22 54.3401 138.33 55.2501 138.34 56.3501L141.57 387.51C141.58 388.61 142.49 389.5 143.59 389.49L148.91 389.42Z" fill="#464647"/>
<path d="M148.93 389.39C150.03 389.38 150.92 388.47 150.91 387.37L147.68 56.2101C147.67 55.1101 146.76 54.2201 145.66 54.2301L140.34 54.3001C139.24 54.3101 138.35 55.2201 138.36 56.3201L141.59 387.48C141.6 388.58 142.51 389.47 143.61 389.46L148.93 389.39Z" fill="#474748"/>
<path d="M148.95 389.35C150.05 389.34 150.94 388.43 150.93 387.33L147.7 56.17C147.69 55.07 146.78 54.18 145.68 54.19L140.36 54.26C139.26 54.27 138.37 55.18 138.38 56.28L141.61 387.44C141.62 388.54 142.53 389.43 143.63 389.42L148.95 389.35Z" fill="#474748"/>
<path d="M148.97 389.32C150.07 389.31 150.96 388.4 150.95 387.3L147.72 56.14C147.71 55.04 146.8 54.15 145.7 54.16L140.38 54.23C139.28 54.24 138.39 55.15 138.4 56.25L141.63 387.41C141.64 388.51 142.55 389.4 143.65 389.39L148.97 389.32Z" fill="#484749"/>
<path d="M148.99 389.28C150.09 389.27 150.98 388.36 150.97 387.26L147.74 56.1001C147.73 55.0001 146.82 54.1101 145.72 54.1201L140.4 54.1901C139.3 54.2001 138.41 55.1101 138.42 56.2101L141.65 387.37C141.66 388.47 142.57 389.36 143.67 389.35L148.99 389.28Z" fill="#484749"/>
<path d="M149.01 389.25C150.11 389.24 151 388.33 150.99 387.23L147.76 56.07C147.75 54.97 146.84 54.08 145.74 54.09L140.42 54.16C139.32 54.17 138.43 55.08 138.44 56.18L141.67 387.34C141.68 388.44 142.59 389.33 143.69 389.32L149.01 389.25Z" fill="#484749"/>
<path d="M149.02 389.21C150.12 389.2 151.01 388.29 151 387.19L147.77 56.03C147.76 54.93 146.85 54.04 145.75 54.05L140.43 54.12C139.33 54.13 138.44 55.04 138.45 56.14L141.68 387.3C141.69 388.4 142.6 389.29 143.7 389.28L149.02 389.21Z" fill="#48484A"/>
<path d="M149.04 389.17C150.14 389.16 151.03 388.25 151.02 387.15L147.79 55.9901C147.78 54.8901 146.87 54.0001 145.77 54.0101L140.45 54.0801C139.35 54.0901 138.46 55.0001 138.47 56.1001L141.7 387.26C141.71 388.36 142.62 389.25 143.72 389.24L149.04 389.17Z" fill="#48484A"/>
<path d="M149.06 389.14C150.16 389.13 151.05 388.22 151.04 387.12L147.81 55.9601C147.8 54.8601 146.89 53.9701 145.79 53.9801L140.47 54.0501C139.37 54.0601 138.48 54.9701 138.49 56.0701L141.72 387.23C141.73 388.33 142.64 389.22 143.74 389.21L149.06 389.14Z" fill="#49494B"/>
<path d="M149.08 389.1C150.18 389.09 151.07 388.18 151.06 387.08L147.83 55.92C147.82 54.82 146.91 53.93 145.81 53.94L140.49 54.01C139.39 54.02 138.5 54.93 138.51 56.03L141.74 387.19C141.75 388.29 142.66 389.18 143.76 389.17L149.08 389.1Z" fill="#49494B"/>
<path d="M149.1 389.07C150.2 389.06 151.09 388.15 151.08 387.05L147.85 55.89C147.84 54.79 146.93 53.9 145.83 53.91L140.51 53.98C139.41 53.99 138.52 54.9 138.53 56L141.76 387.16C141.77 388.26 142.68 389.15 143.78 389.14L149.1 389.07Z" fill="#4A4A4C"/>
<path d="M149.12 389.03C150.22 389.02 151.11 388.11 151.1 387.01L147.87 55.8501C147.86 54.7501 146.95 53.8601 145.85 53.8701L140.53 53.9401C139.43 53.9501 138.54 54.8601 138.55 55.9601L141.78 387.12C141.79 388.22 142.7 389.11 143.8 389.1L149.12 389.03Z" fill="#4A4A4C"/>
<path d="M149.14 389C150.24 388.99 151.13 388.08 151.12 386.98L147.89 55.82C147.88 54.72 146.97 53.83 145.87 53.84L140.55 53.91C139.45 53.92 138.56 54.83 138.57 55.93L141.8 387.09C141.81 388.19 142.72 389.08 143.82 389.07L149.14 389Z" fill="#4A4A4C"/>
<path d="M149.15 388.96C150.25 388.95 151.14 388.04 151.13 386.94L147.9 55.78C147.89 54.68 146.98 53.79 145.88 53.8L140.56 53.87C139.46 53.88 138.57 54.79 138.58 55.89L141.81 387.05C141.82 388.15 142.73 389.04 143.83 389.03L149.15 388.96Z" fill="#4B4B4D"/>
<path d="M149.17 388.92C150.27 388.91 151.16 388 151.15 386.9L147.92 55.7401C147.91 54.6401 147 53.7501 145.9 53.7601L140.58 53.8301C139.48 53.8401 138.59 54.7501 138.6 55.8501L141.83 387.01C141.84 388.11 142.75 389 143.85 388.99L149.17 388.92Z" fill="#4B4B4D"/>
<path d="M149.19 388.89C150.29 388.88 151.18 387.97 151.17 386.87L147.94 55.7101C147.93 54.6101 147.02 53.7201 145.92 53.7301L140.6 53.8001C139.5 53.8101 138.61 54.7201 138.62 55.8201L141.85 386.98C141.86 388.08 142.77 388.97 143.87 388.96L149.19 388.89Z" fill="#4C4C4E"/>
<path d="M149.21 388.85C150.31 388.84 151.2 387.93 151.19 386.83L147.96 55.67C147.95 54.57 147.04 53.68 145.94 53.69L140.62 53.76C139.52 53.77 138.63 54.68 138.64 55.78L141.87 386.94C141.88 388.04 142.79 388.93 143.89 388.92L149.21 388.85Z" fill="#4C4C4E"/>
<path d="M149.23 388.82C150.33 388.81 151.22 387.9 151.21 386.8L147.98 55.64C147.97 54.54 147.06 53.65 145.96 53.66L140.64 53.73C139.54 53.74 138.65 54.65 138.66 55.75L141.89 386.91C141.9 388.01 142.81 388.9 143.91 388.89L149.23 388.82Z" fill="#4D4D4F"/>
<path d="M149.25 388.78C150.35 388.77 151.24 387.86 151.23 386.76L148 55.6001C147.99 54.5001 147.08 53.6101 145.98 53.6201L140.66 53.6901C139.56 53.7001 138.67 54.6101 138.68 55.7101L141.91 386.87C141.92 387.97 142.83 388.86 143.93 388.85L149.25 388.78Z" fill="#4D4D4F"/>
<path d="M149.27 388.75C150.37 388.74 151.26 387.83 151.25 386.73L148.02 55.57C148.01 54.47 147.1 53.58 146 53.59L140.68 53.66C139.58 53.67 138.69 54.58 138.7 55.68L141.93 386.84C141.94 387.94 142.85 388.83 143.95 388.82L149.27 388.75Z" fill="#4D4D4F"/>
<path d="M149.28 388.71C150.38 388.7 151.27 387.79 151.26 386.69L148.03 55.53C148.02 54.43 147.11 53.54 146.01 53.55L140.69 53.62C139.59 53.63 138.7 54.54 138.71 55.64L141.94 386.8C141.95 387.9 142.86 388.79 143.96 388.78L149.28 388.71Z" fill="#4E4E50"/>
<path d="M149.3 388.67C150.4 388.66 151.29 387.75 151.28 386.65L148.05 55.4901C148.04 54.3901 147.13 53.5001 146.03 53.5101L140.71 53.5801C139.61 53.5901 138.72 54.5001 138.73 55.6001L141.96 386.76C141.97 387.86 142.88 388.75 143.98 388.74L149.3 388.67Z" fill="#4E4E50"/>
<path d="M149.32 388.64C150.42 388.63 151.31 387.72 151.3 386.62L148.07 55.4601C148.06 54.3601 147.15 53.4701 146.05 53.4801L140.73 53.5501C139.63 53.5601 138.74 54.4701 138.75 55.5701L141.98 386.73C141.99 387.83 142.9 388.72 144 388.71L149.32 388.64Z" fill="#4F4F51"/>
<path d="M149.34 388.6C150.44 388.59 151.33 387.68 151.32 386.58L148.09 55.42C148.08 54.32 147.17 53.43 146.07 53.44L140.75 53.51C139.65 53.52 138.76 54.43 138.77 55.53L142 386.69C142.01 387.79 142.92 388.68 144.02 388.67L149.34 388.6Z" fill="#4F4F51"/>
<path d="M149.36 388.57C150.46 388.56 151.35 387.65 151.34 386.55L148.11 55.39C148.1 54.29 147.19 53.4 146.09 53.41L140.77 53.48C139.67 53.49 138.78 54.4 138.79 55.5L142.02 386.66C142.03 387.76 142.94 388.65 144.04 388.64L149.36 388.57Z" fill="#505052"/>
<path d="M149.38 388.53C150.48 388.52 151.37 387.61 151.36 386.51L148.13 55.3501C148.12 54.2501 147.21 53.3601 146.11 53.3701L140.79 53.4401C139.69 53.4501 138.8 54.3601 138.81 55.4601L142.04 386.62C142.05 387.72 142.96 388.61 144.06 388.6L149.38 388.53Z" fill="#505052"/>
<path d="M149.4 388.5C150.5 388.49 151.39 387.58 151.38 386.48L148.15 55.32C148.14 54.22 147.23 53.33 146.13 53.34L140.81 53.41C139.71 53.42 138.82 54.33 138.83 55.43L142.06 386.59C142.07 387.69 142.98 388.58 144.08 388.57L149.4 388.5Z" fill="#505052"/>
<path d="M149.42 388.46C150.52 388.45 151.41 387.54 151.4 386.44L148.17 55.28C148.16 54.18 147.25 53.29 146.15 53.3L140.83 53.37C139.73 53.38 138.84 54.29 138.85 55.39L142.08 386.55C142.09 387.65 143 388.54 144.1 388.53L149.42 388.46Z" fill="#505152"/>
<path d="M149.43 388.43C150.53 388.42 151.42 387.51 151.41 386.41L148.18 55.2501C148.17 54.1501 147.26 53.2601 146.16 53.2701L140.84 53.3401C139.74 53.3501 138.85 54.2601 138.86 55.3601L142.09 386.52C142.1 387.62 143.01 388.51 144.11 388.5L149.43 388.43Z" fill="#505152"/>
<path d="M149.45 388.39C150.55 388.38 151.44 387.47 151.43 386.37L148.2 55.2101C148.19 54.1101 147.28 53.2201 146.18 53.2301L140.86 53.3001C139.76 53.3101 138.87 54.2201 138.88 55.3201L142.11 386.48C142.12 387.58 143.03 388.47 144.13 388.46L149.45 388.39Z" fill="#515153"/>
<path d="M149.47 388.35C150.57 388.34 151.46 387.43 151.45 386.33L148.22 55.17C148.21 54.07 147.3 53.18 146.2 53.19L140.88 53.26C139.78 53.27 138.89 54.18 138.9 55.28L142.13 386.44C142.14 387.54 143.05 388.43 144.15 388.42L149.47 388.35Z" fill="#515153"/>
<path d="M149.49 388.32C150.59 388.31 151.48 387.4 151.47 386.3L148.24 55.14C148.23 54.04 147.32 53.15 146.22 53.16L140.9 53.23C139.8 53.24 138.91 54.15 138.92 55.25L142.15 386.41C142.16 387.51 143.07 388.4 144.17 388.39L149.49 388.32Z" fill="#525254"/>
<path d="M149.51 388.28C150.61 388.27 151.5 387.36 151.49 386.26L148.26 55.1001C148.25 54.0001 147.34 53.1101 146.24 53.1201L140.92 53.1901C139.82 53.2001 138.93 54.1101 138.94 55.2101L142.17 386.37C142.18 387.47 143.09 388.36 144.19 388.35L149.51 388.28Z" fill="#525254"/>
<path d="M99.7499 414.28C128.237 414.28 151.33 391.187 151.33 362.7C151.33 334.213 128.237 311.12 99.7499 311.12C71.2631 311.12 48.1699 334.213 48.1699 362.7C48.1699 391.187 71.2631 414.28 99.7499 414.28Z" fill="#2A2929"/>
<path d="M99.75 405.45C76.18 405.45 57 386.27 57 362.7C57 339.13 76.18 319.95 99.75 319.95C123.32 319.95 142.5 339.13 142.5 362.7C142.5 386.27 123.32 405.45 99.75 405.45Z" fill="url(#paint0_radial_567_940)"/>
<path d="M99.7502 400.6C80.4502 400.6 64.7603 384.9 64.7603 365.6C64.7603 346.3 80.4602 330.6 99.7502 330.6C119.04 330.6 134.75 346.3 134.75 365.6C134.75 384.9 119.05 400.6 99.7502 400.6Z" fill="#2A2929"/>
<path d="M131.26 457.44H68.2498C65.0398 457.44 62.2098 455.34 61.2798 452.27L48.3798 409.71C48.1698 409.03 48.0698 408.31 48.0698 407.6V366.64H151.44V407.6C151.44 408.32 151.33 409.03 151.13 409.71L138.23 452.27C137.3 455.34 134.47 457.44 131.26 457.44Z" fill="#B91F26"/>
<path d="M56.4602 435.84L48.2002 408.94L66.0802 366.84H86.4102L56.4602 435.84Z" fill="white"/>
<path d="M87.0901 457.34H67.3901L105.39 366.84H125.72L87.0901 457.34Z" fill="white"/>
<path d="M128.24 457.34H106.92L143.67 366.61L151.43 366.65L151.27 396L128.24 457.34Z" fill="white"/>
<path d="M165.61 504.3C159.63 490.35 141.37 488.36 141.37 488.36C152 500.31 145.69 519.91 131.74 520.24C117.79 520.57 113.81 511.61 113.81 511.61L117.46 457.15H99.86V457.26L82.03 457.08L85.68 511.54C85.68 511.54 81.69 520.51 67.75 520.17C53.8 519.84 47.49 500.25 58.12 488.29C58.12 488.29 39.8601 490.28 33.8801 504.23C27.9001 518.18 31.22 542.42 57.12 545.07C83.02 547.73 99.7601 547.18 99.7601 547.18V547.07C99.7601 547.07 116.46 547.79 142.36 545.14C168.26 542.48 171.58 518.24 165.6 504.3H165.61Z" fill="#2A2929"/>
<path d="M140.43 492.05L115.96 479.59L116.34 473.24L140.82 486.6L140.43 492.05Z" fill="url(#paint1_linear_567_940)"/>
<path d="M58.9899 491.19L83.4599 478.74L83.0799 472.39L58.6099 485.75L58.9899 491.19Z" fill="url(#paint2_linear_567_940)"/>
<path d="M196.05 1.71008H3.03C1.35658 1.71008 0 3.06666 0 4.74008V64.7301C0 66.4035 1.35658 67.7601 3.03 67.7601H196.05C197.723 67.7601 199.08 66.4035 199.08 64.7301V4.74008C199.08 3.06666 197.723 1.71008 196.05 1.71008Z" fill="#2A2929"/>
<path d="M196.08 1.69006H3.04004C1.37214 1.69006 0.0200195 3.04216 0.0200195 4.71006V64.7201C0.0200195 66.388 1.37214 67.7401 3.04004 67.7401H196.08C197.748 67.7401 199.1 66.388 199.1 64.7201V4.71006C199.1 3.04216 197.748 1.69006 196.08 1.69006Z" fill="#2A2929"/>
<path d="M196.1 1.67004H3.04028C1.37791 1.67004 0.0302734 3.01767 0.0302734 4.68005V64.71C0.0302734 66.3724 1.37791 67.72 3.04028 67.72H196.1C197.763 67.72 199.11 66.3724 199.11 64.71V4.68005C199.11 3.01767 197.763 1.67004 196.1 1.67004Z" fill="#2A2929"/>
<path d="M196.12 1.65002H3.0603C1.39793 1.65002 0.050293 2.99765 0.050293 4.66003V64.69C0.050293 66.3524 1.39793 67.7 3.0603 67.7H196.12C197.783 67.7 199.13 66.3524 199.13 64.69V4.66003C199.13 2.99765 197.783 1.65002 196.12 1.65002Z" fill="#2A2A2A"/>
<path d="M196.15 1.64001H3.06982C1.41297 1.64001 0.0698242 2.98316 0.0698242 4.64001V64.69C0.0698242 66.3469 1.41297 67.69 3.06982 67.69H196.15C197.807 67.69 199.15 66.3469 199.15 64.69V4.64001C199.15 2.98316 197.807 1.64001 196.15 1.64001Z" fill="#2A2A2A"/>
<path d="M196.17 1.62H3.0701C1.41877 1.62 0.0800781 2.95866 0.0800781 4.60999V64.68C0.0800781 66.3313 1.41877 67.67 3.0701 67.67H196.17C197.821 67.67 199.16 66.3313 199.16 64.68V4.60999C199.16 2.95866 197.821 1.62 196.17 1.62Z" fill="#2A2A2A"/>
<path d="M196.2 1.6001H3.08008C1.43427 1.6001 0.100098 2.93429 0.100098 4.5801V64.6701C0.100098 66.3159 1.43427 67.6501 3.08008 67.6501H196.2C197.846 67.6501 199.18 66.3159 199.18 64.6701V4.5801C199.18 2.93429 197.846 1.6001 196.2 1.6001Z" fill="#2A2A2A"/>
<path d="M196.21 1.59009H3.08987C1.44407 1.59009 0.109863 2.92428 0.109863 4.57008V64.6601C0.109863 66.3059 1.44407 67.6401 3.08987 67.6401H196.21C197.856 67.6401 199.19 66.3059 199.19 64.6601V4.57008C199.19 2.92428 197.856 1.59009 196.21 1.59009Z" fill="#2A2A2A"/>
<path d="M196.24 1.57007H3.09988C1.4596 1.57007 0.129883 2.89978 0.129883 4.54007V64.6501C0.129883 66.2904 1.4596 67.6201 3.09988 67.6201H196.24C197.88 67.6201 199.21 66.2904 199.21 64.6501V4.54007C199.21 2.89978 197.88 1.57007 196.24 1.57007Z" fill="#2A2A2A"/>
<path d="M196.26 1.55005H3.10016C1.4654 1.55005 0.140137 2.87529 0.140137 4.51005V64.6401C0.140137 66.2748 1.4654 67.6 3.10016 67.6H196.26C197.895 67.6 199.22 66.2748 199.22 64.6401V4.51005C199.22 2.87529 197.895 1.55005 196.26 1.55005Z" fill="#2A2A2A"/>
<path d="M196.29 1.54004H3.11014C1.4809 1.54004 0.160156 2.8608 0.160156 4.49004V64.64C0.160156 66.2693 1.4809 67.59 3.11014 67.59H196.29C197.919 67.59 199.24 66.2693 199.24 64.64V4.49004C199.24 2.8608 197.919 1.54004 196.29 1.54004Z" fill="#2B2B2B"/>
<path d="M196.3 1.52002H3.11993C1.49069 1.52002 0.169922 2.84078 0.169922 4.47002V64.62C0.169922 66.2493 1.49069 67.57 3.11993 67.57H196.3C197.929 67.57 199.25 66.2493 199.25 64.62V4.47002C199.25 2.84078 197.929 1.52002 196.3 1.52002Z" fill="#2B2B2B"/>
<path d="M196.33 1.5H3.12994C1.50623 1.5 0.189941 2.81629 0.189941 4.44V64.61C0.189941 66.2337 1.50623 67.55 3.12994 67.55H196.33C197.954 67.55 199.27 66.2337 199.27 64.61V4.44C199.27 2.81629 197.954 1.5 196.33 1.5Z" fill="#2B2B2B"/>
<path d="M196.35 1.48999H3.13019C1.51199 1.48999 0.200195 2.8018 0.200195 4.41999V64.61C0.200195 66.2282 1.51199 67.54 3.13019 67.54H196.35C197.968 67.54 199.28 66.2282 199.28 64.61V4.41999C199.28 2.8018 197.968 1.48999 196.35 1.48999Z" fill="#2B2B2B"/>
<path d="M196.38 1.47009H3.1402C1.52753 1.47009 0.220215 2.77742 0.220215 4.39009V64.6001C0.220215 66.2128 1.52753 67.5201 3.1402 67.5201H196.38C197.993 67.5201 199.3 66.2128 199.3 64.6001V4.39009C199.3 2.77742 197.993 1.47009 196.38 1.47009Z" fill="#2B2B2B"/>
<path d="M196.4 1.45007H3.16025C1.54758 1.45007 0.240234 2.7574 0.240234 4.37007V64.5801C0.240234 66.1927 1.54758 67.5001 3.16025 67.5001H196.4C198.013 67.5001 199.32 66.1927 199.32 64.5801V4.37007C199.32 2.7574 198.013 1.45007 196.4 1.45007Z" fill="#2B2B2B"/>
<path d="M196.42 1.43005H3.16C1.55286 1.43005 0.25 2.73291 0.25 4.34006V64.5701C0.25 66.1772 1.55286 67.4801 3.16 67.4801H196.42C198.027 67.4801 199.33 66.1772 199.33 64.5701V4.34006C199.33 2.73291 198.027 1.43005 196.42 1.43005Z" fill="#2B2B2B"/>
<path d="M196.45 1.42004H3.17001C1.56839 1.42004 0.27002 2.71842 0.27002 4.32005V64.57C0.27002 66.1717 1.56839 67.47 3.17001 67.47H196.45C198.052 67.47 199.35 66.1717 199.35 64.57V4.32005C199.35 2.71842 198.052 1.42004 196.45 1.42004Z" fill="#2B2B2B"/>
<path d="M196.47 1.40002H3.17026C1.57415 1.40002 0.280273 2.69392 0.280273 4.29002V64.56C0.280273 66.1561 1.57415 67.45 3.17026 67.45H196.47C198.066 67.45 199.36 66.1561 199.36 64.56V4.29002C199.36 2.69392 198.066 1.40002 196.47 1.40002Z" fill="#2B2B2B"/>
<path d="M196.49 1.38H3.19031C1.5942 1.38 0.300293 2.67391 0.300293 4.27001V64.54C0.300293 66.1361 1.5942 67.43 3.19031 67.43H196.49C198.086 67.43 199.38 66.1361 199.38 64.54V4.27001C199.38 2.67391 198.086 1.38 196.49 1.38Z" fill="#2B2B2B"/>
<path d="M196.51 1.37H3.19006C1.59948 1.37 0.310059 2.65941 0.310059 4.24999V64.54C0.310059 66.1306 1.59948 67.42 3.19006 67.42H196.51C198.101 67.42 199.39 66.1306 199.39 64.54V4.24999C199.39 2.65941 198.101 1.37 196.51 1.37Z" fill="#2B2B2B"/>
<path d="M196.54 1.3501H3.2001C1.61505 1.3501 0.330078 2.63504 0.330078 4.2201V64.5301C0.330078 66.1152 1.61505 67.4001 3.2001 67.4001H196.54C198.125 67.4001 199.41 66.1152 199.41 64.5301V4.2201C199.41 2.63504 198.125 1.3501 196.54 1.3501Z" fill="#2C2C2C"/>
<path d="M196.56 1.33008H3.19986C1.62033 1.33008 0.339844 2.61054 0.339844 4.19008V64.5201C0.339844 66.0996 1.62033 67.3801 3.19986 67.3801H196.56C198.139 67.3801 199.42 66.0996 199.42 64.5201V4.19008C199.42 2.61054 198.139 1.33008 196.56 1.33008Z" fill="#2C2C2C"/>
<path d="M196.58 1.32007H3.21988C1.64034 1.32007 0.359863 2.60053 0.359863 4.18007V64.5101C0.359863 66.0896 1.64034 67.3701 3.21988 67.3701H196.58C198.159 67.3701 199.44 66.0896 199.44 64.5101V4.18007C199.44 2.60053 198.159 1.32007 196.58 1.32007Z" fill="#2C2C2C"/>
<path d="M196.61 1.30005H3.22989C1.65588 1.30005 0.379883 2.57604 0.379883 4.15005V64.5001C0.379883 66.0741 1.65588 67.35 3.22989 67.35H196.61C198.184 67.35 199.46 66.0741 199.46 64.5001V4.15005C199.46 2.57604 198.184 1.30005 196.61 1.30005Z" fill="#2C2C2C"/>
<path d="M196.63 1.28003H3.23016C1.66167 1.28003 0.390137 2.55154 0.390137 4.12003V64.49C0.390137 66.0585 1.66167 67.33 3.23016 67.33H196.63C198.199 67.33 199.47 66.0585 199.47 64.49V4.12003C199.47 2.55154 198.199 1.28003 196.63 1.28003Z" fill="#2C2C2C"/>
<path d="M196.66 1.27002H3.24014C1.67718 1.27002 0.410156 2.53705 0.410156 4.10001V64.49C0.410156 66.053 1.67718 67.32 3.24014 67.32H196.66C198.223 67.32 199.49 66.053 199.49 64.49V4.10001C199.49 2.53705 198.223 1.27002 196.66 1.27002Z" fill="#2C2C2C"/>
<path d="M196.67 1.25H3.24994C1.68697 1.25 0.419922 2.51704 0.419922 4.08V64.47C0.419922 66.033 1.68697 67.3 3.24994 67.3H196.67C198.233 67.3 199.5 66.033 199.5 64.47V4.08C199.5 2.51704 198.233 1.25 196.67 1.25Z" fill="#2C2C2C"/>
<path d="M196.7 1.22998H3.25995C1.70251 1.22998 0.439941 2.49254 0.439941 4.04998V64.46C0.439941 66.0174 1.70251 67.28 3.25995 67.28H196.7C198.257 67.28 199.52 66.0174 199.52 64.46V4.04998C199.52 2.49254 198.257 1.22998 196.7 1.22998Z" fill="#2D2C2C"/>
<path d="M196.72 1.21008H3.26019C1.70827 1.21008 0.450195 2.46817 0.450195 4.02009V64.4501C0.450195 66.002 1.70827 67.2601 3.26019 67.2601H196.72C198.272 67.2601 199.53 66.002 199.53 64.4501V4.02009C199.53 2.46817 198.272 1.21008 196.72 1.21008Z" fill="#2D2C2C"/>
<path d="M196.75 1.20007H3.2702C1.72381 1.20007 0.470215 2.45367 0.470215 4.00007V64.4501C0.470215 65.9965 1.72381 67.2501 3.2702 67.2501H196.75C198.297 67.2501 199.55 65.9965 199.55 64.4501V4.00007C199.55 2.45367 198.297 1.20007 196.75 1.20007Z" fill="#2D2C2C"/>
<path d="M196.76 1.18005H3.27997C1.73357 1.18005 0.47998 2.43366 0.47998 3.98006V64.4301C0.47998 65.9764 1.73357 67.2301 3.27997 67.2301H196.76C198.306 67.2301 199.56 65.9764 199.56 64.4301V3.98006C199.56 2.43366 198.306 1.18005 196.76 1.18005Z" fill="#2D2D2D"/>
<path d="M196.79 1.16003H3.29001C1.74913 1.16003 0.5 2.40916 0.5 3.95004V64.42C0.5 65.9609 1.74913 67.21 3.29001 67.21H196.79C198.331 67.21 199.58 65.9609 199.58 64.42V3.95004C199.58 2.40916 198.331 1.16003 196.79 1.16003Z" fill="#2D2D2D"/>
<path d="M196.81 1.15002H3.29025C1.7549 1.15002 0.510254 2.39467 0.510254 3.93002V64.42C0.510254 65.9554 1.7549 67.2 3.29025 67.2H196.81C198.346 67.2 199.59 65.9554 199.59 64.42V3.93002C199.59 2.39467 198.346 1.15002 196.81 1.15002Z" fill="#2D2D2D"/>
<path d="M196.83 1.13H3.31027C1.77492 1.13 0.530273 2.37466 0.530273 3.91001V64.4C0.530273 65.9354 1.77492 67.18 3.31027 67.18H196.83C198.366 67.18 199.61 65.9354 199.61 64.4V3.91001C199.61 2.37466 198.366 1.13 196.83 1.13Z" fill="#2D2D2D"/>
<path d="M196.86 1.10999H3.32031C1.79048 1.10999 0.550293 2.35015 0.550293 3.87998V64.39C0.550293 65.9198 1.79048 67.16 3.32031 67.16H196.86C198.39 67.16 199.63 65.9198 199.63 64.39V3.87998C199.63 2.35015 198.39 1.10999 196.86 1.10999Z" fill="#2D2D2D"/>
<path d="M196.88 1.1001H3.32007C1.79576 1.1001 0.560059 2.33579 0.560059 3.8601V64.3901C0.560059 65.9144 1.79576 67.1501 3.32007 67.1501H196.88C198.404 67.1501 199.64 65.9144 199.64 64.3901V3.8601C199.64 2.33579 198.404 1.1001 196.88 1.1001Z" fill="#2D2D2D"/>
<path d="M196.91 1.08008H3.33008C1.8113 1.08008 0.580078 2.3113 0.580078 3.83008V64.3801C0.580078 65.8989 1.8113 67.1301 3.33008 67.1301H196.91C198.429 67.1301 199.66 65.8989 199.66 64.3801V3.83008C199.66 2.3113 198.429 1.08008 196.91 1.08008Z" fill="#2D2D2D"/>
<path d="M196.92 1.06006H3.33984C1.82106 1.06006 0.589844 2.29128 0.589844 3.81006V64.3601C0.589844 65.8789 1.82106 67.1101 3.33984 67.1101H196.92C198.439 67.1101 199.67 65.8789 199.67 64.3601V3.81006C199.67 2.29128 198.439 1.06006 196.92 1.06006Z" fill="#2E2E2E"/>
<path d="M196.95 1.05005H3.34988C1.83662 1.05005 0.609863 2.27679 0.609863 3.79005V64.3601C0.609863 65.8733 1.83662 67.1 3.34988 67.1H196.95C198.463 67.1 199.69 65.8733 199.69 64.3601V3.79005C199.69 2.27679 198.463 1.05005 196.95 1.05005Z" fill="#2E2E2E"/>
<path d="M196.97 1.03003H3.35013C1.84239 1.03003 0.620117 2.2523 0.620117 3.76003V64.35C0.620117 65.8578 1.84239 67.08 3.35013 67.08H196.97C198.478 67.08 199.7 65.8578 199.7 64.35V3.76003C199.7 2.2523 198.478 1.03003 196.97 1.03003Z" fill="#2E2E2E"/>
<path d="M197 1.01001H3.36014C1.85792 1.01001 0.640137 2.2278 0.640137 3.73001V64.34C0.640137 65.8422 1.85792 67.06 3.36014 67.06H197C198.502 67.06 199.72 65.8422 199.72 64.34V3.73001C199.72 2.2278 198.502 1.01001 197 1.01001Z" fill="#2E2E2E"/>
<path d="M197.01 1H3.3699C1.86769 1 0.649902 2.21779 0.649902 3.72V64.33C0.649902 65.8322 1.86769 67.05 3.3699 67.05H197.01C198.512 67.05 199.73 65.8322 199.73 64.33V3.72C199.73 2.21779 198.512 1 197.01 1Z" fill="#2E2E2E"/>
<path d="M197.04 0.97998H3.37994C1.88325 0.97998 0.669922 2.19329 0.669922 3.68998V64.32C0.669922 65.8167 1.88325 67.03 3.37994 67.03H197.04C198.537 67.03 199.75 65.8167 199.75 64.32V3.68998C199.75 2.19329 198.537 0.97998 197.04 0.97998Z" fill="#2E2E2E"/>
<path d="M197.07 0.960083H3.38992C1.89875 0.960083 0.689941 2.16892 0.689941 3.66009V64.3101C0.689941 65.8013 1.89875 67.0101 3.38992 67.0101H197.07C198.561 67.0101 199.77 65.8013 199.77 64.3101V3.66009C199.77 2.16892 198.561 0.960083 197.07 0.960083Z" fill="#2E2E2E"/>
<path d="M197.09 0.940063H3.39017C1.90452 0.940063 0.700195 2.14441 0.700195 3.63006V64.3001C0.700195 65.7857 1.90452 66.9901 3.39017 66.9901H197.09C198.576 66.9901 199.78 65.7857 199.78 64.3001V3.63006C199.78 2.14441 198.576 0.940063 197.09 0.940063Z" fill="#2E2E2E"/>
<path d="M197.11 0.930054H3.41022C1.92457 0.930054 0.720215 2.13441 0.720215 3.62006V64.2901C0.720215 65.7757 1.92457 66.9801 3.41022 66.9801H197.11C198.596 66.9801 199.8 65.7757 199.8 64.2901V3.62006C199.8 2.13441 198.596 0.930054 197.11 0.930054Z" fill="#2E2E2E"/>
<path d="M197.13 0.910034H3.40997C1.92985 0.910034 0.72998 2.10991 0.72998 3.59003V64.28C0.72998 65.7602 1.92985 66.96 3.40997 66.96H197.13C198.61 66.96 199.81 65.7602 199.81 64.28V3.59003C199.81 2.10991 198.61 0.910034 197.13 0.910034Z" fill="#2E2E2E"/>
<path d="M197.16 0.890015H3.41998C1.94538 0.890015 0.75 2.08541 0.75 3.56001V64.27C0.75 65.7446 1.94538 66.94 3.41998 66.94H197.16C198.635 66.94 199.83 65.7446 199.83 64.27V3.56001C199.83 2.08541 198.635 0.890015 197.16 0.890015Z" fill="#2E2E2E"/>
<path d="M197.18 0.880005H3.42023C1.95115 0.880005 0.760254 2.07093 0.760254 3.54001V64.27C0.760254 65.7391 1.95115 66.93 3.42023 66.93H197.18C198.649 66.93 199.84 65.7391 199.84 64.27V3.54001C199.84 2.07093 198.649 0.880005 197.18 0.880005Z" fill="#2F2F2F"/>
<path d="M197.2 0.859985H3.44028C1.9712 0.859985 0.780273 2.05091 0.780273 3.51999V64.25C0.780273 65.7191 1.9712 66.91 3.44028 66.91H197.2C198.669 66.91 199.86 65.7191 199.86 64.25V3.51999C199.86 2.05091 198.669 0.859985 197.2 0.859985Z" fill="#2F2F2F"/>
<path d="M197.22 0.840088H3.44003C1.97648 0.840088 0.790039 2.02653 0.790039 3.49008V64.2401C0.790039 65.7036 1.97648 66.8901 3.44003 66.8901H197.22C198.684 66.8901 199.87 65.7036 199.87 64.2401V3.49008C199.87 2.02653 198.684 0.840088 197.22 0.840088Z" fill="#2F2F2F"/>
<path d="M197.25 0.830078H3.45007C1.99204 0.830078 0.810059 2.01205 0.810059 3.47008V64.2401C0.810059 65.6981 1.99204 66.8801 3.45007 66.8801H197.25C198.708 66.8801 199.89 65.6981 199.89 64.2401V3.47008C199.89 2.01205 198.708 0.830078 197.25 0.830078Z" fill="#2F2F2F"/>
<path d="M197.28 0.810059H3.46008C2.00757 0.810059 0.830078 1.98755 0.830078 3.44006V64.2301C0.830078 65.6826 2.00757 66.8601 3.46008 66.8601H197.28C198.733 66.8601 199.91 65.6826 199.91 64.2301V3.44006C199.91 1.98755 198.733 0.810059 197.28 0.810059Z" fill="#2F2F2F"/>
<path d="M197.29 0.790039H3.46985C2.01734 0.790039 0.839844 1.96753 0.839844 3.42004V64.21C0.839844 65.6625 2.01734 66.84 3.46985 66.84H197.29C198.742 66.84 199.92 65.6625 199.92 64.21V3.42004C199.92 1.96753 198.742 0.790039 197.29 0.790039Z" fill="#2F2F2F"/>
<path d="M197.32 0.780029H3.47989C2.0329 0.780029 0.859863 1.95305 0.859863 3.40003V64.21C0.859863 65.657 2.0329 66.83 3.47989 66.83H197.32C198.767 66.83 199.94 65.657 199.94 64.21V3.40003C199.94 1.95305 198.767 0.780029 197.32 0.780029Z" fill="#2F2F2F"/>
<path d="M197.34 0.76001H3.48013C2.03867 0.76001 0.870117 1.92855 0.870117 3.37001V64.2C0.870117 65.6415 2.03867 66.81 3.48013 66.81H197.34C198.782 66.81 199.95 65.6415 199.95 64.2V3.37001C199.95 1.92855 198.782 0.76001 197.34 0.76001Z" fill="#302F2F"/>
<path d="M197.37 0.73999H3.49014C2.0542 0.73999 0.890137 1.90406 0.890137 3.34V64.19C0.890137 65.6259 2.0542 66.79 3.49014 66.79H197.37C198.806 66.79 199.97 65.6259 199.97 64.19V3.34C199.97 1.90406 198.806 0.73999 197.37 0.73999Z" fill="#302F2F"/>
<path d="M197.38 0.720093H3.49991C2.06397 0.720093 0.899902 1.88415 0.899902 3.32009V64.1701C0.899902 65.606 2.06397 66.7701 3.49991 66.7701H197.38C198.816 66.7701 199.98 65.606 199.98 64.1701V3.32009C199.98 1.88415 198.816 0.720093 197.38 0.720093Z" fill="#302F2F"/>
<path d="M197.41 0.710083H3.50995C2.07953 0.710083 0.919922 1.86967 0.919922 3.30009V64.1701C0.919922 65.6005 2.07953 66.7601 3.50995 66.7601H197.41C198.84 66.7601 200 65.6005 200 64.1701V3.30009C200 1.86967 198.84 0.710083 197.41 0.710083Z" fill="#303030"/>
<path d="M197.43 0.690063H3.51019C2.0853 0.690063 0.930176 1.84517 0.930176 3.27007V64.1601C0.930176 65.585 2.0853 66.7401 3.51019 66.7401H197.43C198.855 66.7401 200.01 65.585 200.01 64.1601V3.27007C200.01 1.84517 198.855 0.690063 197.43 0.690063Z" fill="#303030"/>
<path d="M197.46 0.670044H3.52017C2.1008 0.670044 0.950195 1.82067 0.950195 3.24004V64.15C0.950195 65.5694 2.1008 66.72 3.52017 66.72H197.46C198.88 66.72 200.03 65.5694 200.03 64.15V3.24004C200.03 1.82067 198.88 0.670044 197.46 0.670044Z" fill="#303030"/>
<path d="M197.47 0.660034H3.52997C2.1106 0.660034 0.959961 1.81066 0.959961 3.23003V64.14C0.959961 65.5594 2.1106 66.71 3.52997 66.71H197.47C198.889 66.71 200.04 65.5594 200.04 64.14V3.23003C200.04 1.81066 198.889 0.660034 197.47 0.660034Z" fill="#303030"/>
<path d="M197.5 0.640015H3.53998C2.12613 0.640015 0.97998 1.78617 0.97998 3.20002V64.13C0.97998 65.5439 2.12613 66.69 3.53998 66.69H197.5C198.914 66.69 200.06 65.5439 200.06 64.13V3.20002C200.06 1.78617 198.914 0.640015 197.5 0.640015Z" fill="#303030"/>
<path d="M197.53 0.619995H3.54999C2.14166 0.619995 1 1.76166 1 3.16999V64.12C1 65.5283 2.14166 66.67 3.54999 66.67H197.53C198.938 66.67 200.08 65.5283 200.08 64.12V3.16999C200.08 1.76166 198.938 0.619995 197.53 0.619995Z" fill="#303030"/>
<path d="M197.55 0.609985H3.55023C2.14743 0.609985 1.01025 1.74718 1.01025 3.14999V64.12C1.01025 65.5228 2.14743 66.66 3.55023 66.66H197.55C198.953 66.66 200.09 65.5228 200.09 64.12V3.14999C200.09 1.74718 198.953 0.609985 197.55 0.609985Z" fill="#303030"/>
<path d="M197.57 0.590088H3.57028C2.16748 0.590088 1.03027 1.72728 1.03027 3.13008V64.1001C1.03027 65.5029 2.16748 66.6401 3.57028 66.6401H197.57C198.973 66.6401 200.11 65.5029 200.11 64.1001V3.13008C200.11 1.72728 198.973 0.590088 197.57 0.590088Z" fill="#313130"/>
<path d="M197.59 0.570068H3.57004C2.17276 0.570068 1.04004 1.70279 1.04004 3.10007V64.0901C1.04004 65.4874 2.17276 66.6201 3.57004 66.6201H197.59C198.987 66.6201 200.12 65.4874 200.12 64.0901V3.10007C200.12 1.70279 198.987 0.570068 197.59 0.570068Z" fill="#313130"/>
<path d="M197.62 0.560059H3.58005C2.18829 0.560059 1.06006 1.68831 1.06006 3.08006V64.0901C1.06006 65.4818 2.18829 66.6101 3.58005 66.6101H197.62C199.012 66.6101 200.14 65.4818 200.14 64.0901V3.08006C200.14 1.68831 199.012 0.560059 197.62 0.560059Z" fill="#313130"/>
<path d="M197.64 0.540039H3.5798C2.19357 0.540039 1.06982 1.66381 1.06982 3.05004V64.08C1.06982 65.4663 2.19357 66.59 3.5798 66.59H197.64C199.026 66.59 200.15 65.4663 200.15 64.08V3.05004C200.15 1.66381 199.026 0.540039 197.64 0.540039Z" fill="#313130"/>
<path d="M197.66 0.52002H3.59985C2.21362 0.52002 1.08984 1.64378 1.08984 3.03001V64.06C1.08984 65.4463 2.21362 66.57 3.59985 66.57H197.66C199.046 66.57 200.17 65.4463 200.17 64.06V3.03001C200.17 1.64378 199.046 0.52002 197.66 0.52002Z" fill="#313131"/>
<path d="M197.68 0.51001H3.6001C2.21939 0.51001 1.1001 1.6293 1.1001 3.01001V64.06C1.1001 65.4407 2.21939 66.56 3.6001 66.56H197.68C199.061 66.56 200.18 65.4407 200.18 64.06V3.01001C200.18 1.6293 199.061 0.51001 197.68 0.51001Z" fill="#313131"/>
<path d="M197.71 0.48999H3.61011C2.23492 0.48999 1.12012 1.60481 1.12012 2.98V64.05C1.12012 65.4252 2.23492 66.54 3.61011 66.54H197.71C199.085 66.54 200.2 65.4252 200.2 64.05V2.98C200.2 1.60481 199.085 0.48999 197.71 0.48999Z" fill="#313131"/>
<path d="M197.74 0.470093H3.62015C2.25048 0.470093 1.14014 1.58043 1.14014 2.9501V64.0401C1.14014 65.4098 2.25048 66.5201 3.62015 66.5201H197.74C199.11 66.5201 200.22 65.4098 200.22 64.0401V2.9501C200.22 1.58043 199.11 0.470093 197.74 0.470093Z" fill="#313131"/>
<path d="M197.75 0.450073H3.62991C2.26025 0.450073 1.1499 1.5604 1.1499 2.93007V64.0201C1.1499 65.3897 2.26025 66.5001 3.62991 66.5001H197.75C199.12 66.5001 200.23 65.3897 200.23 64.0201V2.93007C200.23 1.5604 199.12 0.450073 197.75 0.450073Z" fill="#313131"/>
<path d="M197.78 0.440063H3.63992C2.27578 0.440063 1.16992 1.54592 1.16992 2.91006V64.0201C1.16992 65.3842 2.27578 66.4901 3.63992 66.4901H197.78C199.144 66.4901 200.25 65.3842 200.25 64.0201V2.91006C200.25 1.54592 199.144 0.440063 197.78 0.440063Z" fill="#313131"/>
<path d="M197.8 0.420044H3.64017C2.28155 0.420044 1.18018 1.52142 1.18018 2.88004V64.01C1.18018 65.3687 2.28155 66.47 3.64017 66.47H197.8C199.159 66.47 200.26 65.3687 200.26 64.01V2.88004C200.26 1.52142 199.159 0.420044 197.8 0.420044Z" fill="#313131"/>
<path d="M197.82 0.400024H3.66019C2.30157 0.400024 1.2002 1.5014 1.2002 2.86002V63.99C1.2002 65.3486 2.30157 66.45 3.66019 66.45H197.82C199.179 66.45 200.28 65.3486 200.28 63.99V2.86002C200.28 1.5014 199.179 0.400024 197.82 0.400024Z" fill="#323231"/>
<path d="M197.84 0.390015H3.65997C2.30688 0.390015 1.20996 1.48692 1.20996 2.84002V63.99C1.20996 65.3431 2.30688 66.44 3.65997 66.44H197.84C199.193 66.44 200.29 65.3431 200.29 63.99V2.84002C200.29 1.48692 199.193 0.390015 197.84 0.390015Z" fill="#323231"/>
<path d="M197.87 0.369995H3.66995C2.32238 0.369995 1.22998 1.46242 1.22998 2.80999V63.98C1.22998 65.3276 2.32238 66.42 3.66995 66.42H197.87C199.218 66.42 200.31 65.3276 200.31 63.98V2.80999C200.31 1.46242 199.218 0.369995 197.87 0.369995Z" fill="#323231"/>
<path d="M197.89 0.350098H3.67023C2.32818 0.350098 1.24023 1.43805 1.24023 2.7801V63.9701C1.24023 65.3121 2.32818 66.4001 3.67023 66.4001H197.89C199.232 66.4001 200.32 65.3121 200.32 63.9701V2.7801C200.32 1.43805 199.232 0.350098 197.89 0.350098Z" fill="#323232"/>
<path d="M197.91 0.340088H3.69025C2.34819 0.340088 1.26025 1.42804 1.26025 2.77009V63.9601C1.26025 65.3021 2.34819 66.3901 3.69025 66.3901H197.91C199.252 66.3901 200.34 65.3021 200.34 63.9601V2.77009C200.34 1.42804 199.252 0.340088 197.91 0.340088Z" fill="#323232"/>
<path d="M197.93 0.320068H3.69003C2.3535 0.320068 1.27002 1.40354 1.27002 2.74007V63.9501C1.27002 65.2866 2.3535 66.3701 3.69003 66.3701H197.93C199.267 66.3701 200.35 65.2866 200.35 63.9501V2.74007C200.35 1.40354 199.267 0.320068 197.93 0.320068Z" fill="#323232"/>
<path d="M197.96 0.300049H3.70004C2.36904 0.300049 1.29004 1.37904 1.29004 2.71004V63.94C1.29004 65.271 2.36904 66.35 3.70004 66.35H197.96C199.291 66.35 200.37 65.271 200.37 63.94V2.71004C200.37 1.37904 199.291 0.300049 197.96 0.300049Z" fill="#323232"/>
<path d="M197.99 0.290039H3.71005C2.38457 0.290039 1.31006 1.36456 1.31006 2.69004V63.94C1.31006 65.2655 2.38457 66.34 3.71005 66.34H197.99C199.316 66.34 200.39 65.2655 200.39 63.94V2.69004C200.39 1.36456 199.316 0.290039 197.99 0.290039Z" fill="#323232"/>
<path d="M198 0.27002H3.71982C2.39433 0.27002 1.31982 1.34453 1.31982 2.67001V63.92C1.31982 65.2455 2.39433 66.32 3.71982 66.32H198C199.325 66.32 200.4 65.2455 200.4 63.92V2.67001C200.4 1.34453 199.325 0.27002 198 0.27002Z" fill="#323232"/>
<path d="M198.03 0.25H3.72986C2.4099 0.25 1.33984 1.32004 1.33984 2.64V63.91C1.33984 65.23 2.4099 66.3 3.72986 66.3H198.03C199.35 66.3 200.42 65.23 200.42 63.91V2.64C200.42 1.32004 199.35 0.25 198.03 0.25Z" fill="#323232"/>
<path d="M198.05 0.22998H3.7301C2.41566 0.22998 1.3501 1.29554 1.3501 2.60998V63.9C1.3501 65.2144 2.41566 66.28 3.7301 66.28H198.05C199.365 66.28 200.43 65.2144 200.43 63.9V2.60998C200.43 1.29554 199.365 0.22998 198.05 0.22998Z" fill="#323232"/>
<path d="M198.08 0.220093H3.74011C2.4312 0.220093 1.37012 1.28118 1.37012 2.5901V63.9001C1.37012 65.209 2.4312 66.2701 3.74011 66.2701H198.08C199.389 66.2701 200.45 65.209 200.45 63.9001V2.5901C200.45 1.28118 199.389 0.220093 198.08 0.220093Z" fill="#333333"/>
<path d="M198.09 0.200073H3.74988C2.44096 0.200073 1.37988 1.26115 1.37988 2.57007V63.8801C1.37988 65.189 2.44096 66.2501 3.74988 66.2501H198.09C199.399 66.2501 200.46 65.189 200.46 63.8801V2.57007C200.46 1.26115 199.399 0.200073 198.09 0.200073Z" fill="#333333"/>
<path d="M198.12 0.180054H3.75992C2.45653 0.180054 1.3999 1.23666 1.3999 2.54005V63.8701C1.3999 65.1734 2.45653 66.2301 3.75992 66.2301H198.12C199.423 66.2301 200.48 65.1734 200.48 63.8701V2.54005C200.48 1.23666 199.423 0.180054 198.12 0.180054Z" fill="#333333"/>
<path d="M198.14 0.170044H3.76016C2.46229 0.170044 1.41016 1.22218 1.41016 2.52005V63.87C1.41016 65.1679 2.46229 66.22 3.76016 66.22H198.14C199.438 66.22 200.49 65.1679 200.49 63.87V2.52005C200.49 1.22218 199.438 0.170044 198.14 0.170044Z" fill="#333333"/>
<path d="M198.17 0.150024H3.77017C2.47783 0.150024 1.43018 1.19767 1.43018 2.49002V63.86C1.43018 65.1524 2.47783 66.2 3.77017 66.2H198.17C199.463 66.2 200.51 65.1524 200.51 63.86V2.49002C200.51 1.19767 199.463 0.150024 198.17 0.150024Z" fill="#333333"/>
<path d="M198.19 0.130005H3.79019C2.49785 0.130005 1.4502 1.17766 1.4502 2.47001V63.84C1.4502 65.1324 2.49785 66.18 3.79019 66.18H198.19C199.483 66.18 200.53 65.1324 200.53 63.84V2.47001C200.53 1.17766 199.483 0.130005 198.19 0.130005Z" fill="#333333"/>
<path d="M198.21 0.119995H3.78998C2.50315 0.119995 1.45996 1.16317 1.45996 2.45V63.84C1.45996 65.1268 2.50315 66.17 3.78998 66.17H198.21C199.497 66.17 200.54 65.1268 200.54 63.84V2.45C200.54 1.16317 199.497 0.119995 198.21 0.119995Z" fill="#333333"/>
<path d="M198.24 0.100098H3.79996C2.51866 0.100098 1.47998 1.1388 1.47998 2.4201V63.8301C1.47998 65.1114 2.51866 66.1501 3.79996 66.1501H198.24C199.521 66.1501 200.56 65.1114 200.56 63.8301V2.4201C200.56 1.1388 199.521 0.100098 198.24 0.100098Z" fill="#343333"/>
<path d="M198.26 0.0800781H3.80023C2.52445 0.0800781 1.49023 1.1143 1.49023 2.39008V63.8201C1.49023 65.0959 2.52445 66.1301 3.80023 66.1301H198.26C199.536 66.1301 200.57 65.0959 200.57 63.8201V2.39008C200.57 1.1143 199.536 0.0800781 198.26 0.0800781Z" fill="#343333"/>
<path d="M198.28 0.0700684H3.82025C2.54447 0.0700684 1.51025 1.10429 1.51025 2.38007V63.8101C1.51025 65.0859 2.54447 66.1201 3.82025 66.1201H198.28C199.556 66.1201 200.59 65.0859 200.59 63.8101V2.38007C200.59 1.10429 199.556 0.0700684 198.28 0.0700684Z" fill="#343333"/>
<path d="M198.3 0.0500488H3.82004C2.54978 0.0500488 1.52002 1.07979 1.52002 2.35004V63.8C1.52002 65.0703 2.54978 66.1 3.82004 66.1H198.3C199.57 66.1 200.6 65.0703 200.6 63.8V2.35004C200.6 1.07979 199.57 0.0500488 198.3 0.0500488Z" fill="#343434"/>
<path d="M198.33 0.0300293H3.83002C2.56528 0.0300293 1.54004 1.0553 1.54004 2.32003V63.79C1.54004 65.0548 2.56528 66.08 3.83002 66.08H198.33C199.595 66.08 200.62 65.0548 200.62 63.79V2.32003C200.62 1.0553 199.595 0.0300293 198.33 0.0300293Z" fill="#343434"/>
<path d="M198.35 0.0100098H3.83029C2.57108 0.0100098 1.55029 1.0308 1.55029 2.29001V63.78C1.55029 65.0392 2.57108 66.06 3.83029 66.06H198.35C199.609 66.06 200.63 65.0392 200.63 63.78V2.29001C200.63 1.0308 199.609 0.0100098 198.35 0.0100098Z" fill="#343434"/>
<path d="M198.37 0H3.84982C2.59061 0 1.56982 1.02079 1.56982 2.28V63.77C1.56982 65.0292 2.59061 66.05 3.84982 66.05H198.37C199.629 66.05 200.65 65.0292 200.65 63.77V2.28C200.65 1.02079 199.629 0 198.37 0Z" fill="#343434"/>
<defs>
<radialGradient id="paint0_radial_567_940" cx="0" cy="0" r="1" gradientUnits="userSpaceOnUse" gradientTransform="translate(99.75 362.7) scale(42.75)">
<stop offset="0.26" stop-color="#AFAFAF"/>
<stop offset="0.39" stop-color="#ABAAAA"/>
<stop offset="0.51" stop-color="#9F9E9E"/>
<stop offset="0.64" stop-color="#8B8A8A"/>
<stop offset="0.77" stop-color="#6F6E6E"/>
<stop offset="0.9" stop-color="#4B4A4A"/>
<stop offset="1" stop-color="#2A2929"/>
</radialGradient>
<linearGradient id="paint1_linear_567_940" x1="127.32" y1="485.094" x2="130.309" y2="478.397" gradientUnits="userSpaceOnUse">
<stop offset="0.26" stop-color="#AFAFAF"/>
<stop offset="0.39" stop-color="#A0A0A0"/>
<stop offset="0.64" stop-color="#7B7B7B"/>
<stop offset="0.98" stop-color="#403F3F"/>
<stop offset="1" stop-color="#3D3C3C"/>
</linearGradient>
<linearGradient id="paint2_linear_567_940" x1="72.1039" y1="484.24" x2="69.1149" y2="477.542" gradientUnits="userSpaceOnUse">
<stop offset="0.26" stop-color="#AFAFAF"/>
<stop offset="0.39" stop-color="#A0A0A0"/>
<stop offset="0.64" stop-color="#7B7B7B"/>
<stop offset="0.98" stop-color="#403F3F"/>
<stop offset="1" stop-color="#3D3C3C"/>
</linearGradient>
</defs>
</svg>
