<svg width="138" height="300" viewBox="0 0 138 300" fill="none" xmlns="http://www.w3.org/2000/svg">
<path d="M20.8933 143.97C19.8415 143.966 18.9905 143.581 19.0001 143.115L22.0885 2.83875C22.0981 2.3728 22.9681 1.9958 24.0199 2.00004L29.1067 2.02969C30.1585 2.03393 31.0095 2.41939 30.9999 2.88534L27.9115 143.161C27.9019 143.627 27.0319 144.004 25.9801 144L20.8933 143.97Z" fill="#272525"/>
<path d="M20.8933 143.97C19.8415 143.966 18.9905 143.581 19.0001 143.115L22.0885 2.83875C22.0981 2.3728 22.9682 1.9958 24.0199 2.00004L29.1067 2.02969C30.1585 2.03393 31.0095 2.41939 30.9999 2.88534L27.9115 143.161C27.902 143.627 27.0318 144.004 25.9801 144L20.8933 143.97Z" fill="#272525"/>
<path d="M20.8933 143.97C19.8415 143.966 18.9905 143.581 19.0001 143.115L22.0885 2.83874C22.098 2.37279 22.9682 1.9958 24.0199 2.00004L29.1067 2.02968C30.1585 2.03392 31.0095 2.41939 30.9999 2.88534L27.9115 143.161C27.9019 143.627 27.0318 144.004 25.9801 144L20.8933 143.97Z" fill="#272525"/>
<path d="M20.8933 143.97C19.8415 143.966 18.9905 143.581 19.0001 143.115L22.0885 2.83874C22.0981 2.37279 22.9682 1.9958 24.0199 2.00004L29.1067 2.02968C30.1585 2.03392 31.0095 2.41939 30.9999 2.88534L27.9115 143.161C27.902 143.627 27.0318 144.004 25.9801 144L20.8933 143.97Z" fill="#282627"/>
<path d="M20.8933 143.97C19.8415 143.966 18.9905 143.581 19.0001 143.115L22.0885 2.83875C22.098 2.3728 22.9682 1.9958 24.0199 2.00004L29.1067 2.02969C30.1585 2.03393 31.0095 2.41939 30.9999 2.88534L27.9115 143.161C27.9019 143.627 27.0318 144.004 25.9801 144L20.8933 143.97Z" fill="#282627"/>
<path d="M20.8933 143.97C19.8415 143.966 18.9905 143.581 19.0001 143.115L22.0885 2.83875C22.0981 2.3728 22.9681 1.9958 24.0199 2.00004L29.1067 2.02969C30.1585 2.03393 31.0095 2.41939 30.9999 2.88534L27.9115 143.161C27.9019 143.627 27.0319 144.004 25.9801 144L20.8933 143.97Z" fill="#292728"/>
<path d="M20.8933 143.97C19.8415 143.966 18.9905 143.581 19.0001 143.115L22.0885 2.83874C22.0981 2.37279 22.9682 1.9958 24.0199 2.00004L29.1067 2.02968C30.1585 2.03392 31.0095 2.41939 30.9999 2.88534L27.9115 143.161C27.902 143.627 27.0318 144.004 25.9801 144L20.8933 143.97Z" fill="#292728"/>
<path d="M20.8933 143.97C19.8415 143.966 18.9905 143.581 19.0001 143.115L22.0885 2.83875C22.098 2.3728 22.9682 1.9958 24.0199 2.00004L29.1067 2.02969C30.1585 2.03393 31.0095 2.41939 30.9999 2.88534L27.9115 143.161C27.9019 143.627 27.0318 144.004 25.9801 144L20.8933 143.97Z" fill="#2A2829"/>
<path d="M20.8933 143.97C19.8415 143.966 18.9905 143.581 19.0001 143.115L22.0885 2.83875C22.0981 2.3728 22.9681 1.9958 24.0199 2.00004L29.1067 2.02969C30.1585 2.03393 31.0095 2.41939 30.9999 2.88534L27.9115 143.161C27.9019 143.627 27.0319 144.004 25.9801 144L20.8933 143.97Z" fill="#2A2829"/>
<path d="M20.8933 143.97C19.8415 143.966 18.9905 143.581 19.0001 143.115L22.0885 2.83874C22.0981 2.37279 22.9682 1.9958 24.0199 2.00004L29.1067 2.02968C30.1585 2.03392 31.0095 2.41939 30.9999 2.88534L27.9115 143.161C27.902 143.627 27.0318 144.004 25.9801 144L20.8933 143.97Z" fill="#2A2829"/>
<path d="M20.8933 143.97C19.8415 143.966 18.9905 143.581 19.0001 143.115L22.0885 2.83874C22.0981 2.37279 22.9681 1.9958 24.0199 2.00004L29.1067 2.02968C30.1585 2.03392 31.0095 2.41939 30.9999 2.88534L27.9115 143.161C27.9019 143.627 27.0319 144.004 25.9801 144L20.8933 143.97Z" fill="#2C2A2A"/>
<path d="M20.8933 143.97C19.8415 143.966 18.9905 143.581 19.0001 143.115L22.0885 2.83875C22.098 2.3728 22.9682 1.9958 24.0199 2.00004L29.1067 2.02969C30.1585 2.03393 31.0095 2.41939 30.9999 2.88534L27.9115 143.161C27.902 143.627 27.0318 144.004 25.9801 144L20.8933 143.97Z" fill="#2C2A2A"/>
<path d="M20.8933 143.97C19.8415 143.966 18.9905 143.581 19.0001 143.115L22.0885 2.83875C22.0981 2.3728 22.9681 1.9958 24.0199 2.00004L29.1067 2.02969C30.1585 2.03393 31.0095 2.41939 30.9999 2.88534L27.9115 143.161C27.9019 143.627 27.0319 144.004 25.9801 144L20.8933 143.97Z" fill="#2D2B2C"/>
<path d="M20.8933 143.97C19.8415 143.966 18.9905 143.581 19.0001 143.115L22.0885 2.83874C22.0981 2.37279 22.9681 1.9958 24.0199 2.00004L29.1067 2.02968C30.1585 2.03392 31.0095 2.41939 30.9999 2.88534L27.9115 143.161C27.9019 143.627 27.0319 144.004 25.9801 144L20.8933 143.97Z" fill="#2D2B2C"/>
<path d="M20.8933 143.97C19.8415 143.966 18.9905 143.581 19.0001 143.115L22.0885 2.83875C22.098 2.3728 22.9682 1.9958 24.0199 2.00004L29.1067 2.02969C30.1585 2.03393 31.0095 2.41939 30.9999 2.88534L27.9115 143.161C27.902 143.627 27.0318 144.004 25.9801 144L20.8933 143.97Z" fill="#2E2C2D"/>
<path d="M20.8933 143.97C19.8415 143.966 18.9905 143.581 19.0001 143.115L22.0885 2.83875C22.0981 2.3728 22.9681 1.9958 24.0199 2.00004L29.1067 2.02969C30.1585 2.03393 31.0095 2.41939 30.9999 2.88534L27.9115 143.161C27.9019 143.627 27.0319 144.004 25.9801 144L20.8933 143.97Z" fill="#2E2C2D"/>
<path d="M20.8933 143.97C19.8415 143.966 18.9905 143.581 19.0001 143.115L22.0885 2.83874C22.0981 2.37279 22.9682 1.9958 24.0199 2.00004L29.1067 2.02968C30.1585 2.03392 31.0095 2.41939 30.9999 2.88534L27.9115 143.161C27.902 143.627 27.0318 144.004 25.9801 144L20.8933 143.97Z" fill="#2E2C2D"/>
<path d="M20.8933 143.97C19.8415 143.966 18.9905 143.581 19.0001 143.115L22.0885 2.83874C22.0981 2.37279 22.9681 1.9958 24.0199 2.00004L29.1067 2.02968C30.1585 2.03392 31.0095 2.41939 30.9999 2.88534L27.9115 143.161C27.9019 143.627 27.0319 144.004 25.9801 144L20.8933 143.97Z" fill="#2F2D2E"/>
<path d="M20.8933 143.97C19.8415 143.966 18.9905 143.581 19.0001 143.115L22.0885 2.83875C22.0981 2.3728 22.9682 1.9958 24.0199 2.00004L29.1067 2.02969C30.1585 2.03393 31.0095 2.41939 30.9999 2.88534L27.9115 143.161C27.902 143.627 27.0318 144.004 25.9801 144L20.8933 143.97Z" fill="#2F2D2E"/>
<path d="M20.8933 143.97C19.8415 143.966 18.9905 143.581 19.0001 143.115L22.0885 2.83875C22.098 2.3728 22.9682 1.9958 24.0199 2.00004L29.1067 2.02969C30.1585 2.03393 31.0095 2.41939 30.9999 2.88534L27.9115 143.161C27.9019 143.627 27.0318 144.004 25.9801 144L20.8933 143.97Z" fill="#302F30"/>
<path d="M20.8933 142.971C19.8415 142.966 18.9905 142.584 19.0001 142.121L22.0885 2.83283C22.0981 2.37017 22.9681 1.99583 24.0199 2.00004L29.1067 2.02947C30.1585 2.03368 31.0095 2.41643 30.9999 2.8791L27.9115 142.167C27.9019 142.63 27.0319 143.004 25.9801 143L20.8933 142.971Z" fill="#302F30"/>
<path d="M20.8933 142.971C19.8415 142.966 18.9905 142.584 19.0001 142.121L22.0885 2.83284C22.0981 2.37017 22.9682 1.99583 24.0199 2.00004L29.1067 2.02948C30.1585 2.03369 31.0095 2.41644 30.9999 2.87911L27.9115 142.167C27.902 142.63 27.0318 143.004 25.9801 143L20.8933 142.971Z" fill="#313031"/>
<path d="M20.051 142.971C18.9116 142.966 17.9897 142.584 18.0001 142.121L21.3458 2.83284C21.3562 2.37017 22.2988 1.99583 23.4383 2.00004L28.9489 2.02948C30.0884 2.03369 31.0103 2.41644 30.9999 2.87911L27.6541 142.167C27.6438 142.63 26.7012 143.004 25.5617 143L20.051 142.971Z" fill="#313031"/>
<path d="M20.0511 142.971C18.9116 142.966 17.9897 142.584 18.0001 142.121L21.3459 2.83283C21.3562 2.37017 22.2988 1.99583 23.4383 2.00004L28.9489 2.02947C30.0884 2.03368 31.0103 2.41643 30.9999 2.8791L27.6541 142.167C27.6438 142.63 26.7012 143.004 25.5617 143L20.0511 142.971Z" fill="#313031"/>
<path d="M20.051 142.971C18.9116 142.966 17.9897 142.584 18.0001 142.121L21.3458 2.83283C21.3562 2.37017 22.2988 1.99583 23.4383 2.00004L28.949 2.02947C30.0884 2.03368 31.0103 2.41643 30.9999 2.8791L27.6542 142.167C27.6438 142.63 26.7012 143.004 25.5617 143L20.051 142.971Z" fill="#323132"/>
<path d="M20.0511 142.971C18.9116 142.966 17.9897 142.584 18.0001 142.121L21.3459 2.83284C21.3562 2.37017 22.2988 1.99583 23.4383 2.00004L28.9489 2.02948C30.0884 2.03369 31.0103 2.41644 30.9999 2.87911L27.6541 142.167C27.6438 142.63 26.7012 143.004 25.5617 143L20.0511 142.971Z" fill="#323132"/>
<path d="M20.051 142.971C18.9116 142.966 17.9897 142.584 18.0001 142.121L21.3458 2.83284C21.3562 2.37017 22.2988 1.99583 23.4383 2.00004L28.949 2.02948C30.0884 2.03369 31.0103 2.41644 30.9999 2.87911L27.6542 142.167C27.6438 142.63 26.7012 143.004 25.5617 143L20.051 142.971Z" fill="#343233"/>
<path d="M20.0511 142.971C18.9116 142.966 17.9897 142.584 18.0001 142.121L21.3459 2.83283C21.3562 2.37017 22.2988 1.99583 23.4383 2.00004L28.9489 2.02947C30.0884 2.03368 31.0103 2.41643 30.9999 2.8791L27.6541 142.167C27.6438 142.63 26.7012 143.004 25.5617 143L20.0511 142.971Z" fill="#343233"/>
<path d="M20.0511 142.971C18.9116 142.966 17.9897 142.584 18.0001 142.121L21.3459 2.83283C21.3562 2.37017 22.2988 1.99583 23.4383 2.00004L28.949 2.02947C30.0884 2.03368 31.0103 2.41643 30.9999 2.8791L27.6542 142.167C27.6438 142.63 26.7012 143.004 25.5617 143L20.0511 142.971Z" fill="#353435"/>
<path d="M20.051 142.971C18.9116 142.966 17.9897 142.584 18.0001 142.121L21.3458 2.83284C21.3562 2.37017 22.2988 1.99583 23.4383 2.00004L28.9489 2.02948C30.0884 2.03369 31.0103 2.41644 30.9999 2.87911L27.6541 142.167C27.6438 142.63 26.7012 143.004 25.5617 143L20.051 142.971Z" fill="#353435"/>
<path d="M20.0511 142.971C18.9116 142.966 17.9897 142.584 18.0001 142.121L21.3459 2.83283C21.3562 2.37017 22.2988 1.99583 23.4383 2.00004L28.9489 2.02947C30.0884 2.03368 31.0103 2.41643 30.9999 2.8791L27.6541 142.167C27.6438 142.63 26.7012 143.004 25.5617 143L20.0511 142.971Z" fill="#353435"/>
<path d="M20.0511 142.971C18.9116 142.966 17.9897 142.584 18.0001 142.121L21.3459 2.83283C21.3562 2.37017 22.2988 1.99583 23.4383 2.00004L28.949 2.02947C30.0884 2.03368 31.0103 2.41643 30.9999 2.8791L27.6542 142.167C27.6438 142.63 26.7012 143.004 25.5617 143L20.0511 142.971Z" fill="#363536"/>
<path d="M20.0511 142.971C18.9116 142.966 17.9897 142.584 18.0001 142.121L21.3459 2.83284C21.3562 2.37017 22.2988 1.99583 23.4383 2.00004L28.9489 2.02948C30.0884 2.03369 31.0103 2.41644 30.9999 2.87911L27.6541 142.167C27.6438 142.63 26.7012 143.004 25.5617 143L20.0511 142.971Z" fill="#363536"/>
<path d="M20.0511 142.971C18.9116 142.966 17.9897 142.584 18.0001 142.121L21.3459 2.83284C21.3562 2.37017 22.2988 1.99583 23.4383 2.00004L28.949 2.02948C30.0884 2.03369 31.0103 2.41644 30.9999 2.87911L27.6542 142.167C27.6438 142.63 26.7012 143.004 25.5617 143L20.0511 142.971Z" fill="#373637"/>
<path d="M20.051 142.971C18.9116 142.966 17.9897 142.584 18.0001 142.121L21.3458 2.83283C21.3562 2.37017 22.2988 1.99583 23.4383 2.00004L28.9489 2.02947C30.0884 2.03368 31.0103 2.41643 30.9999 2.8791L27.6541 142.167C27.6438 142.63 26.7012 143.004 25.5617 143L20.051 142.971Z" fill="#373637"/>
<path d="M20.0511 142.971C18.9116 142.966 17.9897 142.584 18.0001 142.121L21.3459 2.83283C21.3562 2.37017 22.2988 1.99583 23.4383 2.00004L28.9489 2.02947C30.0884 2.03368 31.0103 2.41643 30.9999 2.8791L27.6541 142.167C27.6438 142.63 26.7012 143.004 25.5617 143L20.0511 142.971Z" fill="#383738"/>
<path d="M20.0511 142.971C18.9116 142.966 17.9897 142.584 18.0001 142.121L21.3459 2.83284C21.3562 2.37017 22.2988 1.99583 23.4383 2.00004L28.949 2.02948C30.0884 2.03369 31.0103 2.41644 30.9999 2.87911L27.6542 142.167C27.6438 142.63 26.7012 143.004 25.5617 143L20.0511 142.971Z" fill="#383738"/>
<path d="M20.051 142.971C18.9116 142.966 17.9897 142.584 18.0001 142.121L21.3458 2.83283C21.3562 2.37017 22.2988 1.99583 23.4383 2.00004L28.9489 2.02947C30.0884 2.03368 31.0103 2.41643 30.9999 2.8791L27.6541 142.167C27.6438 142.63 26.7012 143.004 25.5617 143L20.051 142.971Z" fill="#383738"/>
<path d="M20.0511 142.971C18.9116 142.966 17.9897 142.584 18.0001 142.121L21.3459 2.83283C21.3562 2.37017 22.2988 1.99583 23.4383 2.00004L28.9489 2.02947C30.0884 2.03368 31.0103 2.41643 30.9999 2.8791L27.6541 142.167C27.6438 142.63 26.7012 143.004 25.5617 143L20.0511 142.971Z" fill="#393839"/>
<path d="M20.0511 142.97C18.9116 142.966 17.9897 142.581 18.0001 142.115L21.3459 1.83875C21.3562 1.3728 22.2988 0.995799 23.4383 1.00004L28.9489 1.02969C30.0884 1.03393 31.0103 1.41939 30.9999 1.88534L27.6541 142.161C27.6438 142.627 26.7012 143.004 25.5617 143L20.0511 142.97Z" fill="#393839"/>
<path d="M20.0511 142.97C18.9116 142.966 17.9897 142.581 18.0001 142.115L21.3459 1.83875C21.3562 1.3728 22.2988 0.995799 23.4383 1.00004L28.9489 1.02969C30.0884 1.03393 31.0103 1.41939 30.9999 1.88534L27.6541 142.161C27.6438 142.627 26.7012 143.004 25.5617 143L20.0511 142.97Z" fill="#3A393B"/>
<path d="M20.051 142.97C18.9116 142.966 17.9897 142.581 18.0001 142.115L21.3458 1.83874C21.3562 1.37279 22.2988 0.995799 23.4383 1.00004L28.949 1.02968C30.0884 1.03392 31.0103 1.41939 30.9999 1.88534L27.6542 142.161C27.6438 142.627 26.7012 143.004 25.5617 143L20.051 142.97Z" fill="#3A393B"/>
<path d="M20.0511 142.97C18.9116 142.966 17.9897 142.581 18.0001 142.115L21.3459 1.83874C21.3562 1.37279 22.2988 0.995799 23.4383 1.00004L28.9489 1.02968C30.0884 1.03392 31.0103 1.41939 30.9999 1.88534L27.6541 142.161C27.6438 142.627 26.7012 143.004 25.5617 143L20.0511 142.97Z" fill="#3B3A3C"/>
<path d="M20.0511 142.97C18.9116 142.966 17.9897 142.581 18.0001 142.115L21.3459 1.83875C21.3562 1.3728 22.2988 0.995799 23.4383 1.00004L28.949 1.02969C30.0884 1.03393 31.0103 1.41939 30.9999 1.88534L27.6542 142.161C27.6438 142.627 26.7012 143.004 25.5617 143L20.0511 142.97Z" fill="#3B3A3C"/>
<path d="M20.051 142.97C18.9116 142.966 17.9897 142.581 18.0001 142.115L21.3458 1.83874C21.3562 1.37279 22.2988 0.995799 23.4383 1.00004L28.9489 1.02968C30.0884 1.03392 31.0103 1.41939 30.9999 1.88534L27.6541 142.161C27.6438 142.627 26.7012 143.004 25.5617 143L20.051 142.97Z" fill="#3B3A3C"/>
<path d="M20.0511 142.97C18.9116 142.966 17.9897 142.581 18.0001 142.115L21.3459 1.83874C21.3562 1.37279 22.2988 0.995799 23.4383 1.00004L28.9489 1.02968C30.0884 1.03392 31.0103 1.41939 30.9999 1.88534L27.6541 142.161C27.6438 142.627 26.7012 143.004 25.5617 143L20.0511 142.97Z" fill="#3C3C3D"/>
<path d="M20.051 142.97C18.9116 142.966 17.9897 142.581 18.0001 142.115L21.3458 1.83875C21.3562 1.3728 22.2988 0.995799 23.4383 1.00004L28.9489 1.02969C30.0884 1.03393 31.0103 1.41939 30.9999 1.88534L27.6541 142.161C27.6438 142.627 26.7012 143.004 25.5617 143L20.051 142.97Z" fill="#3C3C3D"/>
<path d="M20.0511 142.97C18.9116 142.966 17.9897 142.581 18.0001 142.115L21.3459 1.83875C21.3562 1.3728 22.2988 0.995799 23.4383 1.00004L28.9489 1.02969C30.0884 1.03393 31.0103 1.41939 30.9999 1.88534L27.6541 142.161C27.6438 142.627 26.7012 143.004 25.5617 143L20.0511 142.97Z" fill="#3D3D3E"/>
<path d="M20.0511 142.97C18.9116 142.966 17.9897 142.581 18.0001 142.115L21.3459 1.83874C21.3562 1.37279 22.2988 0.995799 23.4383 1.00004L28.949 1.02968C30.0884 1.03392 31.0103 1.41939 30.9999 1.88534L27.6542 142.161C27.6438 142.627 26.7012 143.004 25.5617 143L20.0511 142.97Z" fill="#3D3D3E"/>
<path d="M20.051 142.97C18.9116 142.966 17.9897 142.581 18.0001 142.115L21.3458 1.83874C21.3562 1.37279 22.2988 0.995799 23.4383 1.00004L28.9489 1.02968C30.0884 1.03392 31.0103 1.41939 30.9999 1.88534L27.6541 142.161C27.6438 142.627 26.7012 143.004 25.5617 143L20.051 142.97Z" fill="#3E3E3F"/>
<path d="M20.0511 142.97C18.9116 142.966 17.9897 142.581 18.0001 142.115L21.3459 1.83875C21.3562 1.3728 22.2988 0.995799 23.4383 1.00004L28.9489 1.02969C30.0884 1.03393 31.0103 1.41939 30.9999 1.88534L27.6541 142.161C27.6438 142.627 26.7012 143.004 25.5617 143L20.0511 142.97Z" fill="#3E3E3F"/>
<path d="M19.8933 142.97C18.8415 142.966 17.9905 142.581 18.0001 142.115L21.0885 1.83875C21.098 1.3728 21.9682 0.995799 23.0199 1.00004L28.1067 1.02969C29.1585 1.03393 30.0095 1.41939 29.9999 1.88534L26.9115 142.161C26.902 142.627 26.0318 143.004 24.9801 143L19.8933 142.97Z" fill="#3E3E3F"/>
<path d="M19.8933 142.97C18.8415 142.966 17.9905 142.581 18.0001 142.115L21.0885 1.83874C21.0981 1.37279 21.9681 0.995799 23.0199 1.00004L28.1067 1.02968C29.1585 1.03392 30.0095 1.41939 29.9999 1.88534L26.9115 142.161C26.9019 142.627 26.0319 143.004 24.9801 143L19.8933 142.97Z" fill="#3F3F40"/>
<path d="M19.8933 142.97C18.8415 142.966 17.9905 142.581 18.0001 142.115L21.0885 1.83875C21.098 1.3728 21.9682 0.995799 23.0199 1.00004L28.1067 1.02969C29.1585 1.03393 30.0095 1.41939 29.9999 1.88534L26.9115 142.161C26.902 142.627 26.0318 143.004 24.9801 143L19.8933 142.97Z" fill="#3F3F40"/>
<path d="M19.8933 142.97C18.8415 142.966 17.9905 142.581 18.0001 142.115L21.0885 1.83875C21.0981 1.3728 21.9681 0.995799 23.0199 1.00004L28.1067 1.02969C29.1585 1.03393 30.0095 1.41939 29.9999 1.88534L26.9115 142.161C26.9019 142.627 26.0319 143.004 24.9801 143L19.8933 142.97Z" fill="#404041"/>
<path d="M19.8933 142.97C18.8415 142.966 17.9905 142.581 18.0001 142.115L21.0885 1.83874C21.0981 1.37279 21.9682 0.995799 23.0199 1.00004L28.1067 1.02968C29.1585 1.03392 30.0095 1.41939 29.9999 1.88534L26.9115 142.161C26.902 142.627 26.0318 143.004 24.9801 143L19.8933 142.97Z" fill="#404041"/>
<path d="M19.8933 142.97C18.8415 142.966 17.9905 142.581 18.0001 142.115L21.0885 1.83874C21.098 1.37279 21.9682 0.995799 23.0199 1.00004L28.1067 1.02968C29.1585 1.03392 30.0095 1.41939 29.9999 1.88534L26.9115 142.161C26.9019 142.627 26.0318 143.004 24.9801 143L19.8933 142.97Z" fill="#414142"/>
<path d="M19.8933 142.97C18.8415 142.966 17.9905 142.581 18.0001 142.115L21.0885 1.83875C21.0981 1.3728 21.9681 0.995799 23.0199 1.00004L28.1067 1.02969C29.1585 1.03393 30.0095 1.41939 29.9999 1.88534L26.9115 142.161C26.9019 142.627 26.0319 143.004 24.9801 143L19.8933 142.97Z" fill="#414142"/>
<path d="M19.8933 142.97C18.8415 142.966 17.9905 142.581 18.0001 142.115L21.0885 1.83875C21.0981 1.3728 21.9682 0.995799 23.0199 1.00004L28.1067 1.02969C29.1585 1.03393 30.0095 1.41939 29.9999 1.88534L26.9115 142.161C26.902 142.627 26.0318 143.004 24.9801 143L19.8933 142.97Z" fill="#414142"/>
<path d="M19.8933 142.97C18.8415 142.966 17.9905 142.581 18.0001 142.115L21.0885 1.83874C21.098 1.37279 21.9682 0.995799 23.0199 1.00004L28.1067 1.02968C29.1585 1.03392 30.0095 1.41939 29.9999 1.88534L26.9115 142.161C26.9019 142.627 26.0318 143.004 24.9801 143L19.8933 142.97Z" fill="#424243"/>
<path d="M19.8933 142.97C18.8415 142.966 17.9905 142.581 18.0001 142.115L21.0885 1.83875C21.0981 1.3728 21.9682 0.995799 23.0199 1.00004L28.1067 1.02969C29.1585 1.03393 30.0095 1.41939 29.9999 1.88534L26.9115 142.161C26.902 142.627 26.0318 143.004 24.9801 143L19.8933 142.97Z" fill="#424243"/>
<path d="M19.8933 141.971C18.8415 141.966 17.9905 141.584 18.0001 141.121L21.0885 1.83284C21.098 1.37017 21.9682 0.995829 23.0199 1.00004L28.1067 1.02948C29.1585 1.03369 30.0095 1.41644 29.9999 1.87911L26.9115 141.167C26.9019 141.63 26.0318 142.004 24.9801 142L19.8933 141.971Z" fill="#434344"/>
<path d="M19.8933 141.971C18.8415 141.966 17.9905 141.584 18.0001 141.121L21.0885 1.83283C21.0981 1.37017 21.9681 0.995829 23.0199 1.00004L28.1067 1.02947C29.1585 1.03368 30.0095 1.41643 29.9999 1.8791L26.9115 141.167C26.9019 141.63 26.0319 142.004 24.9801 142L19.8933 141.971Z" fill="#434344"/>
<path d="M19.8933 141.971C18.8415 141.966 17.9905 141.584 18.0001 141.121L21.0885 1.83283C21.0981 1.37017 21.9682 0.995829 23.0199 1.00004L28.1067 1.02947C29.1585 1.03368 30.0095 1.41643 29.9999 1.8791L26.9115 141.167C26.902 141.63 26.0318 142.004 24.9801 142L19.8933 141.971Z" fill="#444445"/>
<path d="M19.8933 141.971C18.8415 141.966 17.9905 141.584 18.0001 141.121L21.0885 1.83284C21.098 1.37017 21.9682 0.995829 23.0199 1.00004L28.1067 1.02948C29.1585 1.03369 30.0095 1.41644 29.9999 1.87911L26.9115 141.167C26.9019 141.63 26.0318 142.004 24.9801 142L19.8933 141.971Z" fill="#444445"/>
<path d="M19.8933 141.971C18.8415 141.966 17.9905 141.584 18.0001 141.121L21.0885 1.83284C21.0981 1.37017 21.9681 0.995829 23.0199 1.00004L28.1067 1.02948C29.1585 1.03369 30.0095 1.41644 29.9999 1.87911L26.9115 141.167C26.9019 141.63 26.0319 142.004 24.9801 142L19.8933 141.971Z" fill="#454546"/>
<path d="M19.8933 141.971C18.8415 141.966 17.9905 141.584 18.0001 141.121L21.0885 1.83283C21.098 1.37017 21.9682 0.995829 23.0199 1.00004L28.1067 1.02947C29.1585 1.03368 30.0095 1.41643 29.9999 1.8791L26.9115 141.167C26.902 141.63 26.0318 142.004 24.9801 142L19.8933 141.971Z" fill="#454546"/>
<path d="M19.8933 141.971C18.8415 141.966 17.9905 141.584 18.0001 141.121L21.0885 1.83284C21.0981 1.37017 21.9681 0.995829 23.0199 1.00004L28.1067 1.02948C29.1585 1.03369 30.0095 1.41644 29.9999 1.87911L26.9115 141.167C26.9019 141.63 26.0319 142.004 24.9801 142L19.8933 141.971Z" fill="#454546"/>
<path d="M19.8933 141.971C18.8415 141.966 17.9905 141.584 18.0001 141.121L21.0885 1.83284C21.098 1.37017 21.9682 0.995829 23.0199 1.00004L28.1067 1.02948C29.1585 1.03369 30.0095 1.41644 29.9999 1.87911L26.9115 141.167C26.902 141.63 26.0318 142.004 24.9801 142L19.8933 141.971Z" fill="#464647"/>
<path d="M19.8933 141.971C18.8415 141.966 17.9905 141.584 18.0001 141.121L21.0885 1.83283C21.0981 1.37017 21.9681 0.995829 23.0199 1.00004L28.1067 1.02947C29.1585 1.03368 30.0095 1.41643 29.9999 1.8791L26.9115 141.167C26.9019 141.63 26.0319 142.004 24.9801 142L19.8933 141.971Z" fill="#464647"/>
<path d="M19.8933 141.971C18.8415 141.966 17.9905 141.584 18.0001 141.121L21.0885 1.83283C21.0981 1.37017 21.9682 0.995829 23.0199 1.00004L28.1067 1.02947C29.1585 1.03368 30.0095 1.41643 29.9999 1.8791L26.9115 141.167C26.902 141.63 26.0318 142.004 24.9801 142L19.8933 141.971Z" fill="#474748"/>
<path d="M19.8933 141.971C18.8415 141.966 17.9905 141.584 18.0001 141.121L21.0885 1.83284C21.098 1.37017 21.9682 0.995829 23.0199 1.00004L28.1067 1.02948C29.1585 1.03369 30.0095 1.41644 29.9999 1.87911L26.9115 141.167C26.9019 141.63 26.0318 142.004 24.9801 142L19.8933 141.971Z" fill="#474748"/>
<path d="M19.8933 141.971C18.8415 141.966 17.9905 141.584 18.0001 141.121L21.0885 1.83284C21.0981 1.37017 21.9681 0.995829 23.0199 1.00004L28.1067 1.02948C29.1585 1.03369 30.0095 1.41644 29.9999 1.87911L26.9115 141.167C26.9019 141.63 26.0319 142.004 24.9801 142L19.8933 141.971Z" fill="#484749"/>
<path d="M19.8933 141.971C18.8415 141.966 17.9905 141.584 18.0001 141.121L21.0885 1.83283C21.0981 1.37017 21.9682 0.995829 23.0199 1.00004L28.1067 1.02947C29.1585 1.03368 30.0095 1.41643 29.9999 1.8791L26.9115 141.167C26.902 141.63 26.0318 142.004 24.9801 142L19.8933 141.971Z" fill="#484749"/>
<path d="M19.8933 141.971C18.8415 141.966 17.9905 141.584 18.0001 141.121L21.0885 1.83283C21.098 1.37017 21.9682 0.995829 23.0199 1.00004L28.1067 1.02947C29.1585 1.03368 30.0095 1.41643 29.9999 1.8791L26.9115 141.167C26.9019 141.63 26.0318 142.004 24.9801 142L19.8933 141.971Z" fill="#484749"/>
<path d="M19.8933 141.971C18.8415 141.966 17.9905 141.584 18.0001 141.121L21.0885 1.83284C21.0981 1.37017 21.9682 0.995829 23.0199 1.00004L28.1067 1.02948C29.1585 1.03369 30.0095 1.41644 29.9999 1.87911L26.9115 141.167C26.902 141.63 26.0318 142.004 24.9801 142L19.8933 141.971Z" fill="#48484A"/>
<path d="M19.051 141.971C17.9116 141.966 16.9897 141.584 17.0001 141.121L20.3458 1.83283C20.3562 1.37017 21.2988 0.995829 22.4383 1.00004L27.9489 1.02947C29.0884 1.03368 30.0103 1.41643 29.9999 1.8791L26.6541 141.167C26.6438 141.63 25.7012 142.004 24.5617 142L19.051 141.971Z" fill="#48484A"/>
<path d="M19.0511 141.971C17.9116 141.966 16.9897 141.584 17.0001 141.121L20.3459 1.83283C20.3562 1.37017 21.2988 0.995829 22.4383 1.00004L27.9489 1.02947C29.0884 1.03368 30.0103 1.41643 29.9999 1.8791L26.6541 141.167C26.6438 141.63 25.7012 142.004 24.5617 142L19.0511 141.971Z" fill="#49494B"/>
<path d="M19.051 141.971C17.9116 141.966 16.9897 141.584 17.0001 141.121L20.3458 1.83284C20.3562 1.37017 21.2988 0.995829 22.4383 1.00004L27.949 1.02948C29.0884 1.03369 30.0103 1.41644 29.9999 1.87911L26.6542 141.167C26.6438 141.63 25.7012 142.004 24.5617 142L19.051 141.971Z" fill="#49494B"/>
<path d="M19.0511 141.971C17.9116 141.966 16.9897 141.584 17.0001 141.121L20.3459 1.83284C20.3562 1.37017 21.2988 0.995829 22.4383 1.00004L27.9489 1.02948C29.0884 1.03369 30.0103 1.41644 29.9999 1.87911L26.6541 141.167C26.6438 141.63 25.7012 142.004 24.5617 142L19.0511 141.971Z" fill="#4A4A4C"/>
<path d="M19.0511 141.971C17.9116 141.966 16.9897 141.584 17.0001 141.121L20.3459 1.83283C20.3562 1.37017 21.2988 0.995829 22.4383 1.00004L27.9489 1.02947C29.0884 1.03368 30.0103 1.41643 29.9999 1.8791L26.6541 141.167C26.6438 141.63 25.7012 142.004 24.5617 142L19.0511 141.971Z" fill="#4A4A4C"/>
<path d="M19.051 141.97C17.9116 141.966 16.9897 141.581 17.0001 141.115L20.3458 0.838741C20.3562 0.372792 21.2988 -0.00420055 22.4383 3.53496e-05L27.949 0.0296833C29.0884 0.0339192 30.0103 0.419387 29.9999 0.885336L26.6542 141.161C26.6438 141.627 25.7012 142.004 24.5617 142L19.051 141.97Z" fill="#4A4A4C"/>
<path d="M19.0511 141.97C17.9116 141.966 16.9897 141.581 17.0001 141.115L20.3459 0.838747C20.3562 0.372799 21.2988 -0.00420055 22.4383 3.5349e-05L27.949 0.0296897C29.0884 0.0339256 30.0103 0.419394 29.9999 0.885342L26.6542 141.161C26.6438 141.627 25.7012 142.004 24.5617 142L19.0511 141.97Z" fill="#4B4B4D"/>
<path d="M19.051 141.97C17.9116 141.966 16.9897 141.581 17.0001 141.115L20.3458 0.838741C20.3562 0.372792 21.2988 -0.00420055 22.4383 3.53496e-05L27.9489 0.0296833C29.0884 0.0339192 30.0103 0.419387 29.9999 0.885336L26.6541 141.161C26.6438 141.627 25.7012 142.004 24.5617 142L19.051 141.97Z" fill="#4B4B4D"/>
<path d="M19.0511 141.97C17.9116 141.966 16.9897 141.581 17.0001 141.115L20.3459 0.838741C20.3562 0.372792 21.2988 -0.00420055 22.4383 3.53496e-05L27.9489 0.0296833C29.0884 0.0339192 30.0103 0.419387 29.9999 0.885336L26.6541 141.161C26.6438 141.627 25.7012 142.004 24.5617 142L19.0511 141.97Z" fill="#4C4C4E"/>
<path d="M19.0511 141.97C17.9116 141.966 16.9897 141.581 17.0001 141.115L20.3459 0.838747C20.3562 0.372799 21.2988 -0.00420055 22.4383 3.5349e-05L27.949 0.0296897C29.0884 0.0339256 30.0103 0.419394 29.9999 0.885342L26.6542 141.161C26.6438 141.627 25.7012 142.004 24.5617 142L19.0511 141.97Z" fill="#4C4C4E"/>
<path d="M19.051 141.97C17.9116 141.966 16.9897 141.581 17.0001 141.115L20.3458 0.838747C20.3562 0.372799 21.2988 -0.00420055 22.4383 3.5349e-05L27.9489 0.0296897C29.0884 0.0339256 30.0103 0.419394 29.9999 0.885342L26.6541 141.161C26.6438 141.627 25.7012 142.004 24.5617 142L19.051 141.97Z" fill="#4D4D4F"/>
<path d="M19.0511 141.97C17.9116 141.966 16.9897 141.581 17.0001 141.115L20.3459 0.838741C20.3562 0.372792 21.2988 -0.00420055 22.4383 3.53496e-05L27.9489 0.0296833C29.0884 0.0339192 30.0103 0.419387 29.9999 0.885336L26.6541 141.161C26.6438 141.627 25.7012 142.004 24.5617 142L19.0511 141.97Z" fill="#4D4D4F"/>
<path d="M19.0511 141.97C17.9116 141.966 16.9897 141.581 17.0001 141.115L20.3459 0.838741C20.3562 0.372792 21.2988 -0.00420055 22.4383 3.53496e-05L27.949 0.0296833C29.0884 0.0339192 30.0103 0.419387 29.9999 0.885336L26.6542 141.161C26.6438 141.627 25.7012 142.004 24.5617 142L19.0511 141.97Z" fill="#4D4D4F"/>
<path d="M19.0511 141.97C17.9116 141.966 16.9897 141.581 17.0001 141.115L20.3459 0.838747C20.3562 0.372799 21.2988 -0.00420055 22.4383 3.5349e-05L27.9489 0.0296897C29.0884 0.0339256 30.0103 0.419394 29.9999 0.885342L26.6541 141.161C26.6438 141.627 25.7012 142.004 24.5617 142L19.0511 141.97Z" fill="#4E4E50"/>
<path d="M19.0511 141.97C17.9116 141.966 16.9897 141.581 17.0001 141.115L20.3459 0.838741C20.3562 0.372792 21.2988 -0.00420055 22.4383 3.53496e-05L27.949 0.0296833C29.0884 0.0339192 30.0103 0.419387 29.9999 0.885336L26.6542 141.161C26.6438 141.627 25.7012 142.004 24.5617 142L19.0511 141.97Z" fill="#4E4E50"/>
<path d="M19.051 141.97C17.9116 141.966 16.9897 141.581 17.0001 141.115L20.3458 0.838741C20.3562 0.372792 21.2988 -0.00420055 22.4383 3.53496e-05L27.9489 0.0296833C29.0884 0.0339192 30.0103 0.419387 29.9999 0.885336L26.6541 141.161C26.6438 141.627 25.7012 142.004 24.5617 142L19.051 141.97Z" fill="#4F4F51"/>
<path d="M19.0511 141.97C17.9116 141.966 16.9897 141.581 17.0001 141.115L20.3459 0.838747C20.3562 0.372799 21.2988 -0.00420055 22.4383 3.5349e-05L27.9489 0.0296897C29.0884 0.0339256 30.0103 0.419394 29.9999 0.885342L26.6541 141.161C26.6438 141.627 25.7012 142.004 24.5617 142L19.0511 141.97Z" fill="#4F4F51"/>
<path d="M19.051 141.97C17.9116 141.966 16.9897 141.581 17.0001 141.115L20.3458 0.838747C20.3562 0.372799 21.2988 -0.00420055 22.4383 3.5349e-05L27.949 0.0296897C29.0884 0.0339256 30.0103 0.419394 29.9999 0.885342L26.6542 141.161C26.6438 141.627 25.7012 142.004 24.5617 142L19.051 141.97Z" fill="#505052"/>
<path d="M19.0511 141.97C17.9116 141.966 16.9897 141.581 17.0001 141.115L20.3459 0.838741C20.3562 0.372792 21.2988 -0.00420055 22.4383 3.53496e-05L27.9489 0.0296833C29.0884 0.0339192 30.0103 0.419387 29.9999 0.885336L26.6541 141.161C26.6438 141.627 25.7012 142.004 24.5617 142L19.0511 141.97Z" fill="#505052"/>
<path d="M19.0511 141.97C17.9116 141.966 16.9897 141.581 17.0001 141.115L20.3459 0.838741C20.3562 0.372792 21.2988 -0.00420055 22.4383 3.53496e-05L27.949 0.0296833C29.0884 0.0339192 30.0103 0.419387 29.9999 0.885336L26.6542 141.161C26.6438 141.627 25.7012 142.004 24.5617 142L19.0511 141.97Z" fill="#505052"/>
<path d="M19.0511 141.97C17.9116 141.966 16.9897 141.581 17.0001 141.115L20.3459 0.838747C20.3562 0.372799 21.2988 -0.00420055 22.4383 3.5349e-05L27.9489 0.0296897C29.0884 0.0339256 30.0103 0.419394 29.9999 0.885342L26.6541 141.161C26.6438 141.627 25.7012 142.004 24.5617 142L19.0511 141.97Z" fill="#505152"/>
<path d="M19.0511 141.97C17.9116 141.966 16.9897 141.581 17.0001 141.115L20.3459 0.838747C20.3562 0.372799 21.2988 -0.00420055 22.4383 3.5349e-05L27.949 0.0296897C29.0884 0.0339256 30.0103 0.419394 29.9999 0.885342L26.6542 141.161C26.6438 141.627 25.7012 142.004 24.5617 142L19.0511 141.97Z" fill="#505152"/>
<path d="M19.051 141.97C17.9116 141.966 16.9897 141.581 17.0001 141.115L20.3458 0.838741C20.3562 0.372792 21.2988 -0.00420055 22.4383 3.53496e-05L27.9489 0.0296833C29.0884 0.0339192 30.0103 0.419387 29.9999 0.885336L26.6541 141.161C26.6438 141.627 25.7012 142.004 24.5617 142L19.051 141.97Z" fill="#515153"/>
<path d="M19.0511 141.97C17.9116 141.966 16.9897 141.581 17.0001 141.115L20.3459 0.838747C20.3562 0.372799 21.2988 -0.00420055 22.4383 3.5349e-05L27.9489 0.0296897C29.0884 0.0339256 30.0103 0.419394 29.9999 0.885342L26.6541 141.161C26.6438 141.627 25.7012 142.004 24.5617 142L19.0511 141.97Z" fill="#515153"/>
<path d="M19.0511 141.97C17.9116 141.966 16.9897 141.581 17.0001 141.115L20.3459 0.838747C20.3562 0.372799 21.2988 -0.00420055 22.4383 3.5349e-05L27.949 0.0296897C29.0884 0.0339256 30.0103 0.419394 29.9999 0.885342L26.6542 141.161C26.6438 141.627 25.7012 142.004 24.5617 142L19.0511 141.97Z" fill="#525254"/>
<path d="M19.051 141.97C17.9116 141.966 16.9897 141.581 17.0001 141.115L20.3458 0.838741C20.3562 0.372792 21.2988 -0.00420055 22.4383 3.53496e-05L27.9489 0.0296833C29.0884 0.0339192 30.0103 0.419387 29.9999 0.885336L26.6541 141.161C26.6438 141.627 25.7012 142.004 24.5617 142L19.051 141.97Z" fill="#525254"/>
<path d="M116.949 143.97C118.088 143.966 119.01 143.581 119 143.115L115.654 2.83875C115.644 2.3728 114.701 1.9958 113.562 2.00004L108.051 2.02969C106.912 2.03393 105.99 2.41939 106 2.88534L109.346 143.161C109.356 143.627 110.299 144.004 111.438 144L116.949 143.97Z" fill="#272525"/>
<path d="M116.949 143.97C118.088 143.966 119.01 143.581 119 143.115L115.654 2.83875C115.644 2.3728 114.701 1.9958 113.562 2.00004L108.051 2.02969C106.912 2.03393 105.99 2.41939 106 2.88534L109.346 143.161C109.356 143.627 110.299 144.004 111.438 144L116.949 143.97Z" fill="#272525"/>
<path d="M116.949 143.97C118.088 143.966 119.01 143.581 119 143.115L115.654 2.83874C115.644 2.37279 114.701 1.9958 113.562 2.00004L108.051 2.02968C106.912 2.03392 105.99 2.41939 106 2.88534L109.346 143.161C109.356 143.627 110.299 144.004 111.438 144L116.949 143.97Z" fill="#272525"/>
<path d="M116.949 143.97C118.088 143.966 119.01 143.581 119 143.115L115.654 2.83874C115.644 2.37279 114.701 1.9958 113.562 2.00004L108.051 2.02968C106.912 2.03392 105.99 2.41939 106 2.88534L109.346 143.161C109.356 143.627 110.299 144.004 111.438 144L116.949 143.97Z" fill="#282627"/>
<path d="M116.949 143.97C118.088 143.966 119.01 143.581 119 143.115L115.654 2.83875C115.644 2.3728 114.701 1.9958 113.562 2.00004L108.051 2.02969C106.912 2.03393 105.99 2.41939 106 2.88534L109.346 143.161C109.356 143.627 110.299 144.004 111.438 144L116.949 143.97Z" fill="#282627"/>
<path d="M116.949 143.97C118.088 143.966 119.01 143.581 119 143.115L115.654 2.83875C115.644 2.3728 114.701 1.9958 113.562 2.00004L108.051 2.02969C106.912 2.03393 105.99 2.41939 106 2.88534L109.346 143.161C109.356 143.627 110.299 144.004 111.438 144L116.949 143.97Z" fill="#292728"/>
<path d="M116.949 143.97C118.088 143.966 119.01 143.581 119 143.115L115.654 2.83874C115.644 2.37279 114.701 1.9958 113.562 2.00004L108.051 2.02968C106.912 2.03392 105.99 2.41939 106 2.88534L109.346 143.161C109.356 143.627 110.299 144.004 111.438 144L116.949 143.97Z" fill="#292728"/>
<path d="M116.949 143.97C118.088 143.966 119.01 143.581 119 143.115L115.654 2.83875C115.644 2.3728 114.701 1.9958 113.562 2.00004L108.051 2.02969C106.912 2.03393 105.99 2.41939 106 2.88534L109.346 143.161C109.356 143.627 110.299 144.004 111.438 144L116.949 143.97Z" fill="#2A2829"/>
<path d="M116.949 143.97C118.088 143.966 119.01 143.581 119 143.115L115.654 2.83875C115.644 2.3728 114.701 1.9958 113.562 2.00004L108.051 2.02969C106.912 2.03393 105.99 2.41939 106 2.88534L109.346 143.161C109.356 143.627 110.299 144.004 111.438 144L116.949 143.97Z" fill="#2A2829"/>
<path d="M116.949 143.97C118.088 143.966 119.01 143.581 119 143.115L115.654 2.83874C115.644 2.37279 114.701 1.9958 113.562 2.00004L108.051 2.02968C106.912 2.03392 105.99 2.41939 106 2.88534L109.346 143.161C109.356 143.627 110.299 144.004 111.438 144L116.949 143.97Z" fill="#2A2829"/>
<path d="M116.949 143.97C118.088 143.966 119.01 143.581 119 143.115L115.654 2.83874C115.644 2.37279 114.701 1.9958 113.562 2.00004L108.051 2.02968C106.912 2.03392 105.99 2.41939 106 2.88534L109.346 143.161C109.356 143.627 110.299 144.004 111.438 144L116.949 143.97Z" fill="#2C2A2A"/>
<path d="M116.949 143.97C118.088 143.966 119.01 143.581 119 143.115L115.654 2.83875C115.644 2.3728 114.701 1.9958 113.562 2.00004L108.051 2.02969C106.912 2.03393 105.99 2.41939 106 2.88534L109.346 143.161C109.356 143.627 110.299 144.004 111.438 144L116.949 143.97Z" fill="#2C2A2A"/>
<path d="M116.949 143.97C118.088 143.966 119.01 143.581 119 143.115L115.654 2.83875C115.644 2.3728 114.701 1.9958 113.562 2.00004L108.051 2.02969C106.912 2.03393 105.99 2.41939 106 2.88534L109.346 143.161C109.356 143.627 110.299 144.004 111.438 144L116.949 143.97Z" fill="#2D2B2C"/>
<path d="M116.949 143.97C118.088 143.966 119.01 143.581 119 143.115L115.654 2.83874C115.644 2.37279 114.701 1.9958 113.562 2.00004L108.051 2.02968C106.912 2.03392 105.99 2.41939 106 2.88534L109.346 143.161C109.356 143.627 110.299 144.004 111.438 144L116.949 143.97Z" fill="#2D2B2C"/>
<path d="M116.949 143.97C118.088 143.966 119.01 143.581 119 143.115L115.654 2.83875C115.644 2.3728 114.701 1.9958 113.562 2.00004L108.051 2.02969C106.912 2.03393 105.99 2.41939 106 2.88534L109.346 143.161C109.356 143.627 110.299 144.004 111.438 144L116.949 143.97Z" fill="#2E2C2D"/>
<path d="M116.949 143.97C118.088 143.966 119.01 143.581 119 143.115L115.654 2.83875C115.644 2.3728 114.701 1.9958 113.562 2.00004L108.051 2.02969C106.912 2.03393 105.99 2.41939 106 2.88534L109.346 143.161C109.356 143.627 110.299 144.004 111.438 144L116.949 143.97Z" fill="#2E2C2D"/>
<path d="M116.949 143.97C118.088 143.966 119.01 143.581 119 143.115L115.654 2.83874C115.644 2.37279 114.701 1.9958 113.562 2.00004L108.051 2.02968C106.912 2.03392 105.99 2.41939 106 2.88534L109.346 143.161C109.356 143.627 110.299 144.004 111.438 144L116.949 143.97Z" fill="#2E2C2D"/>
<path d="M116.949 143.97C118.088 143.966 119.01 143.581 119 143.115L115.654 2.83874C115.644 2.37279 114.701 1.9958 113.562 2.00004L108.051 2.02968C106.912 2.03392 105.99 2.41939 106 2.88534L109.346 143.161C109.356 143.627 110.299 144.004 111.438 144L116.949 143.97Z" fill="#2F2D2E"/>
<path d="M116.949 143.97C118.088 143.966 119.01 143.581 119 143.115L115.654 2.83875C115.644 2.3728 114.701 1.9958 113.562 2.00004L108.051 2.02969C106.912 2.03393 105.99 2.41939 106 2.88534L109.346 143.161C109.356 143.627 110.299 144.004 111.438 144L116.949 143.97Z" fill="#2F2D2E"/>
<path d="M116.949 143.97C118.088 143.966 119.01 143.581 119 143.115L115.654 2.83875C115.644 2.3728 114.701 1.9958 113.562 2.00004L108.051 2.02969C106.912 2.03393 105.99 2.41939 106 2.88534L109.346 143.161C109.356 143.627 110.299 144.004 111.438 144L116.949 143.97Z" fill="#302F30"/>
<path d="M116.949 142.971C118.088 142.966 119.01 142.584 119 142.121L115.654 2.83283C115.644 2.37017 114.701 1.99583 113.562 2.00004L108.051 2.02947C106.912 2.03368 105.99 2.41643 106 2.8791L109.346 142.167C109.356 142.63 110.299 143.004 111.438 143L116.949 142.971Z" fill="#302F30"/>
<path d="M116.949 142.971C118.088 142.966 119.01 142.584 119 142.121L115.654 2.83284C115.644 2.37017 114.701 1.99583 113.562 2.00004L108.051 2.02948C106.912 2.03369 105.99 2.41644 106 2.87911L109.346 142.167C109.356 142.63 110.299 143.004 111.438 143L116.949 142.971Z" fill="#313031"/>
<path d="M116.949 142.971C118.088 142.966 119.01 142.584 119 142.121L115.654 2.83284C115.644 2.37017 114.701 1.99583 113.562 2.00004L108.051 2.02948C106.912 2.03369 105.99 2.41644 106 2.87911L109.346 142.167C109.356 142.63 110.299 143.004 111.438 143L116.949 142.971Z" fill="#313031"/>
<path d="M116.949 142.971C118.088 142.966 119.01 142.584 119 142.121L115.654 2.83283C115.644 2.37017 114.701 1.99583 113.562 2.00004L108.051 2.02947C106.912 2.03368 105.99 2.41643 106 2.8791L109.346 142.167C109.356 142.63 110.299 143.004 111.438 143L116.949 142.971Z" fill="#313031"/>
<path d="M117.107 142.971C118.159 142.966 119.009 142.584 119 142.121L115.912 2.83283C115.902 2.37017 115.032 1.99583 113.98 2.00004L108.893 2.02947C107.841 2.03368 106.991 2.41643 107 2.8791L110.088 142.167C110.098 142.63 110.968 143.004 112.02 143L117.107 142.971Z" fill="#323132"/>
<path d="M117.107 142.971C118.159 142.966 119.009 142.584 119 142.121L115.912 2.83284C115.902 2.37017 115.032 1.99583 113.98 2.00004L108.893 2.02948C107.841 2.03369 106.991 2.41644 107 2.87911L110.088 142.167C110.098 142.63 110.968 143.004 112.02 143L117.107 142.971Z" fill="#323132"/>
<path d="M117.107 142.971C118.158 142.966 119.009 142.584 119 142.121L115.911 2.83284C115.902 2.37017 115.032 1.99583 113.98 2.00004L108.893 2.02948C107.842 2.03369 106.991 2.41644 107 2.87911L110.089 142.167C110.098 142.63 110.968 143.004 112.02 143L117.107 142.971Z" fill="#343233"/>
<path d="M117.107 142.971C118.159 142.966 119.009 142.584 119 142.121L115.912 2.83283C115.902 2.37017 115.032 1.99583 113.98 2.00004L108.893 2.02947C107.841 2.03368 106.991 2.41643 107 2.8791L110.088 142.167C110.098 142.63 110.968 143.004 112.02 143L117.107 142.971Z" fill="#343233"/>
<path d="M117.107 142.971C118.159 142.966 119.009 142.584 119 142.121L115.912 2.83283C115.902 2.37017 115.032 1.99583 113.98 2.00004L108.893 2.02947C107.841 2.03368 106.991 2.41643 107 2.8791L110.088 142.167C110.098 142.63 110.968 143.004 112.02 143L117.107 142.971Z" fill="#353435"/>
<path d="M117.107 142.971C118.158 142.966 119.009 142.584 119 142.121L115.911 2.83284C115.902 2.37017 115.032 1.99583 113.98 2.00004L108.893 2.02948C107.842 2.03369 106.991 2.41644 107 2.87911L110.089 142.167C110.098 142.63 110.968 143.004 112.02 143L117.107 142.971Z" fill="#353435"/>
<path d="M117.107 142.971C118.159 142.966 119.009 142.584 119 142.121L115.912 2.83283C115.902 2.37017 115.032 1.99583 113.98 2.00004L108.893 2.02947C107.841 2.03368 106.991 2.41643 107 2.8791L110.088 142.167C110.098 142.63 110.968 143.004 112.02 143L117.107 142.971Z" fill="#353435"/>
<path d="M117.107 142.971C118.159 142.966 119.009 142.584 119 142.121L115.912 2.83283C115.902 2.37017 115.032 1.99583 113.98 2.00004L108.893 2.02947C107.841 2.03368 106.991 2.41643 107 2.8791L110.088 142.167C110.098 142.63 110.968 143.004 112.02 143L117.107 142.971Z" fill="#363536"/>
<path d="M117.107 142.971C118.158 142.966 119.009 142.584 119 142.121L115.911 2.83284C115.902 2.37017 115.032 1.99583 113.98 2.00004L108.893 2.02948C107.841 2.03369 106.991 2.41644 107 2.87911L110.088 142.167C110.098 142.63 110.968 143.004 112.02 143L117.107 142.971Z" fill="#363536"/>
<path d="M117.107 142.971C118.159 142.966 119.009 142.584 119 142.121L115.912 2.83284C115.902 2.37017 115.032 1.99583 113.98 2.00004L108.893 2.02948C107.842 2.03369 106.991 2.41644 107 2.87911L110.089 142.167C110.098 142.63 110.968 143.004 112.02 143L117.107 142.971Z" fill="#373637"/>
<path d="M117.107 142.971C118.159 142.966 119.009 142.584 119 142.121L115.912 2.83283C115.902 2.37017 115.032 1.99583 113.98 2.00004L108.893 2.02947C107.841 2.03368 106.991 2.41643 107 2.8791L110.088 142.167C110.098 142.63 110.968 143.004 112.02 143L117.107 142.971Z" fill="#373637"/>
<path d="M117.107 142.971C118.158 142.966 119.009 142.584 119 142.121L115.911 2.83283C115.902 2.37017 115.032 1.99583 113.98 2.00004L108.893 2.02947C107.841 2.03368 106.991 2.41643 107 2.8791L110.088 142.167C110.098 142.63 110.968 143.004 112.02 143L117.107 142.971Z" fill="#383738"/>
<path d="M117.107 142.971C118.159 142.966 119.009 142.584 119 142.121L115.912 2.83284C115.902 2.37017 115.032 1.99583 113.98 2.00004L108.893 2.02948C107.842 2.03369 106.991 2.41644 107 2.87911L110.089 142.167C110.098 142.63 110.968 143.004 112.02 143L117.107 142.971Z" fill="#383738"/>
<path d="M117.107 142.971C118.159 142.966 119.009 142.584 119 142.121L115.912 2.83283C115.902 2.37017 115.032 1.99583 113.98 2.00004L108.893 2.02947C107.841 2.03368 106.991 2.41643 107 2.8791L110.088 142.167C110.098 142.63 110.968 143.004 112.02 143L117.107 142.971Z" fill="#383738"/>
<path d="M117.107 142.971C118.159 142.966 119.009 142.584 119 142.121L115.912 2.83283C115.902 2.37017 115.032 1.99583 113.98 2.00004L108.893 2.02947C107.841 2.03368 106.991 2.41643 107 2.8791L110.088 142.167C110.098 142.63 110.968 143.004 112.02 143L117.107 142.971Z" fill="#393839"/>
<path d="M117.107 142.97C118.158 142.966 119.009 142.581 119 142.115L115.911 1.83875C115.902 1.3728 115.032 0.995799 113.98 1.00004L108.893 1.02969C107.842 1.03393 106.991 1.41939 107 1.88534L110.089 142.161C110.098 142.627 110.968 143.004 112.02 143L117.107 142.97Z" fill="#393839"/>
<path d="M117.107 142.97C118.159 142.966 119.009 142.581 119 142.115L115.912 1.83875C115.902 1.3728 115.032 0.995799 113.98 1.00004L108.893 1.02969C107.841 1.03393 106.991 1.41939 107 1.88534L110.088 142.161C110.098 142.627 110.968 143.004 112.02 143L117.107 142.97Z" fill="#3A393B"/>
<path d="M117.107 142.97C118.159 142.966 119.009 142.581 119 142.115L115.912 1.83874C115.902 1.37279 115.032 0.995799 113.98 1.00004L108.893 1.02968C107.841 1.03392 106.991 1.41939 107 1.88534L110.088 142.161C110.098 142.627 110.968 143.004 112.02 143L117.107 142.97Z" fill="#3A393B"/>
<path d="M117.107 142.97C118.158 142.966 119.009 142.581 119 142.115L115.911 1.83874C115.902 1.37279 115.032 0.995799 113.98 1.00004L108.893 1.02968C107.841 1.03392 106.991 1.41939 107 1.88534L110.088 142.161C110.098 142.627 110.968 143.004 112.02 143L117.107 142.97Z" fill="#3B3A3C"/>
<path d="M117.107 142.97C118.159 142.966 119.009 142.581 119 142.115L115.912 1.83875C115.902 1.3728 115.032 0.995799 113.98 1.00004L108.893 1.02969C107.842 1.03393 106.991 1.41939 107 1.88534L110.089 142.161C110.098 142.627 110.968 143.004 112.02 143L117.107 142.97Z" fill="#3B3A3C"/>
<path d="M117.107 142.97C118.159 142.966 119.009 142.581 119 142.115L115.912 1.83874C115.902 1.37279 115.032 0.995799 113.98 1.00004L108.893 1.02968C107.841 1.03392 106.991 1.41939 107 1.88534L110.088 142.161C110.098 142.627 110.968 143.004 112.02 143L117.107 142.97Z" fill="#3B3A3C"/>
<path d="M117.107 142.97C118.158 142.966 119.009 142.581 119 142.115L115.911 1.83874C115.902 1.37279 115.032 0.995799 113.98 1.00004L108.893 1.02968C107.841 1.03392 106.991 1.41939 107 1.88534L110.088 142.161C110.098 142.627 110.968 143.004 112.02 143L117.107 142.97Z" fill="#3C3C3D"/>
<path d="M117.107 142.97C118.158 142.966 119.009 142.581 119 142.115L115.911 1.83875C115.902 1.3728 115.032 0.995799 113.98 1.00004L108.893 1.02969C107.842 1.03393 106.991 1.41939 107 1.88534L110.089 142.161C110.098 142.627 110.968 143.004 112.02 143L117.107 142.97Z" fill="#3C3C3D"/>
<path d="M117.107 142.97C118.159 142.966 119.009 142.581 119 142.115L115.912 1.83875C115.902 1.3728 115.032 0.995799 113.98 1.00004L108.893 1.02969C107.841 1.03393 106.991 1.41939 107 1.88534L110.088 142.161C110.098 142.627 110.968 143.004 112.02 143L117.107 142.97Z" fill="#3D3D3E"/>
<path d="M117.949 142.97C119.088 142.966 120.01 142.581 120 142.115L116.654 1.83874C116.644 1.37279 115.701 0.995799 114.562 1.00004L109.051 1.02968C107.912 1.03392 106.99 1.41939 107 1.88534L110.346 142.161C110.356 142.627 111.299 143.004 112.438 143L117.949 142.97Z" fill="#3D3D3E"/>
<path d="M117.949 142.97C119.088 142.966 120.01 142.581 120 142.115L116.654 1.83874C116.644 1.37279 115.701 0.995799 114.562 1.00004L109.051 1.02968C107.912 1.03392 106.99 1.41939 107 1.88534L110.346 142.161C110.356 142.627 111.299 143.004 112.438 143L117.949 142.97Z" fill="#3E3E3F"/>
<path d="M117.949 142.97C119.088 142.966 120.01 142.581 120 142.115L116.654 1.83875C116.644 1.3728 115.701 0.995799 114.562 1.00004L109.051 1.02969C107.912 1.03393 106.99 1.41939 107 1.88534L110.346 142.161C110.356 142.627 111.299 143.004 112.438 143L117.949 142.97Z" fill="#3E3E3F"/>
<path d="M117.949 142.97C119.088 142.966 120.01 142.581 120 142.115L116.654 1.83875C116.644 1.3728 115.701 0.995799 114.562 1.00004L109.051 1.02969C107.912 1.03393 106.99 1.41939 107 1.88534L110.346 142.161C110.356 142.627 111.299 143.004 112.438 143L117.949 142.97Z" fill="#3E3E3F"/>
<path d="M117.949 142.97C119.088 142.966 120.01 142.581 120 142.115L116.654 1.83874C116.644 1.37279 115.701 0.995799 114.562 1.00004L109.051 1.02968C107.912 1.03392 106.99 1.41939 107 1.88534L110.346 142.161C110.356 142.627 111.299 143.004 112.438 143L117.949 142.97Z" fill="#3F3F40"/>
<path d="M117.949 142.97C119.088 142.966 120.01 142.581 120 142.115L116.654 1.83875C116.644 1.3728 115.701 0.995799 114.562 1.00004L109.051 1.02969C107.912 1.03393 106.99 1.41939 107 1.88534L110.346 142.161C110.356 142.627 111.299 143.004 112.438 143L117.949 142.97Z" fill="#3F3F40"/>
<path d="M117.949 142.97C119.088 142.966 120.01 142.581 120 142.115L116.654 1.83875C116.644 1.3728 115.701 0.995799 114.562 1.00004L109.051 1.02969C107.912 1.03393 106.99 1.41939 107 1.88534L110.346 142.161C110.356 142.627 111.299 143.004 112.438 143L117.949 142.97Z" fill="#404041"/>
<path d="M117.949 142.97C119.088 142.966 120.01 142.581 120 142.115L116.654 1.83874C116.644 1.37279 115.701 0.995799 114.562 1.00004L109.051 1.02968C107.912 1.03392 106.99 1.41939 107 1.88534L110.346 142.161C110.356 142.627 111.299 143.004 112.438 143L117.949 142.97Z" fill="#404041"/>
<path d="M117.949 142.97C119.088 142.966 120.01 142.581 120 142.115L116.654 1.83874C116.644 1.37279 115.701 0.995799 114.562 1.00004L109.051 1.02968C107.912 1.03392 106.99 1.41939 107 1.88534L110.346 142.161C110.356 142.627 111.299 143.004 112.438 143L117.949 142.97Z" fill="#414142"/>
<path d="M117.949 142.97C119.088 142.966 120.01 142.581 120 142.115L116.654 1.83875C116.644 1.3728 115.701 0.995799 114.562 1.00004L109.051 1.02969C107.912 1.03393 106.99 1.41939 107 1.88534L110.346 142.161C110.356 142.627 111.299 143.004 112.438 143L117.949 142.97Z" fill="#414142"/>
<path d="M117.949 142.97C119.088 142.966 120.01 142.581 120 142.115L116.654 1.83875C116.644 1.3728 115.701 0.995799 114.562 1.00004L109.051 1.02969C107.912 1.03393 106.99 1.41939 107 1.88534L110.346 142.161C110.356 142.627 111.299 143.004 112.438 143L117.949 142.97Z" fill="#414142"/>
<path d="M117.949 142.97C119.088 142.966 120.01 142.581 120 142.115L116.654 1.83874C116.644 1.37279 115.701 0.995799 114.562 1.00004L109.051 1.02968C107.912 1.03392 106.99 1.41939 107 1.88534L110.346 142.161C110.356 142.627 111.299 143.004 112.438 143L117.949 142.97Z" fill="#424243"/>
<path d="M117.949 142.97C119.088 142.966 120.01 142.581 120 142.115L116.654 1.83875C116.644 1.3728 115.701 0.995799 114.562 1.00004L109.051 1.02969C107.912 1.03393 106.99 1.41939 107 1.88534L110.346 142.161C110.356 142.627 111.299 143.004 112.438 143L117.949 142.97Z" fill="#424243"/>
<path d="M117.949 141.971C119.088 141.966 120.01 141.584 120 141.121L116.654 1.83284C116.644 1.37017 115.701 0.995829 114.562 1.00004L109.051 1.02948C107.912 1.03369 106.99 1.41644 107 1.87911L110.346 141.167C110.356 141.63 111.299 142.004 112.438 142L117.949 141.971Z" fill="#434344"/>
<path d="M117.949 141.971C119.088 141.966 120.01 141.584 120 141.121L116.654 1.83283C116.644 1.37017 115.701 0.995829 114.562 1.00004L109.051 1.02947C107.912 1.03368 106.99 1.41643 107 1.8791L110.346 141.167C110.356 141.63 111.299 142.004 112.438 142L117.949 141.971Z" fill="#434344"/>
<path d="M117.949 141.971C119.088 141.966 120.01 141.584 120 141.121L116.654 1.83283C116.644 1.37017 115.701 0.995829 114.562 1.00004L109.051 1.02947C107.912 1.03368 106.99 1.41643 107 1.8791L110.346 141.167C110.356 141.63 111.299 142.004 112.438 142L117.949 141.971Z" fill="#444445"/>
<path d="M117.949 141.971C119.088 141.966 120.01 141.584 120 141.121L116.654 1.83284C116.644 1.37017 115.701 0.995829 114.562 1.00004L109.051 1.02948C107.912 1.03369 106.99 1.41644 107 1.87911L110.346 141.167C110.356 141.63 111.299 142.004 112.438 142L117.949 141.971Z" fill="#444445"/>
<path d="M117.949 141.971C119.088 141.966 120.01 141.584 120 141.121L116.654 1.83284C116.644 1.37017 115.701 0.995829 114.562 1.00004L109.051 1.02948C107.912 1.03369 106.99 1.41644 107 1.87911L110.346 141.167C110.356 141.63 111.299 142.004 112.438 142L117.949 141.971Z" fill="#454546"/>
<path d="M117.949 141.971C119.088 141.966 120.01 141.584 120 141.121L116.654 1.83283C116.644 1.37017 115.701 0.995829 114.562 1.00004L109.051 1.02947C107.912 1.03368 106.99 1.41643 107 1.8791L110.346 141.167C110.356 141.63 111.299 142.004 112.438 142L117.949 141.971Z" fill="#454546"/>
<path d="M117.949 141.971C119.088 141.966 120.01 141.584 120 141.121L116.654 1.83284C116.644 1.37017 115.701 0.995829 114.562 1.00004L109.051 1.02948C107.912 1.03369 106.99 1.41644 107 1.87911L110.346 141.167C110.356 141.63 111.299 142.004 112.438 142L117.949 141.971Z" fill="#454546"/>
<path d="M117.949 141.971C119.088 141.966 120.01 141.584 120 141.121L116.654 1.83284C116.644 1.37017 115.701 0.995829 114.562 1.00004L109.051 1.02948C107.912 1.03369 106.99 1.41644 107 1.87911L110.346 141.167C110.356 141.63 111.299 142.004 112.438 142L117.949 141.971Z" fill="#464647"/>
<path d="M117.949 141.971C119.088 141.966 120.01 141.584 120 141.121L116.654 1.83283C116.644 1.37017 115.701 0.995829 114.562 1.00004L109.051 1.02947C107.912 1.03368 106.99 1.41643 107 1.8791L110.346 141.167C110.356 141.63 111.299 142.004 112.438 142L117.949 141.971Z" fill="#464647"/>
<path d="M117.949 141.971C119.088 141.966 120.01 141.584 120 141.121L116.654 1.83283C116.644 1.37017 115.701 0.995829 114.562 1.00004L109.051 1.02947C107.912 1.03368 106.99 1.41643 107 1.8791L110.346 141.167C110.356 141.63 111.299 142.004 112.438 142L117.949 141.971Z" fill="#474748"/>
<path d="M117.949 141.971C119.088 141.966 120.01 141.584 120 141.121L116.654 1.83284C116.644 1.37017 115.701 0.995829 114.562 1.00004L109.051 1.02948C107.912 1.03369 106.99 1.41644 107 1.87911L110.346 141.167C110.356 141.63 111.299 142.004 112.438 142L117.949 141.971Z" fill="#474748"/>
<path d="M117.949 141.971C119.088 141.966 120.01 141.584 120 141.121L116.654 1.83284C116.644 1.37017 115.701 0.995829 114.562 1.00004L109.051 1.02948C107.912 1.03369 106.99 1.41644 107 1.87911L110.346 141.167C110.356 141.63 111.299 142.004 112.438 142L117.949 141.971Z" fill="#484749"/>
<path d="M117.949 141.971C119.088 141.966 120.01 141.584 120 141.121L116.654 1.83283C116.644 1.37017 115.701 0.995829 114.562 1.00004L109.051 1.02947C107.912 1.03368 106.99 1.41643 107 1.8791L110.346 141.167C110.356 141.63 111.299 142.004 112.438 142L117.949 141.971Z" fill="#484749"/>
<path d="M117.949 141.971C119.088 141.966 120.01 141.584 120 141.121L116.654 1.83283C116.644 1.37017 115.701 0.995829 114.562 1.00004L109.051 1.02947C107.912 1.03368 106.99 1.41643 107 1.8791L110.346 141.167C110.356 141.63 111.299 142.004 112.438 142L117.949 141.971Z" fill="#484749"/>
<path d="M117.949 141.971C119.088 141.966 120.01 141.584 120 141.121L116.654 1.83284C116.644 1.37017 115.701 0.995829 114.562 1.00004L109.051 1.02948C107.912 1.03369 106.99 1.41644 107 1.87911L110.346 141.167C110.356 141.63 111.299 142.004 112.438 142L117.949 141.971Z" fill="#48484A"/>
<path d="M117.949 141.971C119.088 141.966 120.01 141.584 120 141.121L116.654 1.83283C116.644 1.37017 115.701 0.995829 114.562 1.00004L109.051 1.02947C107.912 1.03368 106.99 1.41643 107 1.8791L110.346 141.167C110.356 141.63 111.299 142.004 112.438 142L117.949 141.971Z" fill="#48484A"/>
<path d="M117.949 141.971C119.088 141.966 120.01 141.584 120 141.121L116.654 1.83283C116.644 1.37017 115.701 0.995829 114.562 1.00004L109.051 1.02947C107.912 1.03368 106.99 1.41643 107 1.8791L110.346 141.167C110.356 141.63 111.299 142.004 112.438 142L117.949 141.971Z" fill="#49494B"/>
<path d="M118.107 141.971C119.159 141.966 120.009 141.584 120 141.121L116.912 1.83284C116.902 1.37017 116.032 0.995829 114.98 1.00004L109.893 1.02948C108.841 1.03369 107.991 1.41644 108 1.87911L111.088 141.167C111.098 141.63 111.968 142.004 113.02 142L118.107 141.971Z" fill="#49494B"/>
<path d="M118.107 141.971C119.158 141.966 120.009 141.584 120 141.121L116.911 1.83284C116.902 1.37017 116.032 0.995829 114.98 1.00004L109.893 1.02948C108.842 1.03369 107.991 1.41644 108 1.87911L111.089 141.167C111.098 141.63 111.968 142.004 113.02 142L118.107 141.971Z" fill="#4A4A4C"/>
<path d="M118.107 141.971C119.159 141.966 120.009 141.584 120 141.121L116.912 1.83283C116.902 1.37017 116.032 0.995829 114.98 1.00004L109.893 1.02947C108.841 1.03368 107.991 1.41643 108 1.8791L111.088 141.167C111.098 141.63 111.968 142.004 113.02 142L118.107 141.971Z" fill="#4A4A4C"/>
<path d="M118.107 141.97C119.159 141.966 120.009 141.581 120 141.115L116.912 0.838741C116.902 0.372792 116.032 -0.00420055 114.98 3.53496e-05L109.893 0.0296833C108.841 0.0339192 107.991 0.419387 108 0.885336L111.088 141.161C111.098 141.627 111.968 142.004 113.02 142L118.107 141.97Z" fill="#4A4A4C"/>
<path d="M118.107 141.97C119.159 141.966 120.009 141.581 120 141.115L116.912 0.838747C116.902 0.372799 116.032 -0.00420055 114.98 3.5349e-05L109.893 0.0296897C108.841 0.0339256 107.991 0.419394 108 0.885342L111.088 141.161C111.098 141.627 111.968 142.004 113.02 142L118.107 141.97Z" fill="#4B4B4D"/>
<path d="M118.107 141.97C119.158 141.966 120.009 141.581 120 141.115L116.911 0.838741C116.902 0.372792 116.032 -0.00420055 114.98 3.53496e-05L109.893 0.0296833C108.842 0.0339192 107.991 0.419387 108 0.885336L111.089 141.161C111.098 141.627 111.968 142.004 113.02 142L118.107 141.97Z" fill="#4B4B4D"/>
<path d="M118.107 141.97C119.159 141.966 120.009 141.581 120 141.115L116.912 0.838741C116.902 0.372792 116.032 -0.00420055 114.98 3.53496e-05L109.893 0.0296833C108.841 0.0339192 107.991 0.419387 108 0.885336L111.088 141.161C111.098 141.627 111.968 142.004 113.02 142L118.107 141.97Z" fill="#4C4C4E"/>
<path d="M118.107 141.97C119.159 141.966 120.009 141.581 120 141.115L116.912 0.838747C116.902 0.372799 116.032 -0.00420055 114.98 3.5349e-05L109.893 0.0296897C108.841 0.0339256 107.991 0.419394 108 0.885342L111.088 141.161C111.098 141.627 111.968 142.004 113.02 142L118.107 141.97Z" fill="#4C4C4E"/>
<path d="M118.107 141.97C119.158 141.966 120.009 141.581 120 141.115L116.911 0.838747C116.902 0.372799 116.032 -0.00420055 114.98 3.5349e-05L109.893 0.0296897C108.842 0.0339256 107.991 0.419394 108 0.885342L111.089 141.161C111.098 141.627 111.968 142.004 113.02 142L118.107 141.97Z" fill="#4D4D4F"/>
<path d="M118.107 141.97C119.159 141.966 120.009 141.581 120 141.115L116.912 0.838741C116.902 0.372792 116.032 -0.00420055 114.98 3.53496e-05L109.893 0.0296833C108.841 0.0339192 107.991 0.419387 108 0.885336L111.088 141.161C111.098 141.627 111.968 142.004 113.02 142L118.107 141.97Z" fill="#4D4D4F"/>
<path d="M118.107 141.97C119.159 141.966 120.009 141.581 120 141.115L116.912 0.838741C116.902 0.372792 116.032 -0.00420055 114.98 3.53496e-05L109.893 0.0296833C108.841 0.0339192 107.991 0.419387 108 0.885336L111.088 141.161C111.098 141.627 111.968 142.004 113.02 142L118.107 141.97Z" fill="#4D4D4F"/>
<path d="M118.107 141.97C119.158 141.966 120.009 141.581 120 141.115L116.911 0.838747C116.902 0.372799 116.032 -0.00420055 114.98 3.5349e-05L109.893 0.0296897C108.841 0.0339256 107.991 0.419394 108 0.885342L111.088 141.161C111.098 141.627 111.968 142.004 113.02 142L118.107 141.97Z" fill="#4E4E50"/>
<path d="M118.107 141.97C119.159 141.966 120.009 141.581 120 141.115L116.912 0.838741C116.902 0.372792 116.032 -0.00420055 114.98 3.53496e-05L109.893 0.0296833C108.842 0.0339192 107.991 0.419387 108 0.885336L111.089 141.161C111.098 141.627 111.968 142.004 113.02 142L118.107 141.97Z" fill="#4E4E50"/>
<path d="M118.107 141.97C119.159 141.966 120.009 141.581 120 141.115L116.912 0.838741C116.902 0.372792 116.032 -0.00420055 114.98 3.53496e-05L109.893 0.0296833C108.841 0.0339192 107.991 0.419387 108 0.885336L111.088 141.161C111.098 141.627 111.968 142.004 113.02 142L118.107 141.97Z" fill="#4F4F51"/>
<path d="M118.107 141.97C119.159 141.966 120.009 141.581 120 141.115L116.912 0.838747C116.902 0.372799 116.032 -0.00420055 114.98 3.5349e-05L109.893 0.0296897C108.841 0.0339256 107.991 0.419394 108 0.885342L111.088 141.161C111.098 141.627 111.968 142.004 113.02 142L118.107 141.97Z" fill="#4F4F51"/>
<path d="M118.107 141.97C119.158 141.966 120.009 141.581 120 141.115L116.911 0.838747C116.902 0.372799 116.032 -0.00420055 114.98 3.5349e-05L109.893 0.0296897C108.842 0.0339256 107.991 0.419394 108 0.885342L111.089 141.161C111.098 141.627 111.968 142.004 113.02 142L118.107 141.97Z" fill="#505052"/>
<path d="M118.107 141.97C119.159 141.966 120.009 141.581 120 141.115L116.912 0.838741C116.902 0.372792 116.032 -0.00420055 114.98 3.53496e-05L109.893 0.0296833C108.841 0.0339192 107.991 0.419387 108 0.885336L111.088 141.161C111.098 141.627 111.968 142.004 113.02 142L118.107 141.97Z" fill="#505052"/>
<path d="M118.107 141.97C119.159 141.966 120.009 141.581 120 141.115L116.912 0.838741C116.902 0.372792 116.032 -0.00420055 114.98 3.53496e-05L109.893 0.0296833C108.841 0.0339192 107.991 0.419387 108 0.885336L111.088 141.161C111.098 141.627 111.968 142.004 113.02 142L118.107 141.97Z" fill="#505052"/>
<path d="M118.107 141.97C119.158 141.966 120.009 141.581 120 141.115L116.911 0.838747C116.902 0.372799 116.032 -0.00420055 114.98 3.5349e-05L109.893 0.0296897C108.842 0.0339256 107.991 0.419394 108 0.885342L111.089 141.161C111.098 141.627 111.968 142.004 113.02 142L118.107 141.97Z" fill="#505152"/>
<path d="M118.107 141.97C119.159 141.966 120.009 141.581 120 141.115L116.912 0.838747C116.902 0.372799 116.032 -0.00420055 114.98 3.5349e-05L109.893 0.0296897C108.842 0.0339256 107.991 0.419394 108 0.885342L111.089 141.161C111.098 141.627 111.968 142.004 113.02 142L118.107 141.97Z" fill="#505152"/>
<path d="M118.107 141.97C119.159 141.966 120.009 141.581 120 141.115L116.912 0.838741C116.902 0.372792 116.032 -0.00420055 114.98 3.53496e-05L109.893 0.0296833C108.841 0.0339192 107.991 0.419387 108 0.885336L111.088 141.161C111.098 141.627 111.968 142.004 113.02 142L118.107 141.97Z" fill="#515153"/>
<path d="M118.107 141.97C119.158 141.966 120.009 141.581 120 141.115L116.911 0.838747C116.902 0.372799 116.032 -0.00420055 114.98 3.5349e-05L109.893 0.0296897C108.841 0.0339256 107.991 0.419394 108 0.885342L111.088 141.161C111.098 141.627 111.968 142.004 113.02 142L118.107 141.97Z" fill="#515153"/>
<path d="M118.107 141.97C119.159 141.966 120.009 141.581 120 141.115L116.912 0.838747C116.902 0.372799 116.032 -0.00420055 114.98 3.5349e-05L109.893 0.0296897C108.842 0.0339256 107.991 0.419394 108 0.885342L111.089 141.161C111.098 141.627 111.968 142.004 113.02 142L118.107 141.97Z" fill="#525254"/>
<path d="M118.107 141.97C119.159 141.966 120.009 141.581 120 141.115L116.912 0.838741C116.902 0.372792 116.032 -0.00420055 114.98 3.53496e-05L109.893 0.0296833C108.841 0.0339192 107.991 0.419387 108 0.885336L111.088 141.161C111.098 141.627 111.968 142.004 113.02 142L118.107 141.97Z" fill="#525254"/>
<path d="M68.7499 166.28C97.2368 166.28 120.33 143.187 120.33 114.7C120.33 86.2132 97.2368 63.12 68.7499 63.12C40.2631 63.12 17.1699 86.2132 17.1699 114.7C17.1699 143.187 40.2631 166.28 68.7499 166.28Z" fill="#2A2929"/>
<path d="M68.75 157.45C45.18 157.45 26 138.27 26 114.7C26 91.1301 45.18 71.9501 68.75 71.9501C92.32 71.9501 111.5 91.1301 111.5 114.7C111.5 138.27 92.32 157.45 68.75 157.45Z" fill="url(#paint0_radial_567_940)"/>
<path d="M68.7502 152.6C49.4502 152.6 33.7603 136.9 33.7603 117.6C33.7603 98.3001 49.4602 82.6001 68.7502 82.6001C88.0402 82.6001 103.75 98.3001 103.75 117.6C103.75 136.9 88.0502 152.6 68.7502 152.6Z" fill="#2A2929"/>
<path d="M100.26 209.44H37.2498C34.0398 209.44 31.2098 207.34 30.2798 204.27L17.3798 161.71C17.1698 161.03 17.0698 160.31 17.0698 159.6V118.64H120.44V159.6C120.44 160.32 120.33 161.03 120.13 161.71L107.23 204.27C106.3 207.34 103.47 209.44 100.26 209.44Z" fill="#F6D330"/>
<path d="M25.4602 187.84L17.2002 160.94L35.0802 118.84H55.4102L25.4602 187.84Z" fill="#FFF2B7"/>
<path d="M56.0901 209.34H36.3901L74.3902 118.84H94.7201L56.0901 209.34Z" fill="#FFF2B7"/>
<path d="M97.2399 209.34H75.9199L112.67 118.61L120.43 118.65L120.27 148L97.2399 209.34Z" fill="#FFF2B7"/>
<g filter="url(#filter0_i_567_940)">
<path d="M134.61 256.3C128.63 242.35 110.37 240.36 110.37 240.36C121 252.31 114.69 271.91 100.74 272.24C86.79 272.57 82.81 263.61 82.81 263.61L86.4601 209.15H68.86V209.26L51.03 209.08L54.68 263.54C54.68 263.54 50.69 272.51 36.75 272.17C22.8 271.84 16.49 252.25 27.12 240.29C27.12 240.29 8.86005 242.28 2.88005 256.23C-3.09995 270.18 0.220041 294.42 26.12 297.07C52.02 299.73 68.7601 299.18 68.7601 299.18V299.07C68.7601 299.07 85.46 299.79 111.36 297.14C137.26 294.48 140.58 270.24 134.6 256.3H134.61Z" fill="#2A2929"/>
</g>
<path d="M109.43 244.05L84.96 231.59L85.34 225.24L109.82 238.6L109.43 244.05Z" fill="url(#paint1_linear_567_940)"/>
<path d="M27.9899 243.19L52.4599 230.74L52.0799 224.39L27.6099 237.75L27.9899 243.19Z" fill="url(#paint2_linear_567_940)"/>
<defs>
<filter id="filter0_i_567_940" x="0.331543" y="209.08" width="136.817" height="90.1472" filterUnits="userSpaceOnUse" color-interpolation-filters="sRGB">
<feFlood flood-opacity="0" result="BackgroundImageFix"/>
<feBlend mode="normal" in="SourceGraphic" in2="BackgroundImageFix" result="shape"/>
<feColorMatrix in="SourceAlpha" type="matrix" values="0 0 0 0 0 0 0 0 0 0 0 0 0 0 0 0 0 0 127 0" result="hardAlpha"/>
<feOffset dy="8"/>
<feComposite in2="hardAlpha" operator="arithmetic" k2="-1" k3="1"/>
<feColorMatrix type="matrix" values="0 0 0 0 1 0 0 0 0 1 0 0 0 0 1 0 0 0 0.2 0"/>
<feBlend mode="normal" in2="shape" result="effect1_innerShadow_567_940"/>
</filter>
<radialGradient id="paint0_radial_567_940" cx="0" cy="0" r="1" gradientUnits="userSpaceOnUse" gradientTransform="translate(68.75 114.7) scale(42.75)">
<stop offset="0.26" stop-color="#AFAFAF"/>
<stop offset="0.39" stop-color="#ABAAAA"/>
<stop offset="0.51" stop-color="#9F9E9E"/>
<stop offset="0.64" stop-color="#8B8A8A"/>
<stop offset="0.77" stop-color="#6F6E6E"/>
<stop offset="0.9" stop-color="#4B4A4A"/>
<stop offset="1" stop-color="#2A2929"/>
</radialGradient>
<linearGradient id="paint1_linear_567_940" x1="96.3203" y1="237.094" x2="99.3093" y2="230.397" gradientUnits="userSpaceOnUse">
<stop offset="0.26" stop-color="#AFAFAF"/>
<stop offset="0.39" stop-color="#A0A0A0"/>
<stop offset="0.64" stop-color="#7B7B7B"/>
<stop offset="0.98" stop-color="#403F3F"/>
<stop offset="1" stop-color="#3D3C3C"/>
</linearGradient>
<linearGradient id="paint2_linear_567_940" x1="41.1039" y1="236.24" x2="38.1149" y2="229.542" gradientUnits="userSpaceOnUse">
<stop offset="0.26" stop-color="#AFAFAF"/>
<stop offset="0.39" stop-color="#A0A0A0"/>
<stop offset="0.64" stop-color="#7B7B7B"/>
<stop offset="0.98" stop-color="#403F3F"/>
<stop offset="1" stop-color="#3D3C3C"/>
</linearGradient>
</defs>
</svg>
