<svg width="192" height="57" viewBox="0 0 192 57" fill="none" xmlns="http://www.w3.org/2000/svg">
<path d="M10.3125 20.625V16.5H12.375V20.625H10.3125ZM10.3125 10.3125V6.1875H12.375V10.3125H10.3125ZM20.625 24.75V14.4375H16.5V12.375H20.625V2.0625H2.0625V24.75H20.625ZM0 26.8125V0H22.6875V26.8125H0Z" fill="#464646"/>
<path d="M45.375 24.75V2.0625H37.125V16.5H35.0625V2.0625H26.8125V24.75H45.375ZM24.75 26.8125V0H47.4375V26.8125H24.75Z" fill="#464646"/>
<path d="M68.0625 24.75V18.5625H63.9375V8.25H68.0625V2.0625H51.5625V8.25H55.6875V18.5625H51.5625V24.75H68.0625ZM49.5 26.8125V16.5H53.625V10.3125H49.5V0H70.125V10.3125H66V16.5H70.125V26.8125H49.5Z" fill="#464646"/>
<path d="M92.8125 24.75V18.5625H82.5V2.0625H74.25V24.75H92.8125ZM72.1875 26.8125V0H84.5625V16.5H94.875V26.8125H72.1875Z" fill="#464646"/>
<path d="M115.5 24.75V22.6875H117.562V24.75H115.5ZM107.25 18.5625V8.25H109.312V18.5625H107.25ZM117.562 22.6875V4.125H119.625V22.6875H117.562ZM115.5 4.125V2.0625H117.562V4.125H115.5ZM96.9375 26.8125V0H115.5V2.0625H99V24.75H115.5V26.8125H96.9375Z" fill="#464646"/>
<path d="M140.25 24.75V18.5625H136.125V8.25H140.25V2.0625H123.75V8.25H127.875V18.5625H123.75V24.75H140.25ZM121.688 26.8125V16.5H125.812V10.3125H121.688V0H142.312V10.3125H138.188V16.5H142.312V26.8125H121.688Z" fill="#464646"/>
<path d="M165 24.75V2.0625H158.469V10.3125H156.75V2.0625H146.438V24.75H152.625V16.5H154.688V24.75H165ZM144.375 26.8125V0H167.062V26.8125H144.375Z" fill="#464646"/>
<path d="M189.812 24.75V14.4375H181.562V18.5625H183.625V20.625H179.5V8.25H181.562V12.375H189.812V2.0625H171.25V24.75H189.812ZM169.188 26.8125V0H191.875V26.8125H169.188Z" fill="#464646"/>
<path d="M35.0625 50.625V46.5H37.125V50.625H35.0625ZM35.0625 40.3125V36.1875H37.125V40.3125H35.0625ZM45.375 54.75V44.4375H41.25V42.375H45.375V32.0625H26.8125V54.75H45.375ZM24.75 56.8125V30H47.4375V56.8125H24.75Z" fill="#464646"/>
<path d="M68.0625 54.75V48.5625H59.8125V32.0625H51.5625V54.75H68.0625ZM49.5 56.8125V30H61.875V46.5H70.125V56.8125H49.5Z" fill="#464646"/>
<path d="M82.5 48.5625V38.25H84.5625V48.5625H82.5ZM92.8125 54.75V32.0625H74.25V54.75H92.8125ZM72.1875 56.8125V30H94.875V56.8125H72.1875Z" fill="#464646"/>
<path d="M117.562 54.75V44.4375H109.312V48.5625H107.25V38.25H109.312V42.375H117.562V32.0625H99V54.75H117.562ZM96.9375 56.8125V30H119.625V56.8125H96.9375Z" fill="#464646"/>
<path d="M140.25 54.75V44.4375H136.969V42.375H140.25V32.0625H132.969V38.25H130.969V32.0625H123.75V54.75H130.969V48.5625H132.969V54.75H140.25ZM121.688 56.8125V30H142.312V56.8125H121.688Z" fill="#464646"/>
<path d="M165 54.75V40.3125H156.75V38.25H165V32.0625H146.438V46.5H154.688V48.5625H146.438V54.75H165ZM144.375 56.8125V30H167.062V56.8125H144.375Z" fill="#464646"/>
</svg>
