<svg width="244" height="266" viewBox="0 0 244 266" fill="none" xmlns="http://www.w3.org/2000/svg">
<path d="M121.689 132.517L0.0791016 66.0261L0.0790985 199.009L121.689 265.5L121.689 132.517Z" fill="#93DEFC"/>
<path d="M243.298 66.0262L121.688 132.517L121.688 265.5L243.298 199.009L243.298 66.0262Z" fill="#65BEE1"/>
<path d="M243.298 66.4913L121.688 0L0.0784845 66.4913L121.688 132.983L243.298 66.4913Z" fill="#BDEBFD"/>
<mask id="mask0_668_259" style="mask-type:alpha" maskUnits="userSpaceOnUse" x="148" y="106" width="70" height="120">
<rect width="80" height="80" transform="matrix(0.866025 -0.5 0 1 148 146)" fill="#D9D9D9"/>
</mask>
<g mask="url(#mask0_668_259)">
<rect width="80" height="80" transform="matrix(0.866025 0.5 0 1 148 66)" fill="#D9D9D9"/>
<rect width="80" height="80" transform="matrix(0.866025 -0.5 0.866025 0.5 78.7178 186)" fill="white"/>
</g>
<mask id="mask1_668_259" style="mask-type:alpha" maskUnits="userSpaceOnUse" x="27" y="106" width="70" height="120">
<rect width="80" height="80" transform="matrix(-0.866025 -0.5 0 1 96.2822 146)" fill="#D9D9D9"/>
</mask>
<g mask="url(#mask1_668_259)">
<rect width="80" height="80" transform="matrix(-0.866025 0.5 0 1 96.2822 66)" fill="#D9D9D9"/>
<rect width="80" height="80" transform="matrix(-0.866025 -0.5 -0.866025 0.5 165.564 186)" fill="white"/>
</g>
<mask id="mask2_668_259" style="mask-type:alpha" maskUnits="userSpaceOnUse" x="148" y="106" width="70" height="120">
<rect width="80" height="80" transform="matrix(0.866025 -0.5 0 1 148 146)" fill="#D9D9D9"/>
</mask>
<g mask="url(#mask2_668_259)">
<rect width="80" height="80" transform="matrix(0.866025 0.5 0 1 148 66)" fill="#D9D9D9"/>
<rect width="80" height="80" transform="matrix(0.866025 -0.5 0.866025 0.5 78.7178 186)" fill="white"/>
</g>
<mask id="mask3_668_259" style="mask-type:alpha" maskUnits="userSpaceOnUse" x="27" y="106" width="70" height="120">
<rect width="80" height="80" transform="matrix(-0.866025 -0.5 0 1 96.2822 146)" fill="#D9D9D9"/>
</mask>
<g mask="url(#mask3_668_259)">
<rect width="80" height="80" transform="matrix(-0.866025 0.5 0 1 96.2822 66)" fill="#D9D9D9"/>
<rect width="80" height="80" transform="matrix(-0.866025 -0.5 -0.866025 0.5 165.564 186)" fill="white"/>
</g>
</svg>
