<svg width="244" height="266" viewBox="0 0 244 266" fill="none" xmlns="http://www.w3.org/2000/svg">
<path d="M121.611 133.017L0.000976562 66.5261L0.000973469 199.509L121.611 266L121.611 133.017Z" fill="#E593FC"/>
<path d="M243.22 66.5263L121.61 133.018L121.61 266L243.22 199.509L243.22 66.5263Z" fill="#C665E1"/>
<path d="M243.22 66.9913L121.61 0.5L0.000359538 66.9913L121.61 133.483L243.22 66.9913Z" fill="#EFBDFD"/>
<mask id="mask0_668_253" style="mask-type:alpha" maskUnits="userSpaceOnUse" x="147" y="106" width="70" height="120">
<rect width="80" height="80" transform="matrix(0.866025 -0.5 0 1 147 146)" fill="#D9D9D9"/>
</mask>
<g mask="url(#mask0_668_253)">
<rect width="80" height="80" transform="matrix(0.866025 0.5 0 1 147 66)" fill="#D9D9D9"/>
<rect width="80" height="80" transform="matrix(0.866025 -0.5 0.866025 0.5 77.7178 186)" fill="white"/>
</g>
<mask id="mask1_668_253" style="mask-type:alpha" maskUnits="userSpaceOnUse" x="26" y="106" width="70" height="120">
<rect width="80" height="80" transform="matrix(-0.866025 -0.5 0 1 95.2822 146)" fill="#D9D9D9"/>
</mask>
<g mask="url(#mask1_668_253)">
<rect width="80" height="80" transform="matrix(-0.866025 0.5 0 1 95.2822 66)" fill="#D9D9D9"/>
<rect width="80" height="80" transform="matrix(-0.866025 -0.5 -0.866025 0.5 164.564 186)" fill="white"/>
</g>
</svg>
