<svg width="244" height="266" viewBox="0 0 244 266" fill="none" xmlns="http://www.w3.org/2000/svg">
<path d="M121.611 133.017L0.000976562 66.5261L0.000973469 199.509L121.611 266L121.611 133.017Z" fill="#93AAFC"/>
<path d="M243.22 66.5262L121.61 133.017L121.61 266L243.22 199.509L243.22 66.5262Z" fill="#6580E1"/>
<path d="M243.22 66.9913L121.61 0.5L0.000359538 66.9913L121.61 133.483L243.22 66.9913Z" fill="#BDCBFD"/>
<mask id="mask0_668_251" style="mask-type:alpha" maskUnits="userSpaceOnUse" x="52" y="26" width="139" height="80">
<rect width="80" height="80" transform="matrix(-0.866025 0.5 0.866025 0.5 121.282 26)" fill="#D9D9D9"/>
</mask>
<g mask="url(#mask0_668_251)">
<rect width="80" height="80" transform="matrix(-0.866025 -0.5 0 1 121.282 26)" fill="white"/>
<rect width="80" height="80" transform="matrix(-0.866025 0.5 0 1 190.564 -14)" fill="#D9D9D9"/>
</g>
</svg>
