<svg width="244" height="266" viewBox="0 0 244 266" fill="none" xmlns="http://www.w3.org/2000/svg">
<path d="M121.689 133.017L0.0791016 66.5261L0.0790985 199.509L121.689 266L121.689 133.017Z" fill="url(#paint0_linear_668_258)"/>
<path d="M243.298 66.5262L121.688 133.017L121.688 266L243.298 199.509L243.298 66.5262Z" fill="url(#paint1_linear_668_258)"/>
<path d="M243.298 66.9913L121.688 0.5L0.0784845 66.9913L121.688 133.483L243.298 66.9913Z" fill="url(#paint2_linear_668_258)"/>
<mask id="mask0_668_258" style="mask-type:alpha" maskUnits="userSpaceOnUse" x="148" y="106" width="70" height="120">
<rect width="80" height="80" transform="matrix(0.866025 -0.5 0 1 148 146)" fill="#D9D9D9"/>
</mask>
<g mask="url(#mask0_668_258)">
<rect width="80" height="80" transform="matrix(0.866025 0.5 0 1 148 66)" fill="#D9D9D9"/>
<rect width="80" height="80" transform="matrix(0.866025 -0.5 0.866025 0.5 78.7178 186)" fill="white"/>
</g>
<mask id="mask1_668_258" style="mask-type:alpha" maskUnits="userSpaceOnUse" x="27" y="106" width="70" height="120">
<rect width="80" height="80" transform="matrix(-0.866025 -0.5 0 1 96.2822 146)" fill="#D9D9D9"/>
</mask>
<g mask="url(#mask1_668_258)">
<rect width="80" height="80" transform="matrix(-0.866025 0.5 0 1 96.2822 66)" fill="#D9D9D9"/>
<rect width="80" height="80" transform="matrix(-0.866025 -0.5 -0.866025 0.5 165.564 186)" fill="white"/>
</g>
<mask id="mask2_668_258" style="mask-type:alpha" maskUnits="userSpaceOnUse" x="52" y="30" width="139" height="80">
<rect width="80" height="80" transform="matrix(0.866025 0.5 -0.866025 0.5 121.282 30)" fill="#D9D9D9"/>
</mask>
<g mask="url(#mask2_668_258)">
<rect width="80" height="80" transform="matrix(0.866025 0.5 0 1 121.282 30)" fill="white"/>
<rect width="80" height="80" transform="matrix(0.866025 -0.5 0 1 52 70)" fill="#D9D9D9"/>
</g>
<defs>
<linearGradient id="paint0_linear_668_258" x1="0.0791016" y1="66.5261" x2="150.152" y2="90.9241" gradientUnits="userSpaceOnUse">
<stop stop-color="#E193FC"/>
<stop offset="1" stop-color="#FC93DE"/>
</linearGradient>
<linearGradient id="paint1_linear_668_258" x1="121.688" y1="132.896" x2="232.852" y2="118.623" gradientUnits="userSpaceOnUse">
<stop stop-color="#D74479"/>
<stop offset="1" stop-color="#E165BE"/>
</linearGradient>
<linearGradient id="paint2_linear_668_258" x1="121.611" y1="133.473" x2="117.604" y2="0.592788" gradientUnits="userSpaceOnUse">
<stop stop-color="#FFD5DA"/>
<stop offset="1" stop-color="#FDBDEB"/>
</linearGradient>
</defs>
</svg>
