<svg width="244" height="266" viewBox="0 0 244 266" fill="none" xmlns="http://www.w3.org/2000/svg">
<path d="M121.689 132.517L0.0791016 66.0261L0.0790985 199.009L121.689 265.5L121.689 132.517Z" fill="url(#paint0_linear_668_254)"/>
<path d="M243.298 66.0263L121.688 132.518L121.688 265.5L243.298 199.009L243.298 66.0263Z" fill="url(#paint1_linear_668_254)"/>
<path d="M243.298 66.4913L121.688 0L0.0784845 66.4913L121.688 132.983L243.298 66.4913Z" fill="url(#paint2_linear_668_254)"/>
<mask id="mask0_668_254" style="mask-type:alpha" maskUnits="userSpaceOnUse" x="147" y="106" width="70" height="120">
<rect width="80" height="80" transform="matrix(0.866025 -0.5 0 1 147 146)" fill="#D9D9D9"/>
</mask>
<g mask="url(#mask0_668_254)">
<rect width="80" height="80" transform="matrix(0.866025 0.5 0 1 147 66)" fill="#D9D9D9"/>
<rect width="80" height="80" transform="matrix(0.866025 -0.5 0.866025 0.5 77.7178 186)" fill="white"/>
</g>
<defs>
<linearGradient id="paint0_linear_668_254" x1="0.0791016" y1="66.0261" x2="150.152" y2="90.4241" gradientUnits="userSpaceOnUse">
<stop stop-color="#93AEFC"/>
<stop offset="1" stop-color="#B193FC"/>
</linearGradient>
<linearGradient id="paint1_linear_668_254" x1="121.688" y1="132.396" x2="232.852" y2="118.123" gradientUnits="userSpaceOnUse">
<stop stop-color="#A244D7"/>
<stop offset="1" stop-color="#8865E1"/>
</linearGradient>
<linearGradient id="paint2_linear_668_254" x1="121.611" y1="132.973" x2="117.604" y2="0.0927882" gradientUnits="userSpaceOnUse">
<stop stop-color="#FAD5FF"/>
<stop offset="1" stop-color="#CFBDFD"/>
</linearGradient>
</defs>
</svg>
