<svg width="244" height="266" viewBox="0 0 244 266" fill="none" xmlns="http://www.w3.org/2000/svg">
<path d="M121.611 132.517L0.000976562 66.0261L0.000973469 199.009L121.611 265.5L121.611 132.517Z" fill="#FCB193"/>
<path d="M243.22 66.0263L121.61 132.518L121.61 265.5L243.22 199.009L243.22 66.0263Z" fill="#E18865"/>
<path d="M243.22 66.4913L121.61 0L0.000359538 66.4913L121.61 132.983L243.22 66.4913Z" fill="#FDCFBD"/>
<mask id="mask0_668_350" style="mask-type:alpha" maskUnits="userSpaceOnUse" x="150" y="107" width="70" height="120">
<rect width="80" height="80" transform="matrix(0.866025 -0.5 0 1 150 147)" fill="#D9D9D9"/>
</mask>
<g mask="url(#mask0_668_350)">
<rect width="80" height="80" transform="matrix(0.866025 0.5 0 1 150 67)" fill="#D9D9D9"/>
<rect width="80" height="80" transform="matrix(0.866025 -0.5 0.866025 0.5 80.7178 187)" fill="white"/>
</g>
</svg>
