<svg width="244" height="266" viewBox="0 0 244 266" fill="none" xmlns="http://www.w3.org/2000/svg">
<path d="M121.689 133.017L0.0791016 66.5261L0.0790985 199.509L121.689 266L121.689 133.017Z" fill="url(#paint0_linear_668_257)"/>
<path d="M243.298 66.5262L121.688 133.017L121.688 266L243.298 199.509L243.298 66.5262Z" fill="url(#paint1_linear_668_257)"/>
<path d="M243.298 66.9913L121.688 0.5L0.0784845 66.9913L121.688 133.483L243.298 66.9913Z" fill="url(#paint2_linear_668_257)"/>
<mask id="mask0_668_257" style="mask-type:alpha" maskUnits="userSpaceOnUse" x="23" y="106" width="70" height="120">
<rect width="80" height="80" transform="matrix(-0.866025 -0.5 0 1 92.2822 146)" fill="#D9D9D9"/>
</mask>
<g mask="url(#mask0_668_257)">
<rect width="80" height="80" transform="matrix(-0.866025 0.5 0 1 92.2822 66)" fill="#D9D9D9"/>
<rect width="80" height="80" transform="matrix(-0.866025 -0.5 -0.866025 0.5 161.564 186)" fill="white"/>
</g>
<defs>
<linearGradient id="paint0_linear_668_257" x1="0.0791016" y1="66.5261" x2="150.152" y2="90.9241" gradientUnits="userSpaceOnUse">
<stop stop-color="#E3FC93"/>
<stop offset="1" stop-color="#AAFC93"/>
</linearGradient>
<linearGradient id="paint1_linear_668_257" x1="121.688" y1="132.896" x2="232.852" y2="118.623" gradientUnits="userSpaceOnUse">
<stop stop-color="#44D758"/>
<stop offset="1" stop-color="#80E165"/>
</linearGradient>
<linearGradient id="paint2_linear_668_257" x1="121.611" y1="133.473" x2="117.604" y2="0.592788" gradientUnits="userSpaceOnUse">
<stop stop-color="#D5FFE5"/>
<stop offset="1" stop-color="#CBFDBD"/>
</linearGradient>
</defs>
</svg>
