<svg width="192" height="57" viewBox="0 0 192 57" fill="none" xmlns="http://www.w3.org/2000/svg">
<path d="M10.3438 20.8125V16.6875H12.4062V20.8125H10.3438ZM10.3438 10.5V6.375H12.4062V10.5H10.3438ZM20.6562 24.9375V14.625H16.5312V12.5625H20.6562V2.25H2.09375V24.9375H20.6562ZM0.03125 27V0.1875H22.7188V27H0.03125Z" fill="#464646"/>
<path d="M45.4062 24.9375V2.25H37.1562V16.6875H35.0938V2.25H26.8438V24.9375H45.4062ZM24.7812 27V0.1875H47.4688V27H24.7812Z" fill="#464646"/>
<path d="M68.0938 24.9375V18.75H63.9688V8.4375H68.0938V2.25H51.5938V8.4375H55.7188V18.75H51.5938V24.9375H68.0938ZM49.5312 27V16.6875H53.6562V10.5H49.5312V0.1875H70.1562V10.5H66.0312V16.6875H70.1562V27H49.5312Z" fill="#464646"/>
<path d="M92.8438 24.9375V18.75H82.5312V2.25H74.2812V24.9375H92.8438ZM72.2188 27V0.1875H84.5938V16.6875H94.9062V27H72.2188Z" fill="#464646"/>
<path d="M115.531 24.9375V22.875H117.594V24.9375H115.531ZM107.281 18.75V8.4375H109.344V18.75H107.281ZM117.594 22.875V4.3125H119.656V22.875H117.594ZM115.531 4.3125V2.25H117.594V4.3125H115.531ZM96.9688 27V0.1875H115.531V2.25H99.0312V24.9375H115.531V27H96.9688Z" fill="#464646"/>
<path d="M140.281 24.9375V18.75H136.156V8.4375H140.281V2.25H123.781V8.4375H127.906V18.75H123.781V24.9375H140.281ZM121.719 27V16.6875H125.844V10.5H121.719V0.1875H142.344V10.5H138.219V16.6875H142.344V27H121.719Z" fill="#464646"/>
<path d="M165.031 24.9375V2.25H158.5V10.5H156.781V2.25H146.469V24.9375H152.656V16.6875H154.719V24.9375H165.031ZM144.406 27V0.1875H167.094V27H144.406Z" fill="#464646"/>
<path d="M189.844 24.9375V14.625H181.594V18.75H183.656V20.8125H179.531V8.4375H181.594V12.5625H189.844V2.25H171.281V24.9375H189.844ZM169.219 27V0.1875H191.906V27H169.219Z" fill="#464646"/>
<path d="M35.0938 50.8125V46.6875H37.1562V50.8125H35.0938ZM35.0938 40.5V36.375H37.1562V40.5H35.0938ZM45.4062 54.9375V44.625H41.2812V42.5625H45.4062V32.25H26.8438V54.9375H45.4062ZM24.7812 57V30.1875H47.4688V57H24.7812Z" fill="#464646"/>
<path d="M68.0938 54.9375V48.75H59.8438V32.25H51.5938V54.9375H68.0938ZM49.5312 57V30.1875H61.9062V46.6875H70.1562V57H49.5312Z" fill="#464646"/>
<path d="M82.5312 48.75V38.4375H84.5938V48.75H82.5312ZM92.8438 54.9375V32.25H74.2812V54.9375H92.8438ZM72.2188 57V30.1875H94.9062V57H72.2188Z" fill="#464646"/>
<path d="M117.594 54.9375V44.625H109.344V48.75H107.281V38.4375H109.344V42.5625H117.594V32.25H99.0312V54.9375H117.594ZM96.9688 57V30.1875H119.656V57H96.9688Z" fill="#464646"/>
<path d="M140.281 54.9375V44.625H137V42.5625H140.281V32.25H133V38.4375H131V32.25H123.781V54.9375H131V48.75H133V54.9375H140.281ZM121.719 57V30.1875H142.344V57H121.719Z" fill="#464646"/>
<path d="M165.031 54.9375V40.5H156.781V38.4375H165.031V32.25H146.469V46.6875H154.719V48.75H146.469V54.9375H165.031ZM144.406 57V30.1875H167.094V57H144.406Z" fill="#464646"/>
</svg>
